<?xml version="1.0" standalone="no"?>
<!DOCTYPE svg PUBLIC "-//W3C//DTD SVG 1.1//EN" "http://www.w3.org/Graphics/SVG/1.1/DTD/svg11.dtd" >
<svg xmlns="http://www.w3.org/2000/svg" xmlns:xlink="http://www.w3.org/1999/xlink" version="1.1">
<metadata>
Created by FontForge 20161013 at Tue Jun  6 06:33:20 2017
 By ,,,
Copyright 2017 The Asap Condensed Project Authors (https://github.com/Omnibus-Type/AsapCondensed) with Reserved Font Name "Asap".
</metadata>
<defs>
<font id="AsapCondensed-Regular" horiz-adv-x="482" >
  <font-face 
    font-family="Asap Condensed"
    font-weight="400"
    font-stretch="normal"
    units-per-em="1000"
    panose-1="2 15 5 6 3 2 2 6 2 3"
    ascent="800"
    descent="-200"
    x-height="523"
    cap-height="702"
    bbox="-311 -237 1043 1012"
    underline-thickness="70"
    underline-position="-163"
    unicode-range="U+000D-FB02"
  />
<missing-glyph horiz-adv-x="514" 
d="M7 700h500v-700h-500v700zM426 650h-340l171 -255zM227 350l-171 255v-510zM456 605l-169 -255l169 -255v510zM427 50l-171 255l-169 -255h340z" />
    <glyph glyph-name="fi" unicode="fi" horiz-adv-x="540" 
d="M455 503v-483q0 -22 -40 -22h-4q-40 0 -40 22v431h-190v-431q0 -22 -40 -22h-4q-40 0 -40 22v431h-29q-10 0 -15 7t-5 23v12q0 16 5 23t15 7h29v106q0 73 35 100t79 27q26 0 47.5 -8t21.5 -23q0 -11 -6 -29t-16 -18q-3 0 -12.5 3t-23.5 3q-20 0 -30.5 -12.5t-10.5 -50.5
v-98h234q40 0 40 -20zM459 680v-51q0 -22 -46 -22q-44 0 -44 22v51q0 22 46 22q44 0 44 -22z" />
    <glyph glyph-name="fl" unicode="fl" horiz-adv-x="556" 
d="M97 20v431h-29q-10 0 -15 7t-5 23v12q0 16 5 23t15 7h29v106q0 73 35 100t79 27q26 0 47.5 -8t21.5 -23q0 -11 -6 -29t-16 -18q-3 0 -12.5 3t-23.5 3q-20 0 -30.5 -12.5t-10.5 -50.5v-98h67q11 0 15.5 -7t4.5 -23v-12q0 -16 -4.5 -23t-15.5 -7h-67v-431q0 -22 -40 -22h-4
q-40 0 -40 22zM394.5 20.5q-32.5 26.5 -32.5 94.5v615q0 22 40 22h4q40 0 40 -22v-607q0 -57 37 -57q12 0 20 2.5t12 2.5q9 0 15 -18.5t6 -28.5q0 -15 -22 -22.5t-46 -7.5q-41 0 -73.5 26.5z" />
    <glyph glyph-name="f_f" unicode="ff" horiz-adv-x="572" 
d="M549.5 516q4.5 -7 4.5 -23v-12q0 -16 -4.5 -23t-15.5 -7h-67v-431q0 -22 -40 -22h-4q-40 0 -40 22v431h-202v-431q0 -22 -40 -22h-4q-40 0 -40 22v431h-29q-10 0 -15 7t-5 23v12q0 16 5 23t15 7h29v106q0 73 35 100t79 27q26 0 47.5 -8t21.5 -23q0 -11 -6 -29t-16 -18
q-3 0 -12.5 3t-23.5 3q-20 0 -30.5 -12.5t-10.5 -50.5v-98h202v106q0 73 35 100t79 27q26 0 47.5 -8t21.5 -23q0 -11 -6 -29t-16 -18q-3 0 -12.5 3t-23.5 3q-20 0 -30.5 -12.5t-10.5 -50.5v-98h67q11 0 15.5 -7z" />
    <glyph glyph-name=".notdef" horiz-adv-x="514" 
d="M7 700h500v-700h-500v700zM426 650h-340l171 -255zM227 350l-171 255v-510zM456 605l-169 -255l169 -255v510zM427 50l-171 255l-169 -255h340z" />
    <glyph glyph-name=".null" horiz-adv-x="0" 
 />
    <glyph glyph-name="nonmarkingreturn" unicode="&#xd;" horiz-adv-x="137" 
 />
    <glyph glyph-name="space" unicode=" " horiz-adv-x="137" 
 />
    <glyph glyph-name="exclam" unicode="!" horiz-adv-x="246" 
d="M85 224v456q0 22 38 22h23q37 0 37 -22l-28 -456q-1 -11 -8 -16.5t-23 -5.5h-8q-31 0 -31 22zM73 20v66q0 22 38 22h18q38 0 38 -22v-66q0 -22 -38 -22h-18q-38 0 -38 22z" />
    <glyph glyph-name="quotedbl" unicode="&#x22;" horiz-adv-x="309" 
d="M67 484l-22 184v12q0 22 40 22h10q40 0 40 -22q0 -9 -23 -196q-3 -12 -22 -12h-1q-19 0 -22 12zM195 484l-22 184v12q0 22 40 22h10q40 0 40 -22q0 -9 -23 -196q-3 -12 -22 -12h-1q-19 0 -22 12z" />
    <glyph glyph-name="numbersign" unicode="#" horiz-adv-x="514" 
d="M87 16l7 52l18 128h-68q-10 0 -15 7t-5 23v17q0 16 5 23t15 7h80l20 147h-70q-10 0 -15 7t-5 23v17q0 16 5 23t15 7h80l24 168q2 11 10 16t28 5h7q32 0 29 -20l-24 -169h100l23 168q2 11 10 16t28 5h9q32 0 29 -20l-23 -169h65q11 0 15.5 -7t4.5 -23v-17q0 -16 -4.5 -23
t-15.5 -7h-77l-20 -147h70q11 0 15.5 -7t4.5 -23v-17q0 -16 -4.5 -23t-15.5 -7h-81l-25 -177q-1 -11 -9.5 -16t-27.5 -5h-8q-29 0 -29 19q0 8 15 117l9 62h-100l-25 -177q-1 -11 -9 -16t-28 -5h-7q-30 0 -30 18zM298 273l20 147h-100l-20 -147h100z" />
    <glyph glyph-name="dollar" unicode="$" horiz-adv-x="440" 
d="M210 -55v50q-53 0 -93.5 11t-73.5 35q-6 4 -8.5 8.5t-2.5 14.5q0 18 6.5 37.5t16.5 19.5q4 0 6 -2t3 -2q54 -43 146 -43v242q-53 26 -86.5 49.5t-55 60t-21.5 89.5q0 79 44.5 130t118.5 63v34q0 16 18 16h1q18 0 18 -16v-31q79 0 129 -30q7 -4 7 -12q0 -13 -9.5 -37
t-18.5 -24q-3 0 -13 5q-38 19 -95 19v-236l5 -3q51 -26 82.5 -48.5t52.5 -59t21 -91.5q0 -81 -44 -132t-117 -63v-54q0 -9 -3.5 -12.5t-13.5 -3.5h-2q-18 0 -18 16zM210 627q-33 -10 -54 -36t-21 -66q0 -36 18.5 -61t56.5 -48v211zM299.5 119.5q19.5 27.5 19.5 67.5
q0 39 -18.5 64t-53.5 45v-215q33 11 52.5 38.5z" />
    <glyph glyph-name="percent" unicode="%" horiz-adv-x="686" 
d="M85 416q-36 35 -36 126q0 164 125 164q53 0 89 -36t36 -128q0 -91 -36 -126t-89 -35t-89 35zM168 -4.5q-5 2.5 -5 6.5t5 14l293 671q7 19 33 19h15q18 0 18 -9q0 -3 -1 -5.5t-2 -4.5l-294 -675q-8 -19 -33 -19h-16q-8 0 -13 2.5zM235 542q0 46 -12 77.5t-48 31.5
t-48 -31.5t-12 -77.5q0 -45 12.5 -75t47.5 -30q60 0 60 105zM423 30q-36 35 -36 126q0 164 125 164q53 0 89 -36t36 -128q0 -91 -36 -126t-89 -35t-89 35zM559.5 82q13.5 31 13.5 74q0 109 -61 109q-60 0 -60 -109q0 -105 60 -105q34 0 47.5 31z" />
    <glyph glyph-name="ampersand" unicode="&#x26;" horiz-adv-x="520" 
d="M490 52.5q6 -18.5 6 -28.5q0 -30 -65 -30q-57 0 -84 43q-33 -20 -64 -31.5t-71 -11.5q-76 0 -128 51t-52 158q0 75 27.5 123t70.5 61v4q-36 17 -58 55.5t-22 91.5q0 82 44.5 125t118.5 43q30 0 52.5 -7t22.5 -25q0 -8 -6.5 -28.5t-14.5 -20.5q-3 0 -16 4.5t-29 4.5
q-46 0 -65.5 -33.5t-19.5 -71.5q0 -27 11 -55t33 -47t54 -19h87l11 105q2 22 32 22h14q30 0 30 -22v-105h57q19 0 19 -30v-12q0 -30 -19 -30h-57v-196q0 -42 10 -58t28 -16q11 0 18.5 2.5t10.5 2.5q8 0 14 -18.5zM149.5 97.5q29.5 -31.5 72.5 -31.5q23 0 47.5 9t55.5 26
q-3 14 -3 31v204h-91q-56 0 -83.5 -29.5t-27.5 -102.5q0 -75 29.5 -106.5z" />
    <glyph glyph-name="quotesingle" unicode="'" horiz-adv-x="164" 
d="M61 484l-22 184v12q0 22 40 22h10q40 0 40 -22q0 -9 -23 -196q-3 -12 -22 -12h-1q-19 0 -22 12z" />
    <glyph glyph-name="parenleft" unicode="(" horiz-adv-x="249" 
d="M214 -201q-78 75 -122.5 204.5t-44.5 282.5q0 152 45 281t122 206q10 10 21 10q10 0 20 -7.5t10 -17.5q0 -12 -9 -22q-63 -73 -95.5 -191.5t-32.5 -258.5t32.5 -258.5t94.5 -191.5q9 -11 9 -20q0 -8 -9 -18t-19 -10q-11 0 -22 11z" />
    <glyph glyph-name="parenright" unicode=")" horiz-adv-x="249" 
d="M-6.5 -202.5q-9.5 9.5 -9.5 18.5q0 7 8 17q63 73 96 192.5t33 260.5t-32.5 259t-95.5 191q-9 12 -9 21t10 17.5t20 8.5q11 0 21 -10q78 -75 122.5 -204.5t44.5 -282.5q0 -152 -45 -281t-122 -206q-11 -11 -22 -11q-10 0 -19.5 9.5z" />
    <glyph glyph-name="asterisk" unicode="*" horiz-adv-x="299" 
d="M61.5 442q-7.5 6 -7.5 13q0 5 5 13l57 91l-81 32q-14 6 -14 15q0 11 5.5 17.5t12.5 6.5q8 0 12 -3l77 -29v91q0 20 20 20t20 -20v-91l76 29q4 3 12 3q7 0 12.5 -6t5.5 -17q0 -6 -3 -9.5t-11 -6.5l-82 -32l58 -91q5 -8 5 -13q0 -7 -7.5 -13t-15.5 -6q-9 0 -15 9l-55 86
l-56 -86q-6 -9 -15 -9q-8 0 -15.5 6z" />
    <glyph glyph-name="plus" unicode="+" horiz-adv-x="449" 
d="M198 2.5q-7 4.5 -7 15.5v179h-135q-10 0 -14.5 5.5t-4.5 20.5v7q0 34 19 34h135v179q0 11 7 15.5t23 4.5h7q16 0 23 -4.5t7 -15.5v-179h136q10 0 14 -7t4 -23v-7q0 -16 -4 -23t-14 -7h-136v-179q0 -10 -7 -15t-23 -5h-7q-16 0 -23 4.5z" />
    <glyph glyph-name="comma" unicode="," horiz-adv-x="188" 
d="M27.5 -112.5q-8.5 3.5 -8.5 11.5q0 4 3 12.5t4 11.5q13 39 20.5 75t7.5 78q0 15 9.5 23.5t28.5 8.5h10q18 0 28 -7.5t10 -20.5q0 -56 -16 -100.5t-38.5 -70t-38.5 -25.5q-11 0 -19.5 3.5z" />
    <glyph glyph-name="hyphen" unicode="-" horiz-adv-x="256" 
d="M30 260v10q0 30 19 30h156q19 0 19 -30v-10q0 -30 -19 -30h-156q-19 0 -19 30z" />
    <glyph glyph-name="period" unicode="." horiz-adv-x="188" 
d="M47 20v66q0 22 38 22h18q38 0 38 -22v-66q0 -22 -38 -22h-18q-38 0 -38 22z" />
    <glyph glyph-name="slash" unicode="/" horiz-adv-x="320" 
d="M-14 -58q0 7 3 15l264 726q7 20 33 20h6q24 0 24 -18q0 -4 -3 -13l-264 -728q-4 -11 -11.5 -15.5t-21.5 -4.5h-4q-26 0 -26 18z" />
    <glyph glyph-name="zero" unicode="0" horiz-adv-x="459" 
d="M87 81q-53 87 -53 269t53 269t141 87q89 0 142.5 -87t53.5 -269t-53.5 -269t-142.5 -87q-88 0 -141 87zM307 132.5q30 66.5 30 217.5t-30 217.5t-78 66.5q-49 0 -78 -66.5t-29 -217.5t29 -217.5t78 -66.5q48 0 78 66.5z" />
    <glyph glyph-name="one" unicode="1" horiz-adv-x="459" 
d="M49 7q-5 7 -5 23v12q0 16 5 23t15 7h133v539l-147 -24q-9 0 -14.5 17t-5.5 34q0 15 18 19l202 45q12 0 21.5 -6t9.5 -15v-609h113q11 0 15.5 -7t4.5 -23v-12q0 -16 -4.5 -23t-15.5 -7h-330q-10 0 -15 7z" />
    <glyph glyph-name="two" unicode="2" horiz-adv-x="459" 
d="M33 14q-6 14 -6 30q0 13 4 17l235 334q36 52 48 79t12 58q0 48 -30 75t-82 27q-38 0 -64 -11.5t-51 -29.5q-2 -2 -9.5 -7t-11.5 -5q-8 0 -20.5 19.5t-12.5 31.5q0 19 27.5 36t68 27.5t76.5 10.5q87 0 141 -45t54 -122q0 -38 -11 -69.5t-39.5 -74.5t-89.5 -123l-135 -201
h258q11 0 15.5 -7t4.5 -23v-11q0 -16 -4.5 -23t-15.5 -7h-348q-8 0 -14 14z" />
    <glyph glyph-name="three" unicode="3" horiz-adv-x="459" 
d="M115 2.5q-41 8.5 -66 22t-25 26.5q0 14 13 32t22 18q3 0 23 -8q54 -27 108 -27t95.5 32t41.5 108q0 71 -37.5 100.5t-105.5 29.5h-40q-10 0 -15 7t-5 23v11q0 16 5 23t15 7h36q45 0 73 21.5t40.5 51.5t12.5 57q0 38 -25.5 67.5t-86.5 29.5q-51 0 -98 -26q-16 -7 -19 -7
q-8 0 -20.5 20t-12.5 32q0 21 52.5 37t101.5 16q90 0 141.5 -45t51.5 -126q0 -101 -103 -144v-4q50 -14 88 -62t38 -125q0 -66 -28 -112.5t-76.5 -70t-107.5 -23.5q-46 0 -87 8.5z" />
    <glyph glyph-name="four" unicode="4" horiz-adv-x="459" 
d="M283 20v147h-247q-8 0 -16 18t-8 33q0 5 2 11l268 460q9 13 34 13h20q30 0 30 -22v-441h56q11 0 15.5 -7t4.5 -23v-12q0 -16 -4.5 -23t-15.5 -7h-56v-147q0 -22 -30 -22h-23q-30 0 -30 22zM283 239v200q0 64 9 122l-4 2l-186 -324h181z" />
    <glyph glyph-name="five" unicode="5" horiz-adv-x="459" 
d="M117.5 3.5q-38.5 9.5 -60 23.5t-21.5 27q0 14 13 32t22 18q4 0 22 -9q27 -14 50 -21.5t56 -7.5q55 0 93 38.5t38 107.5q0 68 -41 103t-119 35h-75q-16 0 -22 7t-6 23l17 290q1 16 8.5 23t23.5 7h248q11 0 15.5 -7t4.5 -23v-12q0 -16 -4.5 -23t-15.5 -7h-199l-13 -206h44
q89 0 154.5 -49t65.5 -163q0 -116 -62.5 -166t-151.5 -50q-46 0 -84.5 9.5z" />
    <glyph glyph-name="six" unicode="6" horiz-adv-x="459" 
d="M85.5 61q-48.5 66 -48.5 182q0 135 60 239t137 162t117 58q14 0 23.5 -20t9.5 -33q0 -8 -8 -11q-95 -41 -154.5 -109t-83.5 -157q49 33 114 33q48 0 86.5 -25t60 -71t21.5 -105q0 -63 -25.5 -110.5t-69.5 -73t-99 -25.5q-92 0 -140.5 66zM279.5 81.5q24.5 14.5 40 45
t15.5 74.5q0 67 -31.5 99.5t-78.5 32.5q-52 0 -101 -32q-3 -30 -3 -60q0 -96 31.5 -135t76.5 -39q26 0 50.5 14.5z" />
    <glyph glyph-name="seven" unicode="7" horiz-adv-x="459" 
d="M87.5 2q-9.5 4 -9.5 13q0 3 4 15l246 598h-278q-10 0 -15 7t-5 23v12q0 16 5 23t15 7h355q6 0 13 -18t7 -33q0 -5 -2 -11l-252 -624q-6 -16 -40 -16h-12q-22 0 -31.5 4z" />
    <glyph glyph-name="eight" unicode="8" horiz-adv-x="459" 
d="M92.5 44.5q-52.5 50.5 -52.5 147.5q0 129 102 182q-37 25 -58.5 62.5t-21.5 94.5q0 84 48 129.5t122 45.5q71 0 121 -42.5t50 -125.5q0 -59 -25.5 -99.5t-67.5 -62.5q52 -29 81 -68.5t29 -111.5q0 -95 -53 -148.5t-139 -53.5q-83 0 -135.5 50.5zM299 461.5
q19 29.5 19 72.5q0 50 -24.5 75t-62.5 25q-37 0 -61 -25t-24 -73q0 -49 25 -76t74 -51q35 23 54 52.5zM304 101.5q30 35.5 30 94.5q0 42 -17.5 68.5t-40.5 40.5t-72 37q-38 -24 -58 -58t-20 -87q0 -65 29.5 -98t73.5 -33q45 0 75 35.5z" />
    <glyph glyph-name="nine" unicode="9" horiz-adv-x="459" 
d="M86.5 16q-9.5 20 -9.5 33q0 8 8 11q95 41 154 109.5t83 156.5q-49 -33 -114 -33q-48 0 -86.5 25t-60 71t-21.5 105q0 63 25.5 110.5t69.5 73t99 25.5q93 0 141 -65.5t48 -182.5q0 -135 -60 -239t-137 -162t-116 -58q-14 0 -23.5 20zM336 398q3 30 3 60q0 96 -31 134.5
t-77 38.5q-26 0 -50 -14.5t-40 -44.5t-16 -74q0 -67 31.5 -100t78.5 -33q50 0 101 33z" />
    <glyph glyph-name="colon" unicode=":" horiz-adv-x="188" 
d="M47 437v66q0 22 38 22h18q38 0 38 -22v-66q0 -22 -38 -22h-18q-38 0 -38 22zM47 20v66q0 22 38 22h18q38 0 38 -22v-66q0 -22 -38 -22h-18q-38 0 -38 22z" />
    <glyph glyph-name="semicolon" unicode=";" horiz-adv-x="188" 
d="M47 437v66q0 22 38 22h18q38 0 38 -22v-66q0 -22 -38 -22h-18q-38 0 -38 22zM27.5 -112.5q-8.5 3.5 -8.5 11.5q0 4 3 12.5t4 11.5q13 39 20.5 75t7.5 78q0 15 9.5 23.5t28.5 8.5h10q18 0 28 -7.5t10 -20.5q0 -56 -16 -100.5t-38.5 -70t-38.5 -25.5q-11 0 -19.5 3.5z" />
    <glyph glyph-name="less" unicode="&#x3c;" horiz-adv-x="448" 
d="M53 183q-11 6 -16 14t-5 21v17q0 25 21 35l331 174q6 3 11 3q15 0 15 -26v-14q0 -25 -20 -36l-266 -144l266 -145q21 -12 21 -36v-14q0 -26 -16 -26q-5 0 -11 3z" />
    <glyph glyph-name="equal" unicode="=" horiz-adv-x="449" 
d="M37 301v7q0 30 24 30h328q23 0 23 -30v-7q0 -30 -23 -30h-328q-24 0 -24 30zM37 137v8q0 30 24 30h328q23 0 23 -30v-8q0 -30 -23 -30h-328q-24 0 -24 30z" />
    <glyph glyph-name="greater" unicode="&#x3e;" horiz-adv-x="448" 
d="M51 6q-16 0 -16 26v14q0 24 21 36l266 145l-266 144q-20 11 -20 36v14q0 26 15 26q5 0 11 -3l331 -174q21 -10 21 -35v-17q0 -13 -5 -21t-16 -14l-331 -174q-6 -3 -11 -3z" />
    <glyph glyph-name="question" unicode="?" horiz-adv-x="391" 
d="M117 225q0 34 21.5 77t60.5 87q43 48 62.5 78.5t19.5 66.5q0 48 -27.5 73t-80.5 25q-43 0 -90 -26q-3 -1 -10 -4.5t-11 -3.5q-7 0 -19.5 20t-12.5 31q0 24 49 40.5t103 16.5q58 0 102.5 -21.5t68 -59t23.5 -83.5q0 -33 -13 -63.5t-31 -54t-51 -61.5q-42 -48 -61.5 -77.5
t-24.5 -63.5q-2 -10 -9 -15t-24 -5h-15q-30 0 -30 23zM104 20v66q0 22 40 22h17q40 0 40 -22v-66q0 -22 -40 -22h-17q-40 0 -40 22z" />
    <glyph glyph-name="at" unicode="@" horiz-adv-x="792" 
d="M591.5 665q64.5 -40 100 -115t35.5 -175q0 -89 -24.5 -162.5t-68 -116t-99.5 -42.5q-37 0 -59 19.5t-25 57.5q-42 -77 -114 -77q-28 0 -55 16.5t-46 57t-19 108.5q0 78 22 139t62.5 95.5t93.5 34.5q30 0 53.5 -13.5t37.5 -30.5q9 27 14 34t20 7h6q22 0 22 -21l-9 -106
q-18 -205 -18 -229t11 -31.5t23 -7.5q30 0 57.5 38.5t44 101t16.5 131.5q0 85 -29 149.5t-82 99t-123 34.5q-91 0 -166.5 -56.5t-119.5 -153.5t-44 -215q0 -94 28.5 -166t80.5 -112t120 -40q33 0 55 5.5t46 15.5q18 8 25 8q14 0 14 -23q0 -26 -48.5 -38t-95.5 -12
q-82 0 -145.5 46t-98.5 128.5t-35 188.5q0 129 51 236.5t139.5 169.5t196.5 62q85 0 149.5 -40zM462.5 337.5q5.5 58.5 10.5 75.5q-32 30 -70 30q-62 0 -87.5 -57t-25.5 -145q0 -67 18.5 -96.5t49.5 -29.5q25 0 51 25.5t45 84.5q3 54 8.5 112.5z" />
    <glyph glyph-name="A" unicode="A" horiz-adv-x="505" 
d="M13 15q0 3 2 13l181 655q6 19 40 19h32q36 0 40 -19l181 -655q3 -7 3 -13q0 -8 -9.5 -12.5t-27.5 -4.5h-17q-32 0 -36 16l-43 164h-215l-42 -164q-4 -16 -36 -16h-16q-37 0 -37 17zM337 254l-71 274q-3 13 -11 61h-5q-2 -7 -4 -23l-8 -38l-71 -274h170z" />
    <glyph glyph-name="B" unicode="B" horiz-adv-x="539" 
d="M84.5 7q-6.5 7 -6.5 23v640q0 16 6.5 23t21.5 7h173q94 0 141.5 -47.5t47.5 -129.5q0 -50 -27 -95t-63 -57v-4q39 -14 76.5 -50t37.5 -116q0 -103 -53.5 -152t-159.5 -49h-173q-15 0 -21.5 7zM272 398q46 0 74.5 33.5t28.5 83.5q0 56 -25.5 82.5t-79.5 26.5h-102v-226
h104zM297 76q48 0 75.5 34.5t27.5 94.5q0 55 -30.5 86t-86.5 31h-115v-246h129z" />
    <glyph glyph-name="C" unicode="C" horiz-adv-x="459" 
d="M112.5 80.5q-63.5 86.5 -63.5 269.5q0 181 64.5 268.5t196.5 87.5q28 0 55 -5t46 -14q10 -4 13.5 -10t3.5 -17q0 -17 -8 -39t-23 -14q-42 21 -87 21q-86 0 -127 -67t-41 -210t40.5 -211t126.5 -68q52 0 94 25q6 2 9 2q13 0 20.5 -17.5t7.5 -33.5q0 -10 -5 -18t-19 -15
q-17 -8 -46 -14.5t-61 -6.5q-133 0 -196.5 86.5z" />
    <glyph glyph-name="D" unicode="D" horiz-adv-x="577" 
d="M84.5 7q-6.5 7 -6.5 23v640q0 16 6.5 23t20.5 7h168q251 0 251 -350t-251 -350h-168q-14 0 -20.5 7zM271 76q75 0 118 65.5t43 208.5q0 142 -43 208t-118 66h-102v-548h102z" />
    <glyph glyph-name="E" unicode="E" horiz-adv-x="457" 
d="M84.5 7q-6.5 7 -6.5 23v640q0 16 6.5 23t20.5 7h288q19 0 19 -30v-16q0 -30 -19 -30h-225v-228h202q19 0 19 -30v-16q0 -30 -19 -30h-202v-244h225q10 0 14.5 -7t4.5 -23v-16q0 -16 -4.5 -23t-14.5 -7h-288q-14 0 -20.5 7z" />
    <glyph glyph-name="F" unicode="F" horiz-adv-x="423" 
d="M78 20v650q0 16 6.5 23t20.5 7h260q19 0 19 -30v-16q0 -30 -19 -30h-197v-228h180q19 0 19 -30v-16q0 -30 -19 -30h-180v-300q0 -22 -38 -22h-14q-38 0 -38 22z" />
    <glyph glyph-name="G" unicode="G" horiz-adv-x="552" 
d="M484 352v-286q0 -38 -55 -55t-127 -17q-253 0 -253 350q0 184 66 273t196 89q37 0 74 -10t61.5 -24.5t24.5 -27.5q0 -14 -13 -36t-23 -22q-3 0 -21 11.5t-43.5 20.5t-58.5 9q-90 0 -130 -69.5t-40 -204.5q0 -127 38 -205t125 -78q53 0 89 13v223h-85q-10 0 -15 7t-5 23
v16q0 16 5 23t15 7h148q27 0 27 -30z" />
    <glyph glyph-name="H" unicode="H" horiz-adv-x="601" 
d="M78 20v660q0 22 38 22h15q37 0 37 -22v-283h263v283q0 22 38 22h14q38 0 38 -22v-660q0 -22 -38 -22h-14q-38 0 -38 22v301h-263v-301q0 -22 -37 -22h-15q-38 0 -38 22z" />
    <glyph glyph-name="I" unicode="I" horiz-adv-x="262" 
d="M86 20v660q0 22 38 22h15q37 0 37 -22v-660q0 -22 -37 -22h-15q-38 0 -38 22z" />
    <glyph glyph-name="J" unicode="J" horiz-adv-x="355" 
d="M38 2.5q-29 8.5 -29 23.5q0 13 7 34t16 21q6 0 23 -4.5t34 -4.5q50 0 72.5 29t22.5 94v485q0 22 38 22h14q39 0 39 -22v-475q0 -99 -42.5 -155t-133.5 -56q-32 0 -61 8.5z" />
    <glyph glyph-name="K" unicode="K" horiz-adv-x="510" 
d="M503 12q0 -8 -9 -11t-31 -3h-21q-20 0 -31 2t-17 11l-219 326h-3v-317q0 -22 -39 -22h-13q-38 0 -38 22v660q0 22 38 22h13q39 0 39 -22v-312h3l212 320q9 14 47 14h17q17 0 26 -3.5t9 -9.5q0 -8 -9 -20l-215 -312l234 -329q7 -9 7 -16z" />
    <glyph glyph-name="L" unicode="L" horiz-adv-x="408" 
d="M84.5 7q-6.5 7 -6.5 23v650q0 22 38 22h14q38 0 38 -22v-604h208q11 0 15.5 -7t4.5 -23v-16q0 -16 -4.5 -23t-15.5 -7h-271q-14 0 -20.5 7z" />
    <glyph glyph-name="M" unicode="M" horiz-adv-x="689" 
d="M307 252l-117 230q-14 28 -30 69l-4 -2q5 -40 5 -71v-458q0 -22 -38 -22h-12q-38 0 -38 22v660q0 22 38 22h21q29 0 38 -18l160 -313q11 -22 16 -48q5 26 16 48l160 313q9 18 38 18h21q38 0 38 -22v-660q0 -22 -38 -22h-12q-38 0 -38 22v458q0 31 5 71l-4 2
q-16 -41 -30 -69l-117 -230q-6 -13 -22 -13h-34q-16 0 -22 13z" />
    <glyph glyph-name="N" unicode="N" horiz-adv-x="590" 
d="M73 20v660q0 22 38 22h24q15 0 24 -4.5t15 -15.5l232 -447q14 -26 26 -63l5 2q-8 35 -8 66v440q0 22 38 22h12q38 0 38 -22v-660q0 -22 -38 -22h-21q-28 0 -36 15l-238 462q-14 26 -26 63l-5 -2q8 -35 8 -66v-450q0 -22 -38 -22h-12q-38 0 -38 22z" />
    <glyph glyph-name="O" unicode="O" horiz-adv-x="599" 
d="M113 83q-64 89 -64 269q0 354 250 354q251 0 251 -354q0 -180 -64 -269t-187 -89q-122 0 -186 89zM458 352q0 278 -158 278q-79 0 -118.5 -67.5t-39.5 -210.5q0 -282 158 -282t158 282z" />
    <glyph glyph-name="P" unicode="P" 
d="M73 20v650q0 16 6.5 23t20.5 7h165q71 0 126.5 -42t55.5 -154q0 -83 -31.5 -129t-71 -61.5t-71.5 -15.5h-110v-278q0 -22 -38 -22h-14q-38 0 -38 22zM268 374q33 0 60 29t27 101q0 67 -27.5 93.5t-66.5 26.5h-98v-250h105z" />
    <glyph glyph-name="Q" unicode="Q" horiz-adv-x="599" 
d="M389.5 -94q-142.5 75 -196.5 107q-144 73 -144 337q0 180 63.5 268t186.5 88t187 -88.5t64 -267.5q0 -146 -42 -232t-123 -112v-3l194 -89q12 -6 12 -16q-2 -14 -18 -40.5t-31 -26.5q-10 0 -152.5 75zM417.5 139q40.5 70 40.5 211q0 142 -40.5 211t-117.5 69
q-158 0 -158 -280q0 -281 158 -281q77 0 117.5 70z" />
    <glyph glyph-name="R" unicode="R" horiz-adv-x="513" 
d="M77 20v650q0 16 6.5 23t20.5 7h148q99 0 147 -42t48 -135q0 -62 -24.5 -104.5t-67.5 -64.5v-4q20 -10 35 -39t34 -86l63 -197q3 -9 3 -14q0 -16 -39 -16h-17q-14 0 -24.5 4.5t-12.5 11.5l-60 196q-18 57 -40.5 77.5t-66.5 20.5h-63v-288q0 -22 -38 -22h-14q-38 0 -38 22z
M267 384q36 0 61.5 36.5t25.5 86.5q0 59 -24.5 88t-68.5 29h-95v-240h101z" />
    <glyph glyph-name="S" unicode="S" horiz-adv-x="437" 
d="M43 41q-6 4 -8.5 8.5t-2.5 14.5q0 18 6.5 37.5t16.5 19.5q4 0 6 -2t3 -2q55 -43 139 -43q51 0 83.5 30.5t32.5 82.5q0 47 -26 73.5t-77 52.5q-57 28 -90.5 51t-56 59.5t-22.5 91.5q0 91 57.5 143.5t149.5 52.5q71 0 122 -30q7 -4 7 -12q0 -13 -9.5 -37t-18.5 -24
q-3 0 -13 5q-38 19 -93 19q-48 0 -81 -27.5t-33 -79.5q0 -45 27.5 -72.5t89.5 -59.5q51 -26 82.5 -48.5t52.5 -59t21 -91.5q0 -94 -58 -146.5t-150 -52.5q-93 0 -157 46z" />
    <glyph glyph-name="T" unicode="T" horiz-adv-x="454" 
d="M183 20v604h-144q-19 0 -19 30v16q0 30 19 30h376q11 0 15.5 -7t4.5 -23v-16q0 -16 -4.5 -23t-15.5 -7h-142v-604q0 -22 -38 -22h-14q-38 0 -38 22z" />
    <glyph glyph-name="U" unicode="U" horiz-adv-x="583" 
d="M126.5 47q-58.5 53 -58.5 148v485q0 22 38 22h14q38 0 38 -22v-488q0 -54 37.5 -88t96.5 -34q58 0 95.5 34.5t37.5 87.5v488q0 22 38 22h14q38 0 38 -22v-485q0 -95 -58 -148t-165 -53t-165.5 53z" />
    <glyph glyph-name="V" unicode="V" horiz-adv-x="508" 
d="M196 14l-174 658l-2 6t-1 7q0 17 40 17h14q32 0 37 -16l134 -532l8 -52h3l9 53l135 531q4 16 37 16h12q40 0 40 -17q0 -5 -3 -14l-174 -657q-4 -16 -37 -16h-42q-32 0 -36 16z" />
    <glyph glyph-name="W" unicode="W" horiz-adv-x="752" 
d="M160 14l-139 657l-2 12q0 19 40 19h13q36 0 39 -16l92 -483q6 -30 13 -86l3 -25l20 114l93 479q4 17 36 17h20q32 0 36 -17l94 -481q8 -37 17 -112l19 111l89 483q3 16 40 16h11q40 0 40 -19l-2 -12l-140 -657q-3 -16 -36 -16h-40q-33 0 -36 16l-88 421l-16 125l-16 -125
l-88 -421q-3 -16 -36 -16h-40q-33 0 -36 16z" />
    <glyph glyph-name="X" unicode="X" horiz-adv-x="506" 
d="M31 2q-10 4 -10 13q0 4 7 18l168 332l-149 302q-7 12 -7 18q0 17 42 17h20q15 0 24.5 -3t13.5 -12l115 -251l120 252q4 8 13.5 11t25.5 3h14q22 0 32 -4t10 -13q0 -4 -7 -18l-152 -297l168 -337q7 -14 7 -18q0 -17 -42 -17h-20q-31 0 -39 15l-132 285l-136 -286
q-4 -8 -13.5 -11t-25.5 -3h-15q-22 0 -32 4z" />
    <glyph glyph-name="Y" unicode="Y" horiz-adv-x="484" 
d="M197 20v297l-170 350q-7 12 -7 18q0 17 42 17h18q17 0 26 -3t13 -12l126 -282l127 283q3 8 13.5 11t26.5 3h14q20 -1 29 -5t9 -12q0 -7 -6 -18l-171 -353v-294q0 -22 -38 -22h-14q-38 0 -38 22z" />
    <glyph glyph-name="Z" unicode="Z" horiz-adv-x="507" 
d="M42 18.5q-8 18.5 -8 34.5q0 6 2 12l321 559h-279q-10 0 -14 8t-4 26v8q0 18 4 26t14 8h366q7 0 14.5 -18.5t7.5 -34.5q0 -9 -1 -12l-319 -559h301q19 0 19 -34v-8q0 -34 -19 -34h-389q-8 0 -16 18.5z" />
    <glyph glyph-name="bracketleft" unicode="[" horiz-adv-x="239" 
d="M73.5 -131q-6.5 7 -6.5 23v846q0 16 6.5 23t20.5 7h102q10 0 14.5 -6.5t4.5 -22.5v-5q0 -16 -4.5 -22.5t-14.5 -6.5h-57v-781h57q10 0 14.5 -6.5t4.5 -22.5v-4q0 -16 -4.5 -22.5t-14.5 -6.5h-102q-14 0 -20.5 7z" />
    <glyph glyph-name="backslash" unicode="\" horiz-adv-x="289" 
d="M220 1l-215 667q-3 9 -3 16q0 18 22 18h11q22 0 29 -21l216 -670q2 -8 2 -13q0 -8 -6 -13t-17 -5h-11q-22 0 -28 21z" />
    <glyph glyph-name="bracketright" unicode="]" horiz-adv-x="239" 
d="M28.5 -131.5q-4.5 6.5 -4.5 22.5v4q0 16 4.5 22.5t14.5 6.5h58v781h-58q-10 0 -14.5 6.5t-4.5 22.5v5q0 16 4.5 22.5t14.5 6.5h103q14 0 20 -7t6 -23v-846q0 -16 -6 -23t-20 -7h-103q-10 0 -14.5 6.5z" />
    <glyph glyph-name="asciicircum" unicode="^" horiz-adv-x="360" 
d="M37 341q0 4 2 14l102 309q4 11 11 15.5t18 4.5h20q12 0 18.5 -4.5t10.5 -15.5l102 -309q2 -10 2 -14q0 -21 -23 -21h-8q-26 0 -32 23l-80 261l-80 -261q-7 -23 -31 -23h-9q-23 0 -23 21z" />
    <glyph glyph-name="underscore" unicode="_" horiz-adv-x="427" 
d="M-17 -118v8q0 20 19 20h423q19 0 19 -20v-8q0 -20 -19 -20h-423q-19 0 -19 20z" />
    <glyph glyph-name="grave" unicode="`" horiz-adv-x="256" 
d="M132 603q-56 75 -67.5 91.5t-11.5 24.5q0 7 10 10t32 3q43 0 57 -26l20 -42q13 -29 20.5 -46t7.5 -23q0 -5 -4.5 -7.5t-16.5 -2.5q-35 0 -47 18z" />
    <glyph glyph-name="a" unicode="a" horiz-adv-x="481" 
d="M90.5 34.5q-39.5 40.5 -39.5 114.5q0 75 39 115t97 53.5t133 14.5v47q0 34 -21 56t-66 22q-35 0 -61.5 -8.5t-45.5 -18t-22 -9.5q-10 0 -22.5 19.5t-12.5 29.5q0 13 23.5 27t62 23t79.5 9q80 0 125 -40t45 -111v-230q0 -66 6 -94.5t6 -31.5q0 -12 -19 -17.5t-35 -5.5
q-15 0 -22 15.5t-13 43.5q-53 -64 -130 -64q-67 0 -106.5 40.5zM320 130v129q-56 -1 -92.5 -8t-62.5 -30.5t-26 -70.5q0 -77 75 -77q65 0 106 57z" />
    <glyph glyph-name="b" unicode="b" 
d="M212 13q-31 19 -54 56l-10 -59q-5 -12 -31 -12h-6q-33 0 -33 22v710q0 22 38 22h11q37 0 37 -22v-252q22 25 46.5 38t59.5 13q75 0 120 -69.5t45 -194.5q0 -80 -19.5 -141.5t-55 -95.5t-82.5 -34q-35 0 -66 19zM322.5 119q22.5 52 22.5 147q0 189 -96 189q-50 0 -85 -45
v-274q19 -33 43.5 -51t49.5 -18q43 0 65.5 52z" />
    <glyph glyph-name="c" unicode="c" horiz-adv-x="408" 
d="M97.5 58q-51.5 64 -51.5 206q0 147 54.5 206t152.5 59q46 0 85.5 -14t39.5 -32q0 -12 -11.5 -33t-19.5 -21q-1 0 -11 4q-42 24 -81 24q-59 0 -88.5 -44.5t-29.5 -146.5q0 -106 28 -153t93 -47q46 0 83 22q4 2 7.5 4.5t5.5 3.5q10 0 21.5 -19.5t11.5 -31.5
q0 -11 -21.5 -23t-52.5 -20t-57 -8q-107 0 -158.5 64z" />
    <glyph glyph-name="d" unicode="d" horiz-adv-x="481" 
d="M121.5 28q-35.5 34 -55 95t-19.5 141q0 125 45 195t120 70q35 0 59.5 -13t46.5 -38v252q0 22 37 22h11q38 0 38 -22v-582q0 -63 5 -93t5 -34q0 -11 -21.5 -16.5t-36.5 -5.5t-20.5 14t-8.5 32l-4 24q-23 -37 -53.5 -56t-65.5 -19q-47 0 -82.5 34zM274.5 85
q24.5 18 43.5 51v274q-34 45 -84 45q-98 0 -98 -190q0 -94 22.5 -146t66.5 -52q25 0 49.5 18z" />
    <glyph glyph-name="e" unicode="e" horiz-adv-x="454" 
d="M98.5 59q-51.5 65 -51.5 199q0 133 50 202t147 69q87 0 131 -66.5t44 -194.5q0 -9 -12 -25t-21 -16h-249q5 -85 32 -123t86 -38q36 0 60 10t39 21t18 11q10 0 22.5 -20t12.5 -30q0 -12 -20.5 -27.5t-55.5 -26t-75 -10.5q-106 0 -157.5 65zM330 299q0 158 -89 158
q-96 0 -104 -158h193z" />
    <glyph glyph-name="f" unicode="f" horiz-adv-x="286" 
d="M97 20v431h-29q-10 0 -15 7t-5 23v12q0 16 5 23t15 7h29v106q0 73 35 100t79 27q26 0 47.5 -8t21.5 -23q0 -11 -6 -29t-16 -18q-3 0 -12.5 3t-23.5 3q-20 0 -30.5 -12.5t-10.5 -50.5v-98h67q11 0 15.5 -7t4.5 -23v-12q0 -16 -4.5 -23t-15.5 -7h-67v-431q0 -22 -40 -22h-4
q-40 0 -40 22z" />
    <glyph glyph-name="g" unicode="g" horiz-adv-x="471" 
d="M91 -182.5q-47 29.5 -47 94.5q0 43 20.5 75t57.5 51v2q-15 12 -23.5 31t-8.5 42q0 58 47 94q-36 21 -55 60t-19 90q0 78 42.5 125t122.5 47q25 0 47 -6h150q20 0 20 -29v-12q0 -15 -4.5 -21.5t-15.5 -6.5q-40 0 -55 2l-2 -2q23 -41 23 -96q0 -75 -40.5 -122t-114.5 -50
q-36 -2 -57.5 -18t-21.5 -47q0 -30 24 -41t74 -18l26 -4q64 -10 98 -37t34 -85q0 -72 -49 -110t-144 -38q-82 0 -129 29.5zM293.5 273q24.5 23 24.5 83q0 61 -24.5 84.5t-66.5 23.5q-43 0 -66.5 -23t-23.5 -85q0 -60 23.5 -83t66.5 -23q42 0 66.5 23zM337 -73
q0 26 -14.5 39.5t-36 19t-57.5 10.5q-44 6 -62 12q-52 -27 -52 -80q0 -75 112 -75q110 0 110 74z" />
    <glyph glyph-name="h" unicode="h" horiz-adv-x="485" 
d="M81 20v710q0 22 38 22h11q37 0 37 -22v-268q21 31 52.5 49t69.5 18q55 0 91.5 -38.5t36.5 -117.5v-353q0 -22 -38 -22h-10q-38 0 -38 22v345q0 44 -18 67.5t-53 23.5q-34 0 -60 -24t-33 -46v-366q0 -22 -38 -22h-10q-38 0 -38 22z" />
    <glyph glyph-name="i" unicode="i" horiz-adv-x="254" 
d="M83 629v51q0 22 46 22q44 0 44 -22v-51q0 -22 -46 -22q-44 0 -44 22zM85 20v483q0 22 40 22h4q40 0 40 -22v-483q0 -22 -40 -22h-4q-40 0 -40 22z" />
    <glyph glyph-name="j" unicode="j" horiz-adv-x="249" 
d="M83 629v51q0 22 46 22q44 0 44 -22v-51q0 -22 -46 -22q-44 0 -44 22zM-10 -182q0 10 6 28.5t15 18.5q4 0 12 -2.5t24 -2.5q38 0 38 68v575q0 22 40 22h4q40 0 40 -22v-583q0 -74 -33.5 -103t-75.5 -29q-70 0 -70 30z" />
    <glyph glyph-name="k" unicode="k" horiz-adv-x="452" 
d="M427 12q0 -8 -9 -11t-30 -3h-20q-16 0 -22 2t-12 11l-156 247h-6v-238q0 -22 -37 -22h-11q-38 0 -38 22v710q0 22 38 22h11q37 0 37 -22v-447h5l145 228q8 14 43 14h20q16 0 24.5 -3.5t8.5 -9.5q0 -8 -8 -21l-145 -220l155 -243q7 -11 7 -16z" />
    <glyph glyph-name="l" unicode="l" horiz-adv-x="270" 
d="M108.5 20.5q-32.5 26.5 -32.5 94.5v615q0 22 40 22h4q40 0 40 -22v-607q0 -57 37 -57q12 0 20 2.5t12 2.5q9 0 15 -18.5t6 -28.5q0 -15 -22 -22.5t-46 -7.5q-41 0 -73.5 26.5z" />
    <glyph glyph-name="m" unicode="m" horiz-adv-x="720" 
d="M616 488.5q36 -40.5 36 -121.5v-347q0 -22 -38 -22h-10q-38 0 -38 22v339q0 47 -17 72t-51 25q-31 0 -55.5 -22.5t-34.5 -50.5v-16v-347q0 -22 -37 -22h-11q-38 0 -38 22v339q0 47 -17 72t-52 25q-33 0 -58 -24t-31 -46v-366q0 -22 -38 -22h-11q-37 0 -37 22v353
q0 65 -5 94t-5 32q0 12 21.5 17.5t36.5 5.5q14 0 19.5 -13t8.5 -30t4 -25q20 34 52.5 54.5t70.5 20.5t68.5 -18.5t45.5 -58.5q24 35 58 56t72 21q55 0 91 -40.5z" />
    <glyph glyph-name="n" unicode="n" 
d="M78 20v353q0 65 -5 94t-5 32q0 12 21.5 17.5t36.5 5.5q14 0 19.5 -13t8.5 -30t4 -25q23 35 56 55t70 20q62 0 96 -41.5t34 -114.5v-353q0 -22 -38 -22h-10q-39 0 -39 22v345q0 44 -18 67.5t-53 23.5q-27 0 -52 -19.5t-40 -50.5v-366q0 -22 -38 -22h-11q-37 0 -37 22z" />
    <glyph glyph-name="o" unicode="o" horiz-adv-x="477" 
d="M96.5 62q-49.5 68 -49.5 197q0 130 49.5 200t143.5 70q93 0 141.5 -69.5t48.5 -200.5q0 -130 -48 -197.5t-142 -67.5t-143.5 68zM316.5 113.5q25.5 47.5 25.5 147.5t-25.5 148t-78.5 48t-77.5 -47.5t-24.5 -148.5q0 -100 24.5 -147.5t77.5 -47.5t78.5 47.5z" />
    <glyph glyph-name="p" unicode="p" horiz-adv-x="484" 
d="M78 -186v559q0 65 -5 94.5t-5 32.5q0 12 21 17t37 5q14 0 19.5 -13t8.5 -30.5t4 -24.5q23 37 53.5 56t65.5 19q48 0 84 -34t55 -95.5t19 -140.5q0 -125 -45 -195t-121 -70q-34 0 -58.5 13t-46.5 38v-231q0 -22 -38 -22h-10q-38 0 -38 22zM346 258q0 94 -22.5 146
t-66.5 52q-25 0 -49.5 -18t-43.5 -51v-274q35 -45 85 -45q97 0 97 190z" />
    <glyph glyph-name="q" unicode="q" horiz-adv-x="481" 
d="M318 -186v231q-22 -25 -46.5 -38t-59.5 -13q-75 0 -120 69.5t-45 194.5q0 80 19.5 141.5t55 95.5t82.5 34q35 0 65.5 -19t53.5 -56q2 16 11 59q5 12 31 12h6q33 0 33 -22v-689q0 -22 -38 -22h-11q-37 0 -37 22zM317 113v274q-20 33 -43.5 51t-48.5 18q-44 0 -66.5 -52
t-22.5 -147q0 -189 97 -189q51 0 84 45z" />
    <glyph glyph-name="r" unicode="r" horiz-adv-x="337" 
d="M83 20v353q0 66 -6 94.5t-6 31.5q0 12 19 17.5t35 5.5q14 0 20.5 -15t10 -31.5t4.5 -21.5q48 75 105 75q25 0 38.5 -11t13.5 -28t-6 -35.5t-14 -18.5q-5 0 -18 5.5t-31 5.5q-26 0 -49.5 -21.5t-31.5 -39.5v-366q0 -22 -40 -22h-4q-40 0 -40 22z" />
    <glyph glyph-name="s" unicode="s" horiz-adv-x="353" 
d="M97.5 1.5q-31.5 10.5 -50 25.5t-18.5 26t13 31t21 20q2 0 17.5 -11t35.5 -19.5t45 -8.5q37 0 56.5 18.5t19.5 54.5q0 35 -21.5 59t-66.5 46q-55 25 -81.5 58t-26.5 87q0 63 41.5 102.5t105.5 39.5q41 0 76 -13t35 -30q0 -12 -11.5 -33t-19.5 -21q-2 0 -23.5 12.5
t-51.5 12.5q-29 0 -48.5 -16t-19.5 -45q0 -34 19.5 -56.5t55.5 -40.5q61 -28 90 -64t29 -96q0 -67 -44 -108t-110 -41q-36 0 -67.5 10.5z" />
    <glyph glyph-name="t" unicode="t" horiz-adv-x="298" 
d="M125 20.5q-34 26.5 -34 94.5v336h-33q-10 0 -15 7t-5 23v12q0 16 5 23t15 7h33l12 105q2 22 32 22h10q30 0 30 -22v-105h66q11 0 15.5 -7t4.5 -23v-12q0 -16 -4.5 -23t-15.5 -7h-66v-322q0 -36 10 -49.5t29 -13.5q13 0 22 2.5t12 2.5q9 0 15 -18t6 -30q0 -16 -20.5 -22.5
t-45.5 -6.5q-44 0 -78 26.5z" />
    <glyph glyph-name="u" unicode="u" 
d="M102 31.5q-34 38.5 -34 106.5v364q0 22 38 22h10q38 0 38 -22v-351q0 -41 18 -63t53 -22q28 0 52.5 19t40.5 51v366q0 22 38 22h10q38 0 38 -22v-353q0 -65 5 -94.5t5 -32.5q0 -12 -21 -17t-37 -5q-14 0 -19.5 13t-8.5 30t-4 25q-23 -35 -56 -55t-70 -20q-62 0 -96 38.5z
" />
    <glyph glyph-name="v" unicode="v" horiz-adv-x="412" 
d="M148 14l-123 480q-2 10 -2 14q0 17 39 17h13q32 0 36 -16l69 -292q7 -28 21 -105l4 -24h6l7 45q2 14 6.5 40t8.5 44l70 292q4 16 37 16h12q36 0 36 -17q0 -2 -2 -14l-123 -480q-4 -16 -36 -16h-42q-32 0 -37 16z" />
    <glyph glyph-name="w" unicode="w" horiz-adv-x="616" 
d="M124 14l-106 474q-3 18 -3 20q0 17 41 17q43 0 46 -16l56 -319l5 -24l15 -82h5q3 20 20 107l61 317q4 17 35 17h19q32 0 36 -17l62 -317l6 -29q10 -47 14 -77h5l11 61q6 23 9 44l55 319q3 16 46 16q39 0 39 -17l-2 -17l-107 -477q-3 -16 -36 -16h-34q-33 0 -36 16
l-60 295q-11 58 -15 89h-4q-3 -31 -15 -89l-61 -295q-4 -16 -36 -16h-35q-33 0 -36 16z" />
    <glyph glyph-name="x" unicode="x" horiz-adv-x="404" 
d="M21 3q-5 3 -5 12q0 6 7 18l129 235l-121 222q-6 14 -6 18q0 17 41 17h14q16 0 25 -3t14 -12l69 -143q8 -15 16 -35q8 20 15 35l70 143q4 9 14 12t26 3h12q39 0 39 -17q0 -6 -7 -18l-121 -221l130 -236q6 -14 6 -18q0 -9 -5 -12t-17 -3h-32q-17 0 -26 2t-12 10l-78 160
q-5 11 -10 23t-7 18q-7 -21 -17 -41l-78 -160q-4 -7 -13.5 -9.5t-25.5 -2.5h-29q-12 0 -17 3z" />
    <glyph glyph-name="y" unicode="y" horiz-adv-x="399" 
d="M385 508q0 -5 -4 -18l-196 -677q-7 -21 -40 -21h-21q-32 0 -32 16q0 4 4 17l74 237q-12 2 -16 13l-131 415q-4 12 -4 18q0 17 39 17h14q32 0 36 -16l74 -271q5 -19 19 -80h6l18 80l73 271q4 16 37 16h12q38 0 38 -17z" />
    <glyph glyph-name="z" unicode="z" horiz-adv-x="405" 
d="M41 18q-7 18 -7 33q0 5 2 11l226 389h-194q-19 0 -19 30v12q0 30 19 30h282q6 0 12 -19t6 -33q0 -6 -2 -10l-225 -389h210q19 0 19 -30v-12q0 -30 -19 -30h-297q-6 0 -13 18z" />
    <glyph glyph-name="braceleft" unicode="{" horiz-adv-x="249" 
d="M112 -112q-25 26 -25 90v178q0 51 -9 78t-36 40q-13 6 -19 13.5t-6 20.5v14q0 13 6 20.5t19 13.5q27 13 36 40t9 78v178q0 63 25 89.5t53 26.5h45q11 0 15.5 -6.5t4.5 -22.5v-4q0 -16 -4.5 -22.5t-15.5 -6.5h-17q-20 0 -27 -14.5t-7 -46.5v-187q0 -58 -23.5 -92.5
t-48.5 -51.5q11 -5 28 -21.5t30.5 -47.5t13.5 -73v-186q0 -32 7 -47t27 -15h17q11 0 15.5 -6.5t4.5 -22.5v-4q0 -16 -4.5 -22.5t-15.5 -6.5h-45q-28 0 -53 26z" />
    <glyph glyph-name="bar" unicode="|" horiz-adv-x="200" 
d="M69 -118v866q0 22 27 22h9q27 0 27 -22v-866q0 -22 -27 -22h-9q-27 0 -27 22z" />
    <glyph glyph-name="braceright" unicode="}" horiz-adv-x="249" 
d="M25.5 -131.5q-4.5 6.5 -4.5 22.5v4q0 16 4.5 22.5t15.5 6.5h16q20 0 27 15t7 47v186q0 42 14 73t31 47.5t28 21.5q-25 17 -49 51.5t-24 92.5v187q0 32 -7 46.5t-27 14.5h-16q-11 0 -15.5 6.5t-4.5 22.5v4q0 16 4.5 22.5t15.5 6.5h44q28 0 53 -26.5t25 -89.5v-178
q0 -51 9.5 -78t36.5 -40q13 -6 19 -13.5t6 -20.5v-14q0 -13 -6 -20.5t-19 -13.5q-27 -13 -36.5 -40.5t-9.5 -77.5v-178q0 -64 -25 -90t-53 -26h-44q-11 0 -15.5 6.5z" />
    <glyph glyph-name="asciitilde" unicode="~" horiz-adv-x="437" 
d="M62 231q-11 4 -11 12q0 6 3 13q17 37 40.5 53t57.5 16q17 0 35.5 -5.5t46.5 -15.5q48 -19 68 -19q14 0 24 5.5t21 20.5t23 15q6 0 13 -3l8 -3q7 -2 10.5 -5t3.5 -7q0 -6 -4 -14q-18 -37 -41.5 -52.5t-55.5 -15.5q-19 0 -39 5.5t-48 16.5q-18 7 -36 12.5t-31 5.5t-22.5 -6
t-19.5 -21q-6 -8 -10.5 -11t-10.5 -3q-3 0 -13 2z" />
    <glyph glyph-name="uni00A0" unicode="&#xa0;" horiz-adv-x="137" 
 />
    <glyph glyph-name="exclamdown" unicode="&#xa1;" horiz-adv-x="246" 
d="M79 437v66q0 22 38 22h18q38 0 38 -22v-66q0 -22 -38 -22h-18q-38 0 -38 22zM63 -157q0 18 10 171t19 285q1 11 7.5 16.5t22.5 5.5h9q17 0 23.5 -5.5t6.5 -16.5v-456q0 -22 -38 -22h-23q-37 0 -37 22z" />
    <glyph glyph-name="cent" unicode="&#xa2;" horiz-adv-x="440" 
d="M375.5 76.5q11.5 -19.5 11.5 -31.5q0 -11 -21.5 -23t-52.5 -20t-57 -8h-5v-53q0 -16 -19 -16t-19 16v56q-85 11 -126 75.5t-41 191.5q0 131 43.5 191.5t123.5 71.5v40q0 16 19 16t19 -16v-38h2q46 0 85.5 -14t39.5 -32q0 -12 -11.5 -33t-19.5 -21q-1 0 -11 4
q-42 24 -81 24h-4v-391h7q46 0 83 22q4 2 7.5 4.5t5.5 3.5q10 0 21.5 -19.5zM154.5 133.5q17.5 -46.5 58.5 -60.5v377q-38 -13 -57 -57.5t-19 -126.5q0 -86 17.5 -132.5z" />
    <glyph glyph-name="sterling" unicode="&#xa3;" horiz-adv-x="411" 
d="M21 7q-5 7 -5 23v16q0 12 7 18t25 17q25 13 39.5 29t14.5 49v180h-55q-10 0 -15 7t-5 23v12q0 16 5 23t15 7h55v87q0 208 171 208q39 0 70 -7t31 -25q0 -9 -6 -29t-16 -20q-5 0 -23.5 4.5t-39.5 4.5q-54 0 -78.5 -31.5t-24.5 -99.5v-92h118q11 0 15.5 -7t4.5 -23v-12
q0 -16 -4.5 -23t-15.5 -7h-118v-90q0 -90 -16.5 -126t-40.5 -51h240q11 0 15.5 -7t4.5 -23v-12q0 -16 -4.5 -23t-15.5 -7h-333q-10 0 -15 7z" />
    <glyph glyph-name="currency" unicode="&#xa4;" horiz-adv-x="462" 
d="M70 152l-2 2q-8 8 -8 17q0 11 11 22l30 30q-26 43 -26 99q0 57 26 100l-30 28q-10 10 -10 22q0 9 6 16l4 5q6 8 16 8q11 0 22 -12l25 -25q43 36 95 36t95 -35l25 25q10 10 20 10t19 -9l2 -2q9 -9 9 -17q0 -11 -11 -22l-29 -29q26 -47 26 -99q0 -53 -26 -100l29 -29
q11 -11 11 -21q0 -4 -3 -9.5t-7 -9.5l-1 -1q-9 -9 -18 -9q-11 0 -21 11l-25 25q-42 -34 -95 -34q-52 0 -94 34l-26 -26q-10 -10 -21 -10q-9 0 -18 9zM296.5 237q26.5 31 26.5 85t-26.5 85.5t-67.5 31.5q-40 0 -66.5 -31.5t-26.5 -85.5t26.5 -85t66.5 -31q41 0 67.5 31z" />
    <glyph glyph-name="yen" unicode="&#xa5;" horiz-adv-x="470" 
d="M458 667l-118 -244h64q19 0 19 -30v-8q0 -30 -19 -30h-97l-20 -41v-55h117q19 0 19 -30v-8q0 -30 -19 -30h-117v-171q0 -22 -38 -22h-14q-38 0 -38 22v171h-130q-19 0 -19 30v8q0 30 19 30h130v58l-18 38h-112q-19 0 -19 30v8q0 30 19 30h79l-119 244q-7 12 -7 18
q0 17 42 17h18q17 0 26 -3t13 -12l126 -282l127 283q3 8 13.5 11t26.5 3h14q20 -1 29 -5t9 -12q0 -7 -6 -18z" />
    <glyph glyph-name="brokenbar" unicode="&#xa6;" horiz-adv-x="200" 
d="M69 425v323q0 22 27 22h9q27 0 27 -22v-323q0 -22 -27 -22h-9q-27 0 -27 22zM69 -118v322q0 22 27 22h9q27 0 27 -22v-322q0 -22 -27 -22h-9q-27 0 -27 22z" />
    <glyph glyph-name="section" unicode="&#xa7;" horiz-adv-x="355" 
d="M110 2.5q-29 8.5 -46.5 21t-17.5 23.5q0 12 12.5 32.5t20.5 20.5q2 0 15.5 -9t31.5 -16t40 -7q32 0 50 15.5t18 41.5q0 22 -11.5 37t-26.5 23.5t-61 32.5q-47 23 -74 53t-27 86q0 36 16 65t44 47q-48 41 -48 102q0 64 42 99t102 35q41 0 76 -13t35 -29q0 -12 -11 -33
t-20 -21q-2 0 -23.5 12t-51.5 12t-47.5 -14.5t-17.5 -41.5q0 -22 12.5 -37.5t28 -24t47.5 -23.5q50 -25 79 -58t29 -90q0 -70 -57 -109q48 -43 48 -105q0 -65 -42.5 -100.5t-103.5 -35.5q-32 0 -61 8.5zM229.5 297.5q13.5 16.5 13.5 45.5q0 32 -18.5 49t-58.5 36
q-48 -14 -48 -67q0 -34 19.5 -51.5t57.5 -33.5q21 5 34.5 21.5z" />
    <glyph glyph-name="dieresis" unicode="&#xa8;" horiz-adv-x="256" 
d="M27 629v51q0 22 40 22q38 0 38 -22v-51q0 -22 -40 -22q-38 0 -38 22zM153 629v51q0 22 40 22q38 0 38 -22v-51q0 -22 -40 -22q-38 0 -38 22z" />
    <glyph glyph-name="copyright" unicode="&#xa9;" horiz-adv-x="592" 
d="M150.5 37.5q-65.5 42.5 -103.5 124t-38 192.5t38 191.5t103 122.5t146 42t146 -42t103 -122.5t38 -191.5t-38 -192.5t-103.5 -124t-145.5 -42.5t-145.5 42.5zM416 79.5q54 36.5 85.5 107t31.5 167.5q0 98 -31.5 167.5t-85.5 105t-120 35.5t-120 -35.5t-85.5 -105
t-31.5 -167.5q0 -97 31.5 -167.5t85.5 -107t120 -36.5t120 36.5zM194 189q-37 52 -37 160q0 213 153 213q33 0 62.5 -12.5t29.5 -24.5q0 -8 -7.5 -21.5t-13.5 -13.5q-1 0 -19 13.5t-52 13.5q-51 0 -75.5 -40.5t-24.5 -127.5q0 -86 24 -126.5t74 -40.5q23 0 39.5 7t27 15
t12.5 8q7 0 14 -12.5t7 -19.5q0 -8 -15 -18.5t-38.5 -17.5t-46.5 -7q-77 0 -114 52z" />
    <glyph glyph-name="ordfeminine" unicode="&#xaa;" horiz-adv-x="281" 
d="M50 461q-21 21 -21 57q0 53 41 71.5t105 19.5v4q0 41 -46 41q-25 0 -48 -8t-27 -9q-5 0 -11 16.5t-6 23.5q0 11 30.5 21t64.5 10q52 0 78.5 -25t26.5 -71v-95q0 -32 3 -46.5t3 -16.5q0 -6 -17 -8.5t-28 -2.5q-9 0 -13 6t-6 21q-32 -30 -72 -30q-36 0 -57 21zM175 517v46
q-39 -1 -60.5 -8.5t-21.5 -34.5q0 -29 30 -29q32 0 52 26z" />
    <glyph glyph-name="guillemotleft" unicode="&#xab;" horiz-adv-x="405" 
d="M145 74l-103 156q-11 17 -11 28t11 28l103 156q8 12 20 12q11 0 25 -9t14 -21q0 -8 -7 -20l-92 -146l92 -147q7 -10 7 -19q0 -10 -14 -20t-25 -10q-12 0 -20 12zM303 74l-103 156q-11 17 -11 28t11 28l103 156q8 12 20 12q11 0 25 -9t14 -21q0 -8 -7 -20l-92 -146
l92 -147q7 -10 7 -19q0 -10 -14 -20t-25 -10q-12 0 -20 12z" />
    <glyph glyph-name="logicalnot" unicode="&#xac;" horiz-adv-x="449" 
d="M344 99v166h-297q-19 0 -19 30v13q0 30 19 30h346q14 0 20.5 -7t6.5 -23v-209q0 -22 -27 -22h-23q-26 0 -26 22z" />
    <glyph glyph-name="uni00AD" unicode="&#xad;" horiz-adv-x="256" 
d="M30 260v10q0 30 19 30h156q19 0 19 -30v-10q0 -30 -19 -30h-156q-19 0 -19 30z" />
    <glyph glyph-name="registered" unicode="&#xae;" horiz-adv-x="592" 
d="M150.5 37.5q-65.5 42.5 -103.5 124t-38 192.5t38 191.5t103 122.5t146 42t146 -42t103 -122.5t38 -191.5t-38 -192.5t-103.5 -124t-145.5 -42.5t-145.5 42.5zM416 79.5q54 36.5 85.5 107t31.5 167.5q0 98 -31.5 167.5t-85.5 105t-120 35.5t-120 -35.5t-85.5 -105
t-31.5 -167.5q0 -97 31.5 -167.5t85.5 -107t120 -36.5t120 36.5zM197 158v383q0 18 16 18h82q57 0 85 -24.5t28 -79.5q0 -37 -14.5 -62t-39.5 -38v-2q12 -6 21 -24t19 -50l36 -116q2 -4 2 -9q0 -9 -22 -9h-10q-8 0 -14 2.5t-7 6.5l-35 116q-10 34 -23 46t-39 12h-33v-170
q0 -13 -22 -13h-8q-22 0 -22 13zM303 373q21 0 36 21.5t15 50.5q0 35 -14.5 52t-39.5 17h-52v-141h55z" />
    <glyph glyph-name="macron" unicode="&#xaf;" horiz-adv-x="255" 
d="M8 642v10q0 30 19 30h199q10 0 14.5 -7t4.5 -23v-10q0 -16 -4.5 -23t-14.5 -7h-199q-19 0 -19 30z" />
    <glyph glyph-name="degree" unicode="&#xb0;" horiz-adv-x="276" 
d="M60.5 477q-29.5 36 -29.5 96q0 61 29.5 97t76.5 36t76.5 -36t29.5 -97q0 -60 -29.5 -96t-76.5 -36t-76.5 36zM178.5 509q15.5 23 15.5 64t-15.5 64.5t-42.5 23.5t-42.5 -23.5t-15.5 -64.5t15.5 -64t42.5 -23t42.5 23z" />
    <glyph glyph-name="plusminus" unicode="&#xb1;" horiz-adv-x="449" 
d="M190 159v168h-130q-24 0 -24 30v7q0 30 24 30h130v169q0 30 30 30h7q30 0 30 -30v-169h130q24 0 24 -30v-7q0 -30 -24 -30h-130v-168q0 -30 -30 -30h-7q-30 0 -30 30zM31 30v13q0 30 24 30h337q25 0 25 -30v-13q0 -30 -25 -30h-337q-24 0 -24 30z" />
    <glyph glyph-name="uni00B2" unicode="&#xb2;" horiz-adv-x="280" 
d="M29 306q-3 8 -3 17q0 8 2 10l135 193q21 30 28 45.5t7 32.5q0 28 -17.5 43.5t-47.5 15.5q-22 0 -37 -6.5t-26.5 -15t-14.5 -8.5q-4 0 -11.5 11t-7.5 18q0 16 33.5 29.5t65.5 13.5q50 0 81 -26.5t31 -70.5q0 -31 -14.5 -58.5t-65.5 -94.5l-78 -116h149q11 0 11 -17v-7
q0 -17 -11 -17h-201q-5 0 -8 8z" />
    <glyph glyph-name="uni00B3" unicode="&#xb3;" horiz-adv-x="280" 
d="M57.5 303.5q-31.5 10.5 -31.5 22.5q0 8 7.5 18.5t12.5 10.5q3 0 25 -10.5t51 -10.5q32 0 56 19t24 63q0 41 -21.5 58t-61.5 17h-23q-12 0 -12 18v6q0 17 12 17h21q37 0 55 24.5t18 51.5q0 22 -14.5 39t-50.5 17q-29 0 -47.5 -9.5t-20.5 -9.5q-5 0 -12 12t-7 18
q0 13 30 22t59 9q52 0 82 -26t30 -73q0 -59 -60 -84v-2q29 -8 51.5 -36t22.5 -73q0 -57 -35 -88t-89 -31q-40 0 -71.5 10.5z" />
    <glyph glyph-name="acute" unicode="&#xb4;" horiz-adv-x="256" 
d="M53 595q0 7 12.5 34t36.5 77q12 26 56 26q22 0 32 -3t10 -10q0 -6 -9 -19l-27 -39l-42 -58q-12 -18 -48 -18q-21 0 -21 10z" />
    <glyph glyph-name="uni00B5" unicode="&#xb5;" horiz-adv-x="453" 
d="M399.5 53.5q4.5 -28.5 4.5 -31.5q0 -12 -21 -17.5t-39 -5.5q-12 0 -17.5 14.5t-8 31.5t-3.5 24q-23 -35 -55.5 -55t-68.5 -20q-21 0 -39 9v-189q0 -22 -37 -22h-11q-38 0 -38 22v689q0 22 38 22h11q37 0 37 -22v-339q0 -46 18 -71.5t52 -25.5q25 0 48 18.5t39 51.5v366
q0 22 38 22h10q38 0 38 -22v-355q0 -66 4.5 -94.5z" />
    <glyph glyph-name="paragraph" unicode="&#xb6;" horiz-adv-x="466" 
d="M208 -151v375q-50 7 -90.5 40.5t-64.5 85.5t-24 112q0 64 27.5 119t74.5 87t102 32h207q11 0 15.5 -5.5t4.5 -18.5v-14q0 -13 -4.5 -18.5t-15.5 -5.5h-30v-789q0 -22 -24 -22h-14q-24 0 -24 22v789h-78v-789q0 -22 -24 -22h-14q-24 0 -24 22z" />
    <glyph glyph-name="periodcentered" unicode="&#xb7;" horiz-adv-x="214" 
d="M78 323q-14 14 -14 37q0 24 14 38t35 14q22 0 36 -14t14 -38q0 -23 -14 -37t-36 -14q-21 0 -35 14z" />
    <glyph glyph-name="cedilla" unicode="&#xb8;" horiz-adv-x="256" 
d="M197.5 -74.5q23.5 -14.5 23.5 -52.5q0 -83 -96 -83q-32 0 -63 12t-31 31q0 9 6 17.5t13 8.5t23 -7q26 -13 46 -13q14 0 25 7.5t11 21.5q0 15 -8.5 22t-24.5 12q-11 4 -16.5 8t-5.5 11t5 24t18 55h41l-17 -60q27 0 50.5 -14.5z" />
    <glyph glyph-name="uni00B9" unicode="&#xb9;" horiz-adv-x="280" 
d="M126 300.5q-6 3.5 -6 10.5v338l-64 -14q-6 0 -9 9.5t-3 20.5q0 8 9 11l101 26q6 0 11 -3.5t5 -8.5v-379q0 -14 -21 -14h-8q-9 0 -15 3.5z" />
    <glyph glyph-name="ordmasculine" unicode="&#xba;" horiz-adv-x="292" 
d="M62.5 474.5q-29.5 34.5 -29.5 98.5q0 65 29.5 100t84.5 35t84 -35t29 -100q0 -64 -29 -98.5t-84 -34.5t-84.5 34.5zM183 515q12 19 12 59q0 39 -12 58.5t-37 19.5t-36.5 -19t-11.5 -59t11.5 -59t36.5 -19t37 19z" />
    <glyph glyph-name="guillemotright" unicode="&#xbb;" horiz-adv-x="405" 
d="M50.5 71.5q-14.5 9.5 -14.5 20.5q0 9 7 19l93 147l-93 146q-7 12 -7 20q0 12 14.5 21t25.5 9t19 -12l103 -156q11 -17 11 -28t-11 -28l-103 -156q-8 -12 -19 -12t-25.5 9.5zM207.5 71.5q-14.5 9.5 -14.5 20.5q0 9 7 19l93 147l-93 146q-7 12 -7 20q0 12 14.5 21t25.5 9
t19 -12l103 -156q11 -17 11 -28t-11 -28l-103 -156q-8 -12 -19 -12t-25.5 9.5z" />
    <glyph glyph-name="onequarter" unicode="&#xbc;" horiz-adv-x="586" 
d="M98 5q0 2 4 10l312 671q7 17 27 17h12q13 0 13 -7q0 -3 -1 -5.5t-2 -4.5l-312 -671q-8 -17 -28 -17h-12q-13 0 -13 7zM126 300.5q-6 3.5 -6 10.5v338l-64 -14q-6 0 -9 9.5t-3 20.5q0 8 9 11l101 26q6 0 11 -3.5t5 -8.5v-379q0 -14 -21 -14h-8q-9 0 -15 3.5zM448 11v85
h-143q-5 0 -9.5 10t-4.5 19l1 6l155 266q2 4 8 6t12 2h11q18 0 18 -13v-255h32q11 0 11 -17v-7q0 -17 -11 -17h-32v-85q0 -13 -18 -13h-13q-17 0 -17 13zM448 137v116q0 40 5 70l-3 1l-107 -187h105z" />
    <glyph glyph-name="onehalf" unicode="&#xbd;" horiz-adv-x="641" 
d="M98 5q0 2 4 10l312 671q7 17 27 17h12q13 0 13 -7q0 -3 -1 -5.5t-2 -4.5l-312 -671q-8 -17 -28 -17h-12q-13 0 -13 7zM126 300.5q-6 3.5 -6 10.5v338l-64 -14q-6 0 -9 9.5t-3 20.5q0 8 9 11l101 26q6 0 11 -3.5t5 -8.5v-379q0 -14 -21 -14h-8q-9 0 -15 3.5zM377 8
q-3 8 -3 17q0 8 2 10l135 193q21 30 28 45.5t7 32.5q0 28 -17.5 43.5t-47.5 15.5q-22 0 -37 -6.5t-26.5 -15t-14.5 -8.5q-4 0 -11.5 11t-7.5 18q0 16 33.5 29.5t65.5 13.5q50 0 81 -26.5t31 -70.5q0 -31 -14.5 -58.5t-65.5 -94.5l-78 -116h149q11 0 11 -17v-7q0 -17 -11 -17
h-201q-5 0 -8 8z" />
    <glyph glyph-name="threequarters" unicode="&#xbe;" horiz-adv-x="627" 
d="M57.5 303.5q-31.5 10.5 -31.5 22.5q0 8 7.5 18.5t12.5 10.5q3 0 25 -10.5t51 -10.5q32 0 56 19t24 63q0 41 -21.5 58t-61.5 17h-23q-12 0 -12 18v6q0 17 12 17h21q37 0 55 24.5t18 51.5q0 22 -14.5 39t-50.5 17q-29 0 -47.5 -9.5t-20.5 -9.5q-5 0 -12 12t-7 18
q0 13 30 22t59 9q52 0 82 -26t30 -73q0 -59 -60 -84v-2q29 -8 51.5 -36t22.5 -73q0 -57 -35 -88t-89 -31q-40 0 -71.5 10.5zM142 5q0 2 4 10l311 671q8 17 28 17h12q13 0 13 -7q0 -2 -4 -10l-312 -671q-7 -17 -27 -17h-12q-13 0 -13 7zM490 11v85h-143q-5 0 -9.5 10t-4.5 19
l1 6l155 266q2 4 8 6t12 2h11q18 0 18 -13v-255h32q11 0 11 -17v-7q0 -17 -11 -17h-32v-85q0 -13 -18 -13h-13q-17 0 -17 13zM490 137v116q0 40 5 70l-3 1l-107 -187h105z" />
    <glyph glyph-name="questiondown" unicode="&#xbf;" horiz-adv-x="391" 
d="M287 503v-66q0 -22 -40 -22h-17q-40 0 -40 22v66q0 22 40 22h17q40 0 40 -22zM274 298q0 -34 -21.5 -77t-60.5 -87q-43 -48 -62.5 -78.5t-19.5 -66.5q0 -48 27.5 -73t80.5 -25q43 0 90 26q3 1 10 4.5t11 3.5q7 0 19.5 -20t12.5 -31q0 -24 -49 -40.5t-103 -16.5
q-58 0 -102.5 21.5t-68 59t-23.5 83.5q0 33 13 63.5t31 54t51 61.5q42 48 61.5 77.5t24.5 63.5q2 10 9 15t24 5h15q30 0 30 -23z" />
    <glyph glyph-name="Agrave" unicode="&#xc0;" horiz-adv-x="505" 
d="M230 780q-56 75 -67.5 91.5t-11.5 24.5q0 7 10 10t32 3q43 0 57 -26l20 -42q13 -29 20.5 -46t7.5 -23q0 -5 -4.5 -7.5t-16.5 -2.5q-35 0 -47 18zM13 15q0 3 2 13l181 655q6 19 40 19h32q36 0 40 -19l181 -655q3 -7 3 -13q0 -8 -9.5 -12.5t-27.5 -4.5h-17q-32 0 -36 16
l-43 164h-215l-42 -164q-4 -16 -36 -16h-16q-37 0 -37 17zM337 254l-71 274q-3 13 -11 61h-5q-2 -7 -4 -23l-8 -38l-71 -274h170z" />
    <glyph glyph-name="Aacute" unicode="&#xc1;" horiz-adv-x="505" 
d="M225 772q0 7 12.5 34t36.5 77q12 26 56 26q22 0 32 -3t10 -10q0 -6 -9 -19l-27 -39l-42 -58q-12 -18 -48 -18q-21 0 -21 10zM13 15q0 3 2 13l181 655q6 19 40 19h32q36 0 40 -19l181 -655q3 -7 3 -13q0 -8 -9.5 -12.5t-27.5 -4.5h-17q-32 0 -36 16l-43 164h-215l-42 -164
q-4 -16 -36 -16h-16q-37 0 -37 17zM337 254l-71 274q-3 13 -11 61h-5q-2 -7 -4 -23l-8 -38l-71 -274h170z" />
    <glyph glyph-name="Acircumflex" unicode="&#xc2;" horiz-adv-x="505" 
d="M149 757q-5 4 -5 9t7 19l52 88q14 22 42 22h15q27 0 41 -22l54 -88q6 -12 6 -17q0 -7 -5 -11t-14 -4h-20q-16 0 -25 14l-45 73l-44 -73q-11 -14 -26 -14h-19q-9 0 -14 4zM13 15q0 3 2 13l181 655q6 19 40 19h32q36 0 40 -19l181 -655q3 -7 3 -13q0 -8 -9.5 -12.5
t-27.5 -4.5h-17q-32 0 -36 16l-43 164h-215l-42 -164q-4 -16 -36 -16h-16q-37 0 -37 17zM337 254l-71 274q-3 13 -11 61h-5q-2 -7 -4 -23l-8 -38l-71 -274h170z" />
    <glyph glyph-name="Atilde" unicode="&#xc3;" horiz-adv-x="505" 
d="M116 773q-10 4 -10 12q0 6 3 13q15 37 34.5 53t48.5 16q15 0 29.5 -5t39.5 -16q40 -19 58 -19q11 0 19.5 5.5t18.5 20.5q8 15 19 15q5 0 11 -3l7 -3q7 -3 9.5 -5.5t2.5 -6.5q0 -6 -4 -14q-15 -37 -34.5 -52.5t-47.5 -15.5q-16 0 -33 5.5t-40 16.5q-15 7 -30.5 12.5
t-26.5 5.5q-10 0 -18 -6t-18 -21q-8 -14 -17 -14q-3 0 -11 2zM13 15q0 3 2 13l181 655q6 19 40 19h32q36 0 40 -19l181 -655q3 -7 3 -13q0 -8 -9.5 -12.5t-27.5 -4.5h-17q-32 0 -36 16l-43 164h-215l-42 -164q-4 -16 -36 -16h-16q-37 0 -37 17zM337 254l-71 274
q-3 13 -11 61h-5q-2 -7 -4 -23l-8 -38l-71 -274h170z" />
    <glyph glyph-name="Adieresis" unicode="&#xc4;" horiz-adv-x="505" 
d="M152 806v51q0 22 40 22q38 0 38 -22v-51q0 -22 -40 -22q-38 0 -38 22zM278 806v51q0 22 40 22q38 0 38 -22v-51q0 -22 -40 -22q-38 0 -38 22zM13 15q0 3 2 13l181 655q6 19 40 19h32q36 0 40 -19l181 -655q3 -7 3 -13q0 -8 -9.5 -12.5t-27.5 -4.5h-17q-32 0 -36 16
l-43 164h-215l-42 -164q-4 -16 -36 -16h-16q-37 0 -37 17zM337 254l-71 274q-3 13 -11 61h-5q-2 -7 -4 -23l-8 -38l-71 -274h170z" />
    <glyph glyph-name="Aring" unicode="&#xc5;" horiz-adv-x="505" 
d="M191 764q-23 23 -23 61t23 61.5t60 23.5q38 0 61 -23.5t23 -61.5t-23 -61t-61 -23q-37 0 -60 23zM285.5 789q12.5 13 12.5 36t-12.5 36.5t-34.5 13.5t-34 -13t-13 -37q1 -24 13 -36.5t34 -12.5t34.5 13zM13 15q0 3 2 13l181 655q6 19 40 19h32q36 0 40 -19l181 -655
q3 -7 3 -13q0 -8 -9.5 -12.5t-27.5 -4.5h-17q-32 0 -36 16l-43 164h-215l-42 -164q-4 -16 -36 -16h-16q-37 0 -37 17zM337 254l-71 274q-3 13 -11 61h-5q-2 -7 -4 -23l-8 -38l-71 -274h170z" />
    <glyph glyph-name="AE" unicode="&#xc6;" horiz-adv-x="746" 
d="M1 15q0 8 4 16l256 642q6 14 14 20.5t21 6.5h362q19 0 19 -30v-16q0 -30 -19 -30h-276l35 -228h218q19 0 19 -30v-16q0 -30 -19 -30h-206l38 -244h192q19 0 19 -30v-16q0 -30 -19 -30h-243q-25 0 -29 29l-22 149h-216l-63 -164q-6 -16 -33 -16h-14q-38 0 -38 17zM352 253
l-41 273l-2 58h-2l-19 -58l-107 -273h171z" />
    <glyph glyph-name="Ccedilla" unicode="&#xc7;" horiz-adv-x="459" 
d="M412 99q13 0 20.5 -17.5t7.5 -33.5q0 -10 -5 -18t-19 -15q-15 -8 -39.5 -14t-52.5 -7l-15 -54q27 0 50.5 -14.5t23.5 -52.5q0 -83 -96 -83q-32 0 -63 12t-31 31q0 9 6 17.5t13 8.5t23 -7q26 -13 46 -13q14 0 25 7.5t11 21.5q0 15 -8.5 22t-24.5 12q-11 4 -16.5 8t-5.5 11
t4.5 23t16.5 51q-119 8 -176.5 94.5t-57.5 260.5q0 181 64.5 268.5t196.5 87.5q28 0 55 -5t46 -14q10 -4 13.5 -10t3.5 -17q0 -17 -8 -39t-23 -14q-42 21 -87 21q-86 0 -127 -67t-41 -210t40.5 -211t126.5 -68q52 0 94 25q6 2 9 2z" />
    <glyph glyph-name="Egrave" unicode="&#xc8;" horiz-adv-x="457" 
d="M222 780q-56 75 -67.5 91.5t-11.5 24.5q0 7 10 10t32 3q43 0 57 -26l20 -42q13 -29 20.5 -46t7.5 -23q0 -5 -4.5 -7.5t-16.5 -2.5q-35 0 -47 18zM84.5 7q-6.5 7 -6.5 23v640q0 16 6.5 23t20.5 7h288q19 0 19 -30v-16q0 -30 -19 -30h-225v-228h202q19 0 19 -30v-16
q0 -30 -19 -30h-202v-244h225q10 0 14.5 -7t4.5 -23v-16q0 -16 -4.5 -23t-14.5 -7h-288q-14 0 -20.5 7z" />
    <glyph glyph-name="Eacute" unicode="&#xc9;" horiz-adv-x="457" 
d="M84.5 7q-6.5 7 -6.5 23v640q0 16 6.5 23t20.5 7h288q19 0 19 -30v-16q0 -30 -19 -30h-225v-228h202q19 0 19 -30v-16q0 -30 -19 -30h-202v-244h225q10 0 14.5 -7t4.5 -23v-16q0 -16 -4.5 -23t-14.5 -7h-288q-14 0 -20.5 7zM217 772q0 7 12.5 34t36.5 77q12 26 56 26
q22 0 32 -3t10 -10q0 -6 -9 -19l-27 -39l-42 -58q-12 -18 -48 -18q-21 0 -21 10z" />
    <glyph glyph-name="Ecircumflex" unicode="&#xca;" horiz-adv-x="457" 
d="M141 757q-5 4 -5 9t7 19l52 88q14 22 42 22h15q27 0 41 -22l54 -88q6 -12 6 -17q0 -7 -5 -11t-14 -4h-20q-16 0 -25 14l-45 73l-44 -73q-11 -14 -26 -14h-19q-9 0 -14 4zM84.5 7q-6.5 7 -6.5 23v640q0 16 6.5 23t20.5 7h288q19 0 19 -30v-16q0 -30 -19 -30h-225v-228h202
q19 0 19 -30v-16q0 -30 -19 -30h-202v-244h225q10 0 14.5 -7t4.5 -23v-16q0 -16 -4.5 -23t-14.5 -7h-288q-14 0 -20.5 7z" />
    <glyph glyph-name="Edieresis" unicode="&#xcb;" horiz-adv-x="457" 
d="M144 806v51q0 22 40 22q38 0 38 -22v-51q0 -22 -40 -22q-38 0 -38 22zM270 806v51q0 22 40 22q38 0 38 -22v-51q0 -22 -40 -22q-38 0 -38 22zM84.5 7q-6.5 7 -6.5 23v640q0 16 6.5 23t20.5 7h288q19 0 19 -30v-16q0 -30 -19 -30h-225v-228h202q19 0 19 -30v-16
q0 -30 -19 -30h-202v-244h225q10 0 14.5 -7t4.5 -23v-16q0 -16 -4.5 -23t-14.5 -7h-288q-14 0 -20.5 7z" />
    <glyph glyph-name="Igrave" unicode="&#xcc;" horiz-adv-x="262" 
d="M108 780q-56 75 -67.5 91.5t-11.5 24.5q0 7 10 10t32 3q43 0 57 -26l20 -42q13 -29 20.5 -46t7.5 -23q0 -5 -4.5 -7.5t-16.5 -2.5q-35 0 -47 18zM86 20v660q0 22 38 22h15q37 0 37 -22v-660q0 -22 -37 -22h-15q-38 0 -38 22z" />
    <glyph glyph-name="Iacute" unicode="&#xcd;" horiz-adv-x="262" 
d="M86 20v660q0 22 38 22h15q37 0 37 -22v-660q0 -22 -37 -22h-15q-38 0 -38 22zM103 772q0 7 12.5 34t36.5 77q12 26 56 26q22 0 32 -3t10 -10q0 -6 -9 -19l-27 -39l-42 -58q-12 -18 -48 -18q-21 0 -21 10z" />
    <glyph glyph-name="Icircumflex" unicode="&#xce;" horiz-adv-x="262" 
d="M27 757q-5 4 -5 9t7 19l52 88q14 22 42 22h15q27 0 41 -22l54 -88q6 -12 6 -17q0 -7 -5 -11t-14 -4h-20q-16 0 -25 14l-45 73l-44 -73q-11 -14 -26 -14h-19q-9 0 -14 4zM86 20v660q0 22 38 22h15q37 0 37 -22v-660q0 -22 -37 -22h-15q-38 0 -38 22z" />
    <glyph glyph-name="Idieresis" unicode="&#xcf;" horiz-adv-x="262" 
d="M30 806v51q0 22 40 22q38 0 38 -22v-51q0 -22 -40 -22q-38 0 -38 22zM156 806v51q0 22 40 22q38 0 38 -22v-51q0 -22 -40 -22q-38 0 -38 22zM86 20v660q0 22 38 22h15q37 0 37 -22v-660q0 -22 -37 -22h-15q-38 0 -38 22z" />
    <glyph glyph-name="Eth" unicode="&#xd0;" horiz-adv-x="577" 
d="M524 350q0 -350 -251 -350h-168q-14 0 -20.5 7t-6.5 23v290h-49q-19 0 -19 30v16q0 30 19 30h49v274q0 16 6.5 23t20.5 7h168q251 0 251 -350zM389 141.5q43 65.5 43 208.5q0 142 -43 208t-118 66h-102v-228h71q19 0 19 -30v-16q0 -30 -19 -30h-71v-244h102
q75 0 118 65.5z" />
    <glyph glyph-name="Ntilde" unicode="&#xd1;" horiz-adv-x="590" 
d="M158 773q-10 4 -10 12q0 6 3 13q15 37 34.5 53t48.5 16q15 0 29.5 -5t39.5 -16q40 -19 58 -19q11 0 19.5 5.5t18.5 20.5q8 15 19 15q5 0 11 -3l7 -3q7 -3 9.5 -5.5t2.5 -6.5q0 -6 -4 -14q-15 -37 -34.5 -52.5t-47.5 -15.5q-16 0 -33 5.5t-40 16.5q-15 7 -30.5 12.5
t-26.5 5.5q-10 0 -18 -6t-18 -21q-8 -14 -17 -14q-3 0 -11 2zM73 20v660q0 22 38 22h24q15 0 24 -4.5t15 -15.5l232 -447q14 -26 26 -63l5 2q-8 35 -8 66v440q0 22 38 22h12q38 0 38 -22v-660q0 -22 -38 -22h-21q-28 0 -36 15l-238 462q-14 26 -26 63l-5 -2q8 -35 8 -66
v-450q0 -22 -38 -22h-12q-38 0 -38 22z" />
    <glyph glyph-name="Ograve" unicode="&#xd2;" horiz-adv-x="599" 
d="M277 780q-56 75 -67.5 91.5t-11.5 24.5q0 7 10 10t32 3q43 0 57 -26l20 -42q13 -29 20.5 -46t7.5 -23q0 -5 -4.5 -7.5t-16.5 -2.5q-35 0 -47 18zM113 83q-64 89 -64 269q0 354 250 354q251 0 251 -354q0 -180 -64 -269t-187 -89q-122 0 -186 89zM458 352q0 278 -158 278
q-79 0 -118.5 -67.5t-39.5 -210.5q0 -282 158 -282t158 282z" />
    <glyph glyph-name="Oacute" unicode="&#xd3;" horiz-adv-x="599" 
d="M272 772q0 7 12.5 34t36.5 77q12 26 56 26q22 0 32 -3t10 -10q0 -6 -9 -19l-27 -39l-42 -58q-12 -18 -48 -18q-21 0 -21 10zM113 83q-64 89 -64 269q0 354 250 354q251 0 251 -354q0 -180 -64 -269t-187 -89q-122 0 -186 89zM458 352q0 278 -158 278q-79 0 -118.5 -67.5
t-39.5 -210.5q0 -282 158 -282t158 282z" />
    <glyph glyph-name="Ocircumflex" unicode="&#xd4;" horiz-adv-x="599" 
d="M196 757q-5 4 -5 9t7 19l52 88q14 22 42 22h15q27 0 41 -22l54 -88q6 -12 6 -17q0 -7 -5 -11t-14 -4h-20q-16 0 -25 14l-45 73l-44 -73q-11 -14 -26 -14h-19q-9 0 -14 4zM113 83q-64 89 -64 269q0 354 250 354q251 0 251 -354q0 -180 -64 -269t-187 -89q-122 0 -186 89z
M458 352q0 278 -158 278q-79 0 -118.5 -67.5t-39.5 -210.5q0 -282 158 -282t158 282z" />
    <glyph glyph-name="Otilde" unicode="&#xd5;" horiz-adv-x="599" 
d="M163 773q-10 4 -10 12q0 6 3 13q15 37 34.5 53t48.5 16q15 0 29.5 -5t39.5 -16q40 -19 58 -19q11 0 19.5 5.5t18.5 20.5q8 15 19 15q5 0 11 -3l7 -3q7 -3 9.5 -5.5t2.5 -6.5q0 -6 -4 -14q-15 -37 -34.5 -52.5t-47.5 -15.5q-16 0 -33 5.5t-40 16.5q-15 7 -30.5 12.5
t-26.5 5.5q-10 0 -18 -6t-18 -21q-8 -14 -17 -14q-3 0 -11 2zM113 83q-64 89 -64 269q0 354 250 354q251 0 251 -354q0 -180 -64 -269t-187 -89q-122 0 -186 89zM458 352q0 278 -158 278q-79 0 -118.5 -67.5t-39.5 -210.5q0 -282 158 -282t158 282z" />
    <glyph glyph-name="Odieresis" unicode="&#xd6;" horiz-adv-x="599" 
d="M199 806v51q0 22 40 22q38 0 38 -22v-51q0 -22 -40 -22q-38 0 -38 22zM325 806v51q0 22 40 22q38 0 38 -22v-51q0 -22 -40 -22q-38 0 -38 22zM113 83q-64 89 -64 269q0 354 250 354q251 0 251 -354q0 -180 -64 -269t-187 -89q-122 0 -186 89zM458 352q0 278 -158 278
q-79 0 -118.5 -67.5t-39.5 -210.5q0 -282 158 -282t158 282z" />
    <glyph glyph-name="multiply" unicode="&#xd7;" horiz-adv-x="448" 
d="M397 56q10 -11 10 -19q0 -5 -9 -13l-17 -15q-10 -8 -17 -8t-13 7l-129 173l-130 -173q-6 -7 -12 -7q-7 0 -17 8l-18 15q-8 8 -8 14q0 5 9 18l130 171l-130 171q-9 13 -9 18q0 6 8 14l18 15q10 8 17 8q6 0 12 -7l130 -173l129 173q6 7 13 7t17 -8l17 -15q9 -6 9 -13
q0 -6 -10 -19l-129 -171z" />
    <glyph glyph-name="Oslash" unicode="&#xd8;" horiz-adv-x="599" 
d="M550 352q0 -180 -64 -269t-187 -89q-102 0 -163 61l-37 -61q-7 -12 -15 -12q-7 0 -15 6t-8 13q0 8 5 14l44 72q-61 90 -61 265q0 354 250 354q98 0 159 -55l33 54q6 11 15 11q8 0 15.5 -5.5t7.5 -13.5q0 -5 -4 -12l-40 -65q65 -88 65 -268zM165 176l245 398
q-38 56 -110 56q-79 0 -118.5 -67.5t-39.5 -210.5q0 -109 23 -176zM458 352q0 113 -26 182l-247 -400q40 -64 115 -64q158 0 158 282z" />
    <glyph glyph-name="Ugrave" unicode="&#xd9;" horiz-adv-x="583" 
d="M269 780q-56 75 -67.5 91.5t-11.5 24.5q0 7 10 10t32 3q43 0 57 -26l20 -42q13 -29 20.5 -46t7.5 -23q0 -5 -4.5 -7.5t-16.5 -2.5q-35 0 -47 18zM126.5 47q-58.5 53 -58.5 148v485q0 22 38 22h14q38 0 38 -22v-488q0 -54 37.5 -88t96.5 -34q58 0 95.5 34.5t37.5 87.5v488
q0 22 38 22h14q38 0 38 -22v-485q0 -95 -58 -148t-165 -53t-165.5 53z" />
    <glyph glyph-name="Uacute" unicode="&#xda;" horiz-adv-x="583" 
d="M264 772q0 7 12.5 34t36.5 77q12 26 56 26q22 0 32 -3t10 -10q0 -6 -9 -19l-27 -39l-42 -58q-12 -18 -48 -18q-21 0 -21 10zM126.5 47q-58.5 53 -58.5 148v485q0 22 38 22h14q38 0 38 -22v-488q0 -54 37.5 -88t96.5 -34q58 0 95.5 34.5t37.5 87.5v488q0 22 38 22h14
q38 0 38 -22v-485q0 -95 -58 -148t-165 -53t-165.5 53z" />
    <glyph glyph-name="Ucircumflex" unicode="&#xdb;" horiz-adv-x="583" 
d="M188 757q-5 4 -5 9t7 19l52 88q14 22 42 22h15q27 0 41 -22l54 -88q6 -12 6 -17q0 -7 -5 -11t-14 -4h-20q-16 0 -25 14l-45 73l-44 -73q-11 -14 -26 -14h-19q-9 0 -14 4zM126.5 47q-58.5 53 -58.5 148v485q0 22 38 22h14q38 0 38 -22v-488q0 -54 37.5 -88t96.5 -34
q58 0 95.5 34.5t37.5 87.5v488q0 22 38 22h14q38 0 38 -22v-485q0 -95 -58 -148t-165 -53t-165.5 53z" />
    <glyph glyph-name="Udieresis" unicode="&#xdc;" horiz-adv-x="583" 
d="M191 806v51q0 22 40 22q38 0 38 -22v-51q0 -22 -40 -22q-38 0 -38 22zM317 806v51q0 22 40 22q38 0 38 -22v-51q0 -22 -40 -22q-38 0 -38 22zM126.5 47q-58.5 53 -58.5 148v485q0 22 38 22h14q38 0 38 -22v-488q0 -54 37.5 -88t96.5 -34q58 0 95.5 34.5t37.5 87.5v488
q0 22 38 22h14q38 0 38 -22v-485q0 -95 -58 -148t-165 -53t-165.5 53z" />
    <glyph glyph-name="Yacute" unicode="&#xdd;" horiz-adv-x="484" 
d="M197 20v297l-170 350q-7 12 -7 18q0 17 42 17h18q17 0 26 -3t13 -12l126 -282l127 283q3 8 13.5 11t26.5 3h14q20 -1 29 -5t9 -12q0 -7 -6 -18l-171 -353v-294q0 -22 -38 -22h-14q-38 0 -38 22zM214 772q0 7 12.5 34t36.5 77q12 26 56 26q22 0 32 -3t10 -10q0 -6 -9 -19
l-27 -39l-42 -58q-12 -18 -48 -18q-21 0 -21 10z" />
    <glyph glyph-name="Thorn" unicode="&#xde;" 
d="M73 20v660q0 22 38 22h14q38 0 38 -22v-101h102q71 0 126.5 -42t55.5 -154q0 -83 -31.5 -129t-71 -61.5t-71.5 -15.5h-110v-157q0 -22 -38 -22h-14q-38 0 -38 22zM268 253q32 0 59 29t27 101q0 67 -27.5 93.5t-66.5 26.5h-97v-250h105z" />
    <glyph glyph-name="germandbls" unicode="&#xdf;" horiz-adv-x="480" 
d="M80 20v512q0 79 44 126.5t124 47.5q72 0 119 -40t47 -125q0 -51 -23.5 -93t-62.5 -61v-3q52 -15 79.5 -63t27.5 -117q0 -96 -49 -150t-129 -54h-23q-19 0 -19 30v12q0 30 19 30h21q40 0 66 36t26 97q0 62 -27 98.5t-69 36.5h-17q-19 0 -19 30v12q0 30 18 30h6q35 0 60 34
t25 87q0 54 -22 77.5t-57 23.5q-38 0 -58.5 -26.5t-20.5 -75.5v-512q0 -22 -37 -22h-11q-38 0 -38 22z" />
    <glyph glyph-name="agrave" unicode="&#xe0;" horiz-adv-x="481" 
d="M221 603q-56 75 -67.5 91.5t-11.5 24.5q0 7 10 10t32 3q43 0 57 -26l20 -42q13 -29 20.5 -46t7.5 -23q0 -5 -4.5 -7.5t-16.5 -2.5q-35 0 -47 18zM90.5 34.5q-39.5 40.5 -39.5 114.5q0 75 39 115t97 53.5t133 14.5v47q0 34 -21 56t-66 22q-35 0 -61.5 -8.5t-45.5 -18
t-22 -9.5q-10 0 -22.5 19.5t-12.5 29.5q0 13 23.5 27t62 23t79.5 9q80 0 125 -40t45 -111v-230q0 -66 6 -94.5t6 -31.5q0 -12 -19 -17.5t-35 -5.5q-15 0 -22 15.5t-13 43.5q-53 -64 -130 -64q-67 0 -106.5 40.5zM320 130v129q-56 -1 -92.5 -8t-62.5 -30.5t-26 -70.5
q0 -77 75 -77q65 0 106 57z" />
    <glyph glyph-name="aacute" unicode="&#xe1;" horiz-adv-x="481" 
d="M216 595q0 7 12.5 34t36.5 77q12 26 56 26q22 0 32 -3t10 -10q0 -6 -9 -19l-27 -39l-42 -58q-12 -18 -48 -18q-21 0 -21 10zM90.5 34.5q-39.5 40.5 -39.5 114.5q0 75 39 115t97 53.5t133 14.5v47q0 34 -21 56t-66 22q-35 0 -61.5 -8.5t-45.5 -18t-22 -9.5
q-10 0 -22.5 19.5t-12.5 29.5q0 13 23.5 27t62 23t79.5 9q80 0 125 -40t45 -111v-230q0 -66 6 -94.5t6 -31.5q0 -12 -19 -17.5t-35 -5.5q-15 0 -22 15.5t-13 43.5q-53 -64 -130 -64q-67 0 -106.5 40.5zM320 130v129q-56 -1 -92.5 -8t-62.5 -30.5t-26 -70.5q0 -77 75 -77
q65 0 106 57z" />
    <glyph glyph-name="acircumflex" unicode="&#xe2;" horiz-adv-x="481" 
d="M140 580q-5 4 -5 9t7 19l52 88q14 22 42 22h15q27 0 41 -22l54 -88q6 -12 6 -17q0 -7 -5 -11t-14 -4h-20q-16 0 -25 14l-45 73l-44 -73q-11 -14 -26 -14h-19q-9 0 -14 4zM90.5 34.5q-39.5 40.5 -39.5 114.5q0 75 39 115t97 53.5t133 14.5v47q0 34 -21 56t-66 22
q-35 0 -61.5 -8.5t-45.5 -18t-22 -9.5q-10 0 -22.5 19.5t-12.5 29.5q0 13 23.5 27t62 23t79.5 9q80 0 125 -40t45 -111v-230q0 -66 6 -94.5t6 -31.5q0 -12 -19 -17.5t-35 -5.5q-15 0 -22 15.5t-13 43.5q-53 -64 -130 -64q-67 0 -106.5 40.5zM320 130v129q-56 -1 -92.5 -8
t-62.5 -30.5t-26 -70.5q0 -77 75 -77q65 0 106 57z" />
    <glyph glyph-name="atilde" unicode="&#xe3;" horiz-adv-x="481" 
d="M107 596q-10 4 -10 12q0 6 3 13q15 37 34.5 53t48.5 16q15 0 29.5 -5t39.5 -16q40 -19 58 -19q12 0 20 5.5t18 20.5q8 15 19 15q5 0 11 -3l7 -3q7 -3 9.5 -5.5t2.5 -6.5q0 -6 -4 -14q-15 -37 -34.5 -52.5t-47.5 -15.5q-16 0 -33 5.5t-40 16.5q-15 7 -30.5 12.5t-26.5 5.5
q-10 0 -18 -6t-18 -21q-8 -14 -17 -14q-3 0 -11 2zM90.5 34.5q-39.5 40.5 -39.5 114.5q0 75 39 115t97 53.5t133 14.5v47q0 34 -21 56t-66 22q-35 0 -61.5 -8.5t-45.5 -18t-22 -9.5q-10 0 -22.5 19.5t-12.5 29.5q0 13 23.5 27t62 23t79.5 9q80 0 125 -40t45 -111v-230
q0 -66 6 -94.5t6 -31.5q0 -12 -19 -17.5t-35 -5.5q-15 0 -22 15.5t-13 43.5q-53 -64 -130 -64q-67 0 -106.5 40.5zM320 130v129q-56 -1 -92.5 -8t-62.5 -30.5t-26 -70.5q0 -77 75 -77q65 0 106 57z" />
    <glyph glyph-name="adieresis" unicode="&#xe4;" horiz-adv-x="481" 
d="M143 629v51q0 22 40 22q38 0 38 -22v-51q0 -22 -40 -22q-38 0 -38 22zM269 629v51q0 22 40 22q38 0 38 -22v-51q0 -22 -40 -22q-38 0 -38 22zM90.5 34.5q-39.5 40.5 -39.5 114.5q0 75 39 115t97 53.5t133 14.5v47q0 34 -21 56t-66 22q-35 0 -61.5 -8.5t-45.5 -18
t-22 -9.5q-10 0 -22.5 19.5t-12.5 29.5q0 13 23.5 27t62 23t79.5 9q80 0 125 -40t45 -111v-230q0 -66 6 -94.5t6 -31.5q0 -12 -19 -17.5t-35 -5.5q-15 0 -22 15.5t-13 43.5q-53 -64 -130 -64q-67 0 -106.5 40.5zM320 130v129q-56 -1 -92.5 -8t-62.5 -30.5t-26 -70.5
q0 -77 75 -77q65 0 106 57z" />
    <glyph glyph-name="aring" unicode="&#xe5;" horiz-adv-x="481" 
d="M182 587q-23 23 -23 61t23 61.5t60 23.5q38 0 61 -23.5t23 -61.5t-23 -61t-61 -23q-37 0 -60 23zM276.5 612q12.5 13 12.5 36t-12.5 36.5t-34.5 13.5t-34 -13t-13 -37q1 -24 13 -36.5t34 -12.5t34.5 13zM90.5 34.5q-39.5 40.5 -39.5 114.5q0 75 39 115t97 53.5t133 14.5
v47q0 34 -21 56t-66 22q-35 0 -61.5 -8.5t-45.5 -18t-22 -9.5q-10 0 -22.5 19.5t-12.5 29.5q0 13 23.5 27t62 23t79.5 9q80 0 125 -40t45 -111v-230q0 -66 6 -94.5t6 -31.5q0 -12 -19 -17.5t-35 -5.5q-15 0 -22 15.5t-13 43.5q-53 -64 -130 -64q-67 0 -106.5 40.5zM320 130
v129q-56 -1 -92.5 -8t-62.5 -30.5t-26 -70.5q0 -77 75 -77q65 0 106 57z" />
    <glyph glyph-name="ae" unicode="&#xe6;" horiz-adv-x="688" 
d="M91.5 34.5q-40.5 40.5 -40.5 115.5q0 97 65.5 133.5t172.5 41.5q4 44 18 79q-14 53 -76 53q-34 0 -59 -8t-43.5 -17t-21.5 -9q-10 0 -22 19t-12 29q0 13 22.5 26.5t59.5 22.5t77 9q81 0 125 -44q47 44 122 44q86 0 130 -65t44 -190q0 -9 -12 -25t-21 -16h-245
q5 -88 31 -127.5t84 -39.5q36 0 59.5 10t39 21t18.5 11q10 0 22.5 -20t12.5 -30q0 -12 -20.5 -27.5t-55.5 -26t-75 -10.5q-101 0 -150 59q-25 -28 -61.5 -43.5t-79.5 -15.5q-68 0 -108.5 40.5zM564 305q0 152 -88 152q-93 0 -101 -152h189zM306 116q-19 51 -21 136
q-66 -3 -106 -24t-40 -76q0 -79 70 -79q59 0 97 43z" />
    <glyph glyph-name="ccedilla" unicode="&#xe7;" horiz-adv-x="408" 
d="M348 13.5q-39 -16.5 -80 -19.5l-15 -54q27 0 50.5 -14.5t23.5 -52.5q0 -83 -96 -83q-32 0 -63 12t-31 31q0 9 6 17.5t13 8.5t23 -7q26 -13 46 -13q14 0 25 7.5t11 21.5q0 15 -8.5 22t-24.5 12q-11 4 -16.5 8t-5.5 11t4.5 23t16.5 51q-92 8 -136.5 72t-44.5 197
q0 147 54.5 206t152.5 59q46 0 85.5 -14t39.5 -32q0 -12 -11.5 -33t-19.5 -21q-1 0 -11 4q-42 24 -81 24q-59 0 -88.5 -44.5t-29.5 -146.5q0 -106 28 -153t93 -47q46 0 83 22q4 2 7.5 4.5t5.5 3.5q10 0 21.5 -19.5t11.5 -31.5q0 -15 -39 -31.5z" />
    <glyph glyph-name="egrave" unicode="&#xe8;" horiz-adv-x="454" 
d="M208 603q-56 75 -67.5 91.5t-11.5 24.5q0 7 10 10t32 3q43 0 57 -26l20 -42q13 -29 20.5 -46t7.5 -23q0 -5 -4.5 -7.5t-16.5 -2.5q-35 0 -47 18zM98.5 59q-51.5 65 -51.5 199q0 133 50 202t147 69q87 0 131 -66.5t44 -194.5q0 -9 -12 -25t-21 -16h-249q5 -85 32 -123
t86 -38q36 0 60 10t39 21t18 11q10 0 22.5 -20t12.5 -30q0 -12 -20.5 -27.5t-55.5 -26t-75 -10.5q-106 0 -157.5 65zM330 299q0 158 -89 158q-96 0 -104 -158h193z" />
    <glyph glyph-name="eacute" unicode="&#xe9;" horiz-adv-x="454" 
d="M203 595q0 7 12.5 34t36.5 77q12 26 56 26q22 0 32 -3t10 -10q0 -6 -9 -19l-27 -39l-42 -58q-12 -18 -48 -18q-21 0 -21 10zM98.5 59q-51.5 65 -51.5 199q0 133 50 202t147 69q87 0 131 -66.5t44 -194.5q0 -9 -12 -25t-21 -16h-249q5 -85 32 -123t86 -38q36 0 60 10
t39 21t18 11q10 0 22.5 -20t12.5 -30q0 -12 -20.5 -27.5t-55.5 -26t-75 -10.5q-106 0 -157.5 65zM330 299q0 158 -89 158q-96 0 -104 -158h193z" />
    <glyph glyph-name="ecircumflex" unicode="&#xea;" horiz-adv-x="454" 
d="M127 580q-5 4 -5 9t7 19l52 88q14 22 42 22h15q27 0 41 -22l54 -88q6 -12 6 -17q0 -7 -5 -11t-14 -4h-20q-16 0 -25 14l-45 73l-44 -73q-11 -14 -26 -14h-19q-9 0 -14 4zM98.5 59q-51.5 65 -51.5 199q0 133 50 202t147 69q87 0 131 -66.5t44 -194.5q0 -9 -12 -25t-21 -16
h-249q5 -85 32 -123t86 -38q36 0 60 10t39 21t18 11q10 0 22.5 -20t12.5 -30q0 -12 -20.5 -27.5t-55.5 -26t-75 -10.5q-106 0 -157.5 65zM330 299q0 158 -89 158q-96 0 -104 -158h193z" />
    <glyph glyph-name="edieresis" unicode="&#xeb;" horiz-adv-x="454" 
d="M130 629v51q0 22 40 22q38 0 38 -22v-51q0 -22 -40 -22q-38 0 -38 22zM256 629v51q0 22 40 22q38 0 38 -22v-51q0 -22 -40 -22q-38 0 -38 22zM98.5 59q-51.5 65 -51.5 199q0 133 50 202t147 69q87 0 131 -66.5t44 -194.5q0 -9 -12 -25t-21 -16h-249q5 -85 32 -123t86 -38
q36 0 60 10t39 21t18 11q10 0 22.5 -20t12.5 -30q0 -12 -20.5 -27.5t-55.5 -26t-75 -10.5q-106 0 -157.5 65zM330 299q0 158 -89 158q-96 0 -104 -158h193z" />
    <glyph glyph-name="igrave" unicode="&#xec;" horiz-adv-x="254" 
d="M104 603q-56 75 -67.5 91.5t-11.5 24.5q0 7 10 10t32 3q43 0 57 -26l20 -42q13 -29 20.5 -46t7.5 -23q0 -5 -4.5 -7.5t-16.5 -2.5q-35 0 -47 18zM85 20v483q0 22 40 22h4q40 0 40 -22v-483q0 -22 -40 -22h-4q-40 0 -40 22z" />
    <glyph glyph-name="iacute" unicode="&#xed;" horiz-adv-x="254" 
d="M85 20v483q0 22 40 22h4q40 0 40 -22v-483q0 -22 -40 -22h-4q-40 0 -40 22zM99 595q0 7 12.5 34t36.5 77q12 26 56 26q22 0 32 -3t10 -10q0 -6 -9 -19l-27 -39l-42 -58q-12 -18 -48 -18q-21 0 -21 10z" />
    <glyph glyph-name="icircumflex" unicode="&#xee;" horiz-adv-x="254" 
d="M23 580q-5 4 -5 9t7 19l52 88q14 22 42 22h15q27 0 41 -22l54 -88q6 -12 6 -17q0 -7 -5 -11t-14 -4h-20q-16 0 -25 14l-45 73l-44 -73q-11 -14 -26 -14h-19q-9 0 -14 4zM85 20v483q0 22 40 22h4q40 0 40 -22v-483q0 -22 -40 -22h-4q-40 0 -40 22z" />
    <glyph glyph-name="idieresis" unicode="&#xef;" horiz-adv-x="254" 
d="M26 629v51q0 22 40 22q38 0 38 -22v-51q0 -22 -40 -22q-38 0 -38 22zM152 629v51q0 22 40 22q38 0 38 -22v-51q0 -22 -40 -22q-38 0 -38 22zM85 20v483q0 22 40 22h4q40 0 40 -22v-483q0 -22 -40 -22h-4q-40 0 -40 22z" />
    <glyph glyph-name="eth" unicode="&#xf0;" horiz-adv-x="477" 
d="M404.5 440.5q25.5 -86.5 25.5 -180.5q0 -130 -48.5 -198t-141.5 -68q-94 0 -143.5 68t-49.5 197t50 198t143 69q29 0 53 -7q-15 40 -45 88l-86 -12q-10 0 -18 10.5t-8 21.5q0 10 15 13l72 10q-11 15 -18.5 28t-7.5 20q0 11 16 14q14 2 27 2q16 0 26 -12q20 -24 33 -42
q74 11 78 11q12 0 18.5 -12t6.5 -20q0 -11 -15 -13l-60 -8q52 -91 77.5 -177.5zM316.5 113.5q25.5 47.5 25.5 147.5q0 98 -25.5 145.5t-78.5 47.5t-78 -47t-25 -146q0 -100 25 -147.5t78 -47.5t78.5 47.5z" />
    <glyph glyph-name="ntilde" unicode="&#xf1;" 
d="M107 596q-10 4 -10 12q0 6 3 13q15 37 34.5 53t48.5 16q15 0 29.5 -5t39.5 -16q40 -19 58 -19q12 0 20 5.5t18 20.5q8 15 19 15q5 0 11 -3l7 -3q7 -3 9.5 -5.5t2.5 -6.5q0 -6 -4 -14q-15 -37 -34.5 -52.5t-47.5 -15.5q-16 0 -33 5.5t-40 16.5q-15 7 -30.5 12.5t-26.5 5.5
q-10 0 -18 -6t-18 -21q-8 -14 -17 -14q-3 0 -11 2zM78 20v353q0 65 -5 94t-5 32q0 12 21.5 17.5t36.5 5.5q14 0 19.5 -13t8.5 -30t4 -25q23 35 56 55t70 20q62 0 96 -41.5t34 -114.5v-353q0 -22 -38 -22h-10q-39 0 -39 22v345q0 44 -18 67.5t-53 23.5q-27 0 -52 -19.5
t-40 -50.5v-366q0 -22 -38 -22h-11q-37 0 -37 22z" />
    <glyph glyph-name="ograve" unicode="&#xf2;" horiz-adv-x="477" 
d="M216 603q-56 75 -67.5 91.5t-11.5 24.5q0 7 10 10t32 3q43 0 57 -26l20 -42q13 -29 20.5 -46t7.5 -23q0 -5 -4.5 -7.5t-16.5 -2.5q-35 0 -47 18zM96.5 62q-49.5 68 -49.5 197q0 130 49.5 200t143.5 70q93 0 141.5 -69.5t48.5 -200.5q0 -130 -48 -197.5t-142 -67.5
t-143.5 68zM316.5 113.5q25.5 47.5 25.5 147.5t-25.5 148t-78.5 48t-77.5 -47.5t-24.5 -148.5q0 -100 24.5 -147.5t77.5 -47.5t78.5 47.5z" />
    <glyph glyph-name="oacute" unicode="&#xf3;" horiz-adv-x="477" 
d="M96.5 62q-49.5 68 -49.5 197q0 130 49.5 200t143.5 70q93 0 141.5 -69.5t48.5 -200.5q0 -130 -48 -197.5t-142 -67.5t-143.5 68zM316.5 113.5q25.5 47.5 25.5 147.5t-25.5 148t-78.5 48t-77.5 -47.5t-24.5 -148.5q0 -100 24.5 -147.5t77.5 -47.5t78.5 47.5zM211 595
q0 7 12.5 34t36.5 77q12 26 56 26q22 0 32 -3t10 -10q0 -6 -9 -19l-27 -39l-42 -58q-12 -18 -48 -18q-21 0 -21 10z" />
    <glyph glyph-name="ocircumflex" unicode="&#xf4;" horiz-adv-x="477" 
d="M135 580q-5 4 -5 9t7 19l52 88q14 22 42 22h15q27 0 41 -22l54 -88q6 -12 6 -17q0 -7 -5 -11t-14 -4h-20q-16 0 -25 14l-45 73l-44 -73q-11 -14 -26 -14h-19q-9 0 -14 4zM96.5 62q-49.5 68 -49.5 197q0 130 49.5 200t143.5 70q93 0 141.5 -69.5t48.5 -200.5
q0 -130 -48 -197.5t-142 -67.5t-143.5 68zM316.5 113.5q25.5 47.5 25.5 147.5t-25.5 148t-78.5 48t-77.5 -47.5t-24.5 -148.5q0 -100 24.5 -147.5t77.5 -47.5t78.5 47.5z" />
    <glyph glyph-name="otilde" unicode="&#xf5;" horiz-adv-x="477" 
d="M102 596q-10 4 -10 12q0 6 3 13q15 37 34.5 53t48.5 16q15 0 29.5 -5t39.5 -16q40 -19 58 -19q12 0 20 5.5t18 20.5q8 15 19 15q5 0 11 -3l7 -3q7 -3 9.5 -5.5t2.5 -6.5q0 -6 -4 -14q-15 -37 -34.5 -52.5t-47.5 -15.5q-16 0 -33 5.5t-40 16.5q-15 7 -30.5 12.5t-26.5 5.5
q-10 0 -18 -6t-18 -21q-8 -14 -17 -14q-3 0 -11 2zM96.5 62q-49.5 68 -49.5 197q0 130 49.5 200t143.5 70q93 0 141.5 -69.5t48.5 -200.5q0 -130 -48 -197.5t-142 -67.5t-143.5 68zM316.5 113.5q25.5 47.5 25.5 147.5t-25.5 148t-78.5 48t-77.5 -47.5t-24.5 -148.5
q0 -100 24.5 -147.5t77.5 -47.5t78.5 47.5z" />
    <glyph glyph-name="odieresis" unicode="&#xf6;" horiz-adv-x="477" 
d="M138 629v51q0 22 40 22q38 0 38 -22v-51q0 -22 -40 -22q-38 0 -38 22zM264 629v51q0 22 40 22q38 0 38 -22v-51q0 -22 -40 -22q-38 0 -38 22zM96.5 62q-49.5 68 -49.5 197q0 130 49.5 200t143.5 70q93 0 141.5 -69.5t48.5 -200.5q0 -130 -48 -197.5t-142 -67.5t-143.5 68
zM316.5 113.5q25.5 47.5 25.5 147.5t-25.5 148t-78.5 48t-77.5 -47.5t-24.5 -148.5q0 -100 24.5 -147.5t77.5 -47.5t78.5 47.5z" />
    <glyph glyph-name="divide" unicode="&#xf7;" horiz-adv-x="448" 
d="M183 390v51q0 22 38 22h5q38 0 38 -22v-51q0 -22 -38 -22h-5q-38 0 -38 22zM33 227v7q0 30 24 30h335q24 0 24 -30v-7q0 -30 -24 -30h-335q-24 0 -24 30zM183 20v51q0 22 38 22h5q38 0 38 -22v-51q0 -22 -38 -22h-5q-38 0 -38 22z" />
    <glyph glyph-name="oslash" unicode="&#xf8;" horiz-adv-x="477" 
d="M430 259q0 -130 -48 -197.5t-142 -67.5q-79 0 -127 48l-28 -40q-4 -8 -13 -8q-7 0 -16.5 7t-9.5 14q0 4 6 13l34 50q-39 66 -39 181q0 130 49.5 200t143.5 70q76 0 123 -47l26 38q6 8 13 8t16.5 -7t9.5 -14q0 -4 -6 -13l-32 -47q40 -71 40 -188zM144 163l171 249
q-25 45 -77 45q-53 0 -77.5 -47.5t-24.5 -148.5q0 -56 8 -98zM316.5 113.5q25.5 47.5 25.5 147.5q0 61 -9 103l-172 -251q24 -47 77 -47t78.5 47.5z" />
    <glyph glyph-name="ugrave" unicode="&#xf9;" 
d="M216 603q-56 75 -67.5 91.5t-11.5 24.5q0 7 10 10t32 3q43 0 57 -26l20 -42q13 -29 20.5 -46t7.5 -23q0 -5 -4.5 -7.5t-16.5 -2.5q-35 0 -47 18zM102 31.5q-34 38.5 -34 106.5v364q0 22 38 22h10q38 0 38 -22v-351q0 -41 18 -63t53 -22q28 0 52.5 19t40.5 51v366
q0 22 38 22h10q38 0 38 -22v-353q0 -65 5 -94.5t5 -32.5q0 -12 -21 -17t-37 -5q-14 0 -19.5 13t-8.5 30t-4 25q-23 -35 -56 -55t-70 -20q-62 0 -96 38.5z" />
    <glyph glyph-name="uacute" unicode="&#xfa;" 
d="M211 595q0 7 12.5 34t36.5 77q12 26 56 26q22 0 32 -3t10 -10q0 -6 -9 -19l-27 -39l-42 -58q-12 -18 -48 -18q-21 0 -21 10zM102 31.5q-34 38.5 -34 106.5v364q0 22 38 22h10q38 0 38 -22v-351q0 -41 18 -63t53 -22q28 0 52.5 19t40.5 51v366q0 22 38 22h10q38 0 38 -22
v-353q0 -65 5 -94.5t5 -32.5q0 -12 -21 -17t-37 -5q-14 0 -19.5 13t-8.5 30t-4 25q-23 -35 -56 -55t-70 -20q-62 0 -96 38.5z" />
    <glyph glyph-name="ucircumflex" unicode="&#xfb;" 
d="M135 580q-5 4 -5 9t7 19l52 88q14 22 42 22h15q27 0 41 -22l54 -88q6 -12 6 -17q0 -7 -5 -11t-14 -4h-20q-16 0 -25 14l-45 73l-44 -73q-11 -14 -26 -14h-19q-9 0 -14 4zM102 31.5q-34 38.5 -34 106.5v364q0 22 38 22h10q38 0 38 -22v-351q0 -41 18 -63t53 -22
q28 0 52.5 19t40.5 51v366q0 22 38 22h10q38 0 38 -22v-353q0 -65 5 -94.5t5 -32.5q0 -12 -21 -17t-37 -5q-14 0 -19.5 13t-8.5 30t-4 25q-23 -35 -56 -55t-70 -20q-62 0 -96 38.5z" />
    <glyph glyph-name="udieresis" unicode="&#xfc;" 
d="M138 629v51q0 22 40 22q38 0 38 -22v-51q0 -22 -40 -22q-38 0 -38 22zM264 629v51q0 22 40 22q38 0 38 -22v-51q0 -22 -40 -22q-38 0 -38 22zM102 31.5q-34 38.5 -34 106.5v364q0 22 38 22h10q38 0 38 -22v-351q0 -41 18 -63t53 -22q28 0 52.5 19t40.5 51v366q0 22 38 22
h10q38 0 38 -22v-353q0 -65 5 -94.5t5 -32.5q0 -12 -21 -17t-37 -5q-14 0 -19.5 13t-8.5 30t-4 25q-23 -35 -56 -55t-70 -20q-62 0 -96 38.5z" />
    <glyph glyph-name="yacute" unicode="&#xfd;" horiz-adv-x="399" 
d="M385 508q0 -5 -4 -18l-196 -677q-7 -21 -40 -21h-21q-32 0 -32 16q0 4 4 17l74 237q-12 2 -16 13l-131 415q-4 12 -4 18q0 17 39 17h14q32 0 36 -16l74 -271q5 -19 19 -80h6l18 80l73 271q4 16 37 16h12q38 0 38 -17zM174 595q0 7 12.5 34t36.5 77q12 26 56 26
q22 0 32 -3t10 -10q0 -6 -9 -19l-27 -39l-42 -58q-12 -18 -48 -18q-21 0 -21 10z" />
    <glyph glyph-name="thorn" unicode="&#xfe;" horiz-adv-x="483" 
d="M78 -186v916q0 22 40 22h6q40 0 40 -22v-266q23 32 52 48.5t61 16.5q47 0 83 -34t55.5 -95.5t19.5 -141.5q0 -124 -45 -194t-120 -70q-35 0 -59.5 13t-46.5 38v-231q0 -22 -37 -22h-11q-38 0 -38 22zM346 258q0 94 -22.5 146t-66.5 52q-25 0 -49.5 -18t-43.5 -51v-274
q35 -45 85 -45q97 0 97 190z" />
    <glyph glyph-name="ydieresis" unicode="&#xff;" horiz-adv-x="399" 
d="M101 629v51q0 22 40 22q38 0 38 -22v-51q0 -22 -40 -22q-38 0 -38 22zM227 629v51q0 22 40 22q38 0 38 -22v-51q0 -22 -40 -22q-38 0 -38 22zM385 508q0 -5 -4 -18l-196 -677q-7 -21 -40 -21h-21q-32 0 -32 16q0 4 4 17l74 237q-12 2 -16 13l-131 415q-4 12 -4 18
q0 17 39 17h14q32 0 36 -16l74 -271q5 -19 19 -80h6l18 80l73 271q4 16 37 16h12q38 0 38 -17z" />
    <glyph glyph-name="Amacron" unicode="&#x100;" horiz-adv-x="505" 
d="M138 819v10q0 30 19 30h199q10 0 14.5 -7t4.5 -23v-10q0 -16 -4.5 -23t-14.5 -7h-199q-19 0 -19 30zM13 15q0 3 2 13l181 655q6 19 40 19h32q36 0 40 -19l181 -655q3 -7 3 -13q0 -8 -9.5 -12.5t-27.5 -4.5h-17q-32 0 -36 16l-43 164h-215l-42 -164q-4 -16 -36 -16h-16
q-37 0 -37 17zM337 254l-71 274q-3 13 -11 61h-5q-2 -7 -4 -23l-8 -38l-71 -274h170z" />
    <glyph glyph-name="amacron" unicode="&#x101;" horiz-adv-x="481" 
d="M129 642v10q0 30 19 30h199q10 0 14.5 -7t4.5 -23v-10q0 -16 -4.5 -23t-14.5 -7h-199q-19 0 -19 30zM90.5 34.5q-39.5 40.5 -39.5 114.5q0 75 39 115t97 53.5t133 14.5v47q0 34 -21 56t-66 22q-35 0 -61.5 -8.5t-45.5 -18t-22 -9.5q-10 0 -22.5 19.5t-12.5 29.5
q0 13 23.5 27t62 23t79.5 9q80 0 125 -40t45 -111v-230q0 -66 6 -94.5t6 -31.5q0 -12 -19 -17.5t-35 -5.5q-15 0 -22 15.5t-13 43.5q-53 -64 -130 -64q-67 0 -106.5 40.5zM320 130v129q-56 -1 -92.5 -8t-62.5 -30.5t-26 -70.5q0 -77 75 -77q65 0 106 57z" />
    <glyph glyph-name="Abreve" unicode="&#x102;" horiz-adv-x="505" 
d="M169.5 792q-33.5 30 -33.5 85q0 15 18 15q7 0 10.5 -3.5t6 -10.5t4.5 -11q15 -39 78 -39t78 39q1 3 4 11t6.5 11t9.5 3q18 0 18 -15q0 -55 -33.5 -85t-82.5 -30q-50 0 -83.5 30zM13 15q0 3 2 13l181 655q6 19 40 19h32q36 0 40 -19l181 -655q3 -7 3 -13q0 -8 -9.5 -12.5
t-27.5 -4.5h-17q-32 0 -36 16l-43 164h-215l-42 -164q-4 -16 -36 -16h-16q-37 0 -37 17zM337 254l-71 274q-3 13 -11 61h-5q-2 -7 -4 -23l-8 -38l-71 -274h170z" />
    <glyph glyph-name="abreve" unicode="&#x103;" horiz-adv-x="481" 
d="M160.5 615q-33.5 30 -33.5 85q0 15 18 15q7 0 10.5 -3.5t6 -10.5t4.5 -11q15 -39 78 -39t78 39q1 3 4 11t6.5 11t9.5 3q18 0 18 -15q0 -55 -33.5 -85t-82.5 -30q-50 0 -83.5 30zM90.5 34.5q-39.5 40.5 -39.5 114.5q0 75 39 115t97 53.5t133 14.5v47q0 34 -21 56t-66 22
q-35 0 -61.5 -8.5t-45.5 -18t-22 -9.5q-10 0 -22.5 19.5t-12.5 29.5q0 13 23.5 27t62 23t79.5 9q80 0 125 -40t45 -111v-230q0 -66 6 -94.5t6 -31.5q0 -12 -19 -17.5t-35 -5.5q-15 0 -22 15.5t-13 43.5q-53 -64 -130 -64q-67 0 -106.5 40.5zM320 130v129q-56 -1 -92.5 -8
t-62.5 -30.5t-26 -70.5q0 -77 75 -77q65 0 106 57z" />
    <glyph glyph-name="Aogonek" unicode="&#x104;" horiz-adv-x="505" 
d="M535 -127q0 -18 -13 -27q-28 -19 -66 -19q-54 0 -73 28.5t-19 59.5q0 23 8.5 51.5t27.5 53.5l-41 158h-215l-42 -164q-4 -16 -36 -16h-16q-37 0 -37 17q0 3 2 13l181 655q6 19 40 19h32q36 0 40 -19l181 -655q3 -7 3 -13q0 -8 -9.5 -12.5t-27.5 -4.5h-13q-17 -35 -17 -65
q0 -43 50 -43q8 0 22 3.5t18 3.5q20 0 20 -24zM337 254l-71 274q-3 13 -11 61h-5q-2 -7 -4 -23l-8 -38l-71 -274h170z" />
    <glyph glyph-name="aogonek" unicode="&#x105;" horiz-adv-x="481" 
d="M498 -121q0 -18 -13 -27q-28 -19 -66 -19q-54 0 -73 28.5t-19 59.5q0 43 22 83q-8 7 -12.5 19t-9.5 35q-53 -64 -130 -64q-67 0 -106.5 40.5t-39.5 114.5q0 75 39 115t97 53.5t133 14.5v47q0 34 -21 56t-66 22q-35 0 -61.5 -8.5t-45.5 -18t-22 -9.5q-10 0 -22.5 19.5
t-12.5 29.5q0 13 23.5 27t62 23t79.5 9q80 0 125 -40t45 -111v-230q0 -66 6 -94.5t6 -31.5q0 -7 -8 -13q-20 -37 -20 -70q0 -43 50 -43q8 0 22 3.5t18 3.5q20 0 20 -24zM320 259q-56 -1 -92.5 -8t-62.5 -30.5t-26 -70.5q0 -77 75 -77q65 0 106 57v129z" />
    <glyph glyph-name="Cacute" unicode="&#x106;" horiz-adv-x="459" 
d="M112.5 80.5q-63.5 86.5 -63.5 269.5q0 181 64.5 268.5t196.5 87.5q28 0 55 -5t46 -14q10 -4 13.5 -10t3.5 -17q0 -17 -8 -39t-23 -14q-42 21 -87 21q-86 0 -127 -67t-41 -210t40.5 -211t126.5 -68q52 0 94 25q6 2 9 2q13 0 20.5 -17.5t7.5 -33.5q0 -10 -5 -18t-19 -15
q-17 -8 -46 -14.5t-61 -6.5q-133 0 -196.5 86.5zM269 772q0 7 12.5 34t36.5 77q12 26 56 26q22 0 32 -3t10 -10q0 -6 -9 -19l-27 -39l-42 -58q-12 -18 -48 -18q-21 0 -21 10z" />
    <glyph glyph-name="cacute" unicode="&#x107;" horiz-adv-x="408" 
d="M210 595q0 7 12.5 34t36.5 77q12 26 56 26q22 0 32 -3t10 -10q0 -6 -9 -19l-27 -39l-42 -58q-12 -18 -48 -18q-21 0 -21 10zM97.5 58q-51.5 64 -51.5 206q0 147 54.5 206t152.5 59q46 0 85.5 -14t39.5 -32q0 -12 -11.5 -33t-19.5 -21q-1 0 -11 4q-42 24 -81 24
q-59 0 -88.5 -44.5t-29.5 -146.5q0 -106 28 -153t93 -47q46 0 83 22q4 2 7.5 4.5t5.5 3.5q10 0 21.5 -19.5t11.5 -31.5q0 -11 -21.5 -23t-52.5 -20t-57 -8q-107 0 -158.5 64z" />
    <glyph glyph-name="Ccircumflex" unicode="&#x108;" horiz-adv-x="459" 
d="M112.5 80.5q-63.5 86.5 -63.5 269.5q0 181 64.5 268.5t196.5 87.5q28 0 55 -5t46 -14q10 -4 13.5 -10t3.5 -17q0 -17 -8 -39t-23 -14q-42 21 -87 21q-86 0 -127 -67t-41 -210t40.5 -211t126.5 -68q52 0 94 25q6 2 9 2q13 0 20.5 -17.5t7.5 -33.5q0 -10 -5 -18t-19 -15
q-17 -8 -46 -14.5t-61 -6.5q-133 0 -196.5 86.5zM193 757q-5 4 -5 9t7 19l52 88q14 22 42 22h15q27 0 41 -22l54 -88q6 -12 6 -17q0 -7 -5 -11t-14 -4h-20q-16 0 -25 14l-45 73l-44 -73q-11 -14 -26 -14h-19q-9 0 -14 4z" />
    <glyph glyph-name="ccircumflex" unicode="&#x109;" horiz-adv-x="408" 
d="M134 580q-5 4 -5 9t7 19l52 88q14 22 42 22h15q27 0 41 -22l54 -88q6 -12 6 -17q0 -7 -5 -11t-14 -4h-20q-16 0 -25 14l-45 73l-44 -73q-11 -14 -26 -14h-19q-9 0 -14 4zM97.5 58q-51.5 64 -51.5 206q0 147 54.5 206t152.5 59q46 0 85.5 -14t39.5 -32q0 -12 -11.5 -33
t-19.5 -21q-1 0 -11 4q-42 24 -81 24q-59 0 -88.5 -44.5t-29.5 -146.5q0 -106 28 -153t93 -47q46 0 83 22q4 2 7.5 4.5t5.5 3.5q10 0 21.5 -19.5t11.5 -31.5q0 -11 -21.5 -23t-52.5 -20t-57 -8q-107 0 -158.5 64z" />
    <glyph glyph-name="Cdotaccent" unicode="&#x10a;" horiz-adv-x="459" 
d="M112.5 80.5q-63.5 86.5 -63.5 269.5q0 181 64.5 268.5t196.5 87.5q28 0 55 -5t46 -14q10 -4 13.5 -10t3.5 -17q0 -17 -8 -39t-23 -14q-42 21 -87 21q-86 0 -127 -67t-41 -210t40.5 -211t126.5 -68q52 0 94 25q6 2 9 2q13 0 20.5 -17.5t7.5 -33.5q0 -10 -5 -18t-19 -15
q-17 -8 -46 -14.5t-61 -6.5q-133 0 -196.5 86.5zM253 806v51q0 22 46 22q44 0 44 -22v-51q0 -22 -46 -22q-44 0 -44 22z" />
    <glyph glyph-name="cdotaccent" unicode="&#x10b;" horiz-adv-x="408" 
d="M194 629v51q0 22 46 22q44 0 44 -22v-51q0 -22 -46 -22q-44 0 -44 22zM97.5 58q-51.5 64 -51.5 206q0 147 54.5 206t152.5 59q46 0 85.5 -14t39.5 -32q0 -12 -11.5 -33t-19.5 -21q-1 0 -11 4q-42 24 -81 24q-59 0 -88.5 -44.5t-29.5 -146.5q0 -106 28 -153t93 -47
q46 0 83 22q4 2 7.5 4.5t5.5 3.5q10 0 21.5 -19.5t11.5 -31.5q0 -11 -21.5 -23t-52.5 -20t-57 -8q-107 0 -158.5 64z" />
    <glyph glyph-name="Ccaron" unicode="&#x10c;" horiz-adv-x="459" 
d="M112.5 80.5q-63.5 86.5 -63.5 269.5q0 181 64.5 268.5t196.5 87.5q28 0 55 -5t46 -14q10 -4 13.5 -10t3.5 -17q0 -17 -8 -39t-23 -14q-42 21 -87 21q-86 0 -127 -67t-41 -210t40.5 -211t126.5 -68q52 0 94 25q6 2 9 2q13 0 20.5 -17.5t7.5 -33.5q0 -10 -5 -18t-19 -15
q-17 -8 -46 -14.5t-61 -6.5q-133 0 -196.5 86.5zM248 782l-52 88q-7 12 -7 18t5 10t14 4h19q16 0 26 -15l44 -72l45 72q9 15 25 15h20q9 0 14 -4t5 -11q0 -5 -6 -17l-54 -88q-13 -22 -41 -22h-15q-29 0 -42 22z" />
    <glyph glyph-name="ccaron" unicode="&#x10d;" horiz-adv-x="408" 
d="M189 605l-52 88q-7 12 -7 18t5 10t14 4h19q15 0 26 -15l44 -72l45 72q9 15 25 15h20q9 0 14 -4t5 -11q0 -5 -6 -17l-54 -88q-13 -22 -41 -22h-15q-29 0 -42 22zM97.5 58q-51.5 64 -51.5 206q0 147 54.5 206t152.5 59q46 0 85.5 -14t39.5 -32q0 -12 -11.5 -33t-19.5 -21
q-1 0 -11 4q-42 24 -81 24q-59 0 -88.5 -44.5t-29.5 -146.5q0 -106 28 -153t93 -47q46 0 83 22q4 2 7.5 4.5t5.5 3.5q10 0 21.5 -19.5t11.5 -31.5q0 -11 -21.5 -23t-52.5 -20t-57 -8q-107 0 -158.5 64z" />
    <glyph glyph-name="Dcaron" unicode="&#x10e;" horiz-adv-x="577" 
d="M223 782l-52 88q-7 12 -7 18t5 10t14 4h19q16 0 26 -15l44 -72l45 72q9 15 25 15h20q9 0 14 -4t5 -11q0 -5 -6 -17l-54 -88q-13 -22 -41 -22h-15q-29 0 -42 22zM84.5 7q-6.5 7 -6.5 23v640q0 16 6.5 23t20.5 7h168q251 0 251 -350t-251 -350h-168q-14 0 -20.5 7zM271 76
q75 0 118 65.5t43 208.5q0 142 -43 208t-118 66h-102v-548h102z" />
    <glyph glyph-name="dcaron" unicode="&#x10f;" horiz-adv-x="481" 
d="M121.5 28q-35.5 34 -55 95t-19.5 141q0 125 45 195t120 70q35 0 59.5 -13t46.5 -38v252q0 22 37 22h11q38 0 38 -22v-582q0 -63 5 -93t5 -34q0 -11 -21.5 -16.5t-36.5 -5.5t-20.5 14t-8.5 32l-4 24q-23 -37 -53.5 -56t-65.5 -19q-47 0 -82.5 34zM274.5 85
q24.5 18 43.5 51v274q-34 45 -84 45q-98 0 -98 -190q0 -94 22.5 -146t66.5 -52q25 0 49.5 18zM449 529.5q-9 3.5 -9 11.5q0 6 4 28q9 50 9 99q0 15 10 23.5t30 8.5h9q19 0 29.5 -7.5t10.5 -20.5q0 -42 -12.5 -75.5t-30 -52t-30.5 -18.5q-11 0 -20 3.5z" />
    <glyph glyph-name="Dcroat" unicode="&#x110;" horiz-adv-x="577" 
d="M524 350q0 -350 -251 -350h-168q-14 0 -20.5 7t-6.5 23v290h-49q-19 0 -19 30v16q0 30 19 30h49v274q0 16 6.5 23t20.5 7h168q251 0 251 -350zM389 141.5q43 65.5 43 208.5q0 142 -43 208t-118 66h-102v-228h71q19 0 19 -30v-16q0 -30 -19 -30h-71v-244h102
q75 0 118 65.5z" />
    <glyph glyph-name="dcroat" unicode="&#x111;" horiz-adv-x="467" 
d="M465 661q5 -7 5 -23v-10q0 -16 -5 -23t-16 -7h-45v-450q0 -63 5 -93t5 -34q0 -11 -21.5 -16.5t-36.5 -5.5t-20.5 14t-8.5 32l-4 24q-23 -37 -53.5 -56t-65.5 -19q-47 0 -82.5 34t-55 95t-19.5 141q0 125 45 195t120 70q35 0 59.5 -13t46.5 -38v120h-91q-21 0 -21 30v10
q0 30 21 30h91v62q0 22 37 22h11q38 0 38 -22v-62h45q11 0 16 -7zM318 410q-34 45 -84 45q-98 0 -98 -190q0 -94 22.5 -146t66.5 -52q25 0 49.5 18t43.5 51v274z" />
    <glyph glyph-name="Emacron" unicode="&#x112;" horiz-adv-x="457" 
d="M130 819v10q0 30 19 30h199q10 0 14.5 -7t4.5 -23v-10q0 -16 -4.5 -23t-14.5 -7h-199q-19 0 -19 30zM84.5 7q-6.5 7 -6.5 23v640q0 16 6.5 23t20.5 7h288q19 0 19 -30v-16q0 -30 -19 -30h-225v-228h202q19 0 19 -30v-16q0 -30 -19 -30h-202v-244h225q10 0 14.5 -7
t4.5 -23v-16q0 -16 -4.5 -23t-14.5 -7h-288q-14 0 -20.5 7z" />
    <glyph glyph-name="emacron" unicode="&#x113;" horiz-adv-x="454" 
d="M116 642v10q0 30 19 30h199q10 0 14.5 -7t4.5 -23v-10q0 -16 -4.5 -23t-14.5 -7h-199q-19 0 -19 30zM98.5 59q-51.5 65 -51.5 199q0 133 50 202t147 69q87 0 131 -66.5t44 -194.5q0 -9 -12 -25t-21 -16h-249q5 -85 32 -123t86 -38q36 0 60 10t39 21t18 11q10 0 22.5 -20
t12.5 -30q0 -12 -20.5 -27.5t-55.5 -26t-75 -10.5q-106 0 -157.5 65zM330 299q0 158 -89 158q-96 0 -104 -158h193z" />
    <glyph glyph-name="Ebreve" unicode="&#x114;" horiz-adv-x="457" 
d="M161.5 792q-33.5 30 -33.5 85q0 15 18 15q7 0 10.5 -3.5t6 -10.5t4.5 -11q15 -39 78 -39t78 39q1 3 4 11t6.5 11t9.5 3q18 0 18 -15q0 -55 -33.5 -85t-82.5 -30q-50 0 -83.5 30zM84.5 7q-6.5 7 -6.5 23v640q0 16 6.5 23t20.5 7h288q19 0 19 -30v-16q0 -30 -19 -30h-225
v-228h202q19 0 19 -30v-16q0 -30 -19 -30h-202v-244h225q10 0 14.5 -7t4.5 -23v-16q0 -16 -4.5 -23t-14.5 -7h-288q-14 0 -20.5 7z" />
    <glyph glyph-name="ebreve" unicode="&#x115;" horiz-adv-x="454" 
d="M147.5 615q-33.5 30 -33.5 85q0 15 18 15q7 0 10.5 -3.5t6 -10.5t4.5 -11q15 -39 78 -39t78 39q1 3 4 11t6.5 11t9.5 3q18 0 18 -15q0 -55 -33.5 -85t-82.5 -30q-50 0 -83.5 30zM98.5 59q-51.5 65 -51.5 199q0 133 50 202t147 69q87 0 131 -66.5t44 -194.5q0 -9 -12 -25
t-21 -16h-249q5 -85 32 -123t86 -38q36 0 60 10t39 21t18 11q10 0 22.5 -20t12.5 -30q0 -12 -20.5 -27.5t-55.5 -26t-75 -10.5q-106 0 -157.5 65zM330 299q0 158 -89 158q-96 0 -104 -158h193z" />
    <glyph glyph-name="Edotaccent" unicode="&#x116;" horiz-adv-x="457" 
d="M201 806v51q0 22 46 22q44 0 44 -22v-51q0 -22 -46 -22q-44 0 -44 22zM84.5 7q-6.5 7 -6.5 23v640q0 16 6.5 23t20.5 7h288q19 0 19 -30v-16q0 -30 -19 -30h-225v-228h202q19 0 19 -30v-16q0 -30 -19 -30h-202v-244h225q10 0 14.5 -7t4.5 -23v-16q0 -16 -4.5 -23
t-14.5 -7h-288q-14 0 -20.5 7z" />
    <glyph glyph-name="edotaccent" unicode="&#x117;" horiz-adv-x="454" 
d="M187 629v51q0 22 46 22q44 0 44 -22v-51q0 -22 -46 -22q-44 0 -44 22zM98.5 59q-51.5 65 -51.5 199q0 133 50 202t147 69q87 0 131 -66.5t44 -194.5q0 -9 -12 -25t-21 -16h-249q5 -85 32 -123t86 -38q36 0 60 10t39 21t18 11q10 0 22.5 -20t12.5 -30q0 -12 -20.5 -27.5
t-55.5 -26t-75 -10.5q-106 0 -157.5 65zM330 299q0 158 -89 158q-96 0 -104 -158h193z" />
    <glyph glyph-name="Eogonek" unicode="&#x118;" horiz-adv-x="457" 
d="M494 -131q0 -18 -13 -27q-28 -19 -66 -19q-54 0 -73 28.5t-19 59.5q0 18 6 42t19 47h-243q-14 0 -20.5 7t-6.5 23v640q0 16 6.5 23t20.5 7h288q19 0 19 -30v-16q0 -30 -19 -30h-225v-228h202q19 0 19 -30v-16q0 -30 -19 -30h-202v-244h225q10 0 14.5 -7t4.5 -23v-16
q0 -12 -3 -20h1q-13 -21 -19.5 -43t-6.5 -38q0 -43 50 -43q8 0 22 3.5t18 3.5q20 0 20 -24z" />
    <glyph glyph-name="eogonek" unicode="&#x119;" horiz-adv-x="454" 
d="M446 -124q0 -18 -13 -27q-28 -19 -66 -19q-54 0 -73 28.5t-19 59.5q0 39 20 79q-18 -3 -39 -3q-106 0 -157.5 65t-51.5 199q0 133 50 202t147 69q87 0 131 -66.5t44 -194.5q0 -9 -12 -25t-21 -16h-249q5 -85 32 -123t86 -38q36 0 60 10t39 21t18 11q10 0 22.5 -20
t12.5 -30q0 -9 -12.5 -20.5t-33.5 -21.5q-12 -22 -18.5 -43t-6.5 -37q0 -43 50 -43q8 0 22 3.5t18 3.5q20 0 20 -24zM137 299h193q0 158 -89 158q-96 0 -104 -158z" />
    <glyph glyph-name="Ecaron" unicode="&#x11a;" horiz-adv-x="457" 
d="M196 782l-52 88q-7 12 -7 18t5 10t14 4h19q15 0 26 -15l44 -72l45 72q9 15 25 15h20q9 0 14 -4t5 -11q0 -5 -6 -17l-54 -88q-13 -22 -41 -22h-15q-29 0 -42 22zM84.5 7q-6.5 7 -6.5 23v640q0 16 6.5 23t20.5 7h288q19 0 19 -30v-16q0 -30 -19 -30h-225v-228h202
q19 0 19 -30v-16q0 -30 -19 -30h-202v-244h225q10 0 14.5 -7t4.5 -23v-16q0 -16 -4.5 -23t-14.5 -7h-288q-14 0 -20.5 7z" />
    <glyph glyph-name="ecaron" unicode="&#x11b;" horiz-adv-x="454" 
d="M182 605l-52 88q-7 12 -7 18t5 10t14 4h19q15 0 26 -15l44 -72l45 72q9 15 25 15h20q9 0 14 -4t5 -11q0 -5 -6 -17l-54 -88q-13 -22 -41 -22h-15q-29 0 -42 22zM98.5 59q-51.5 65 -51.5 199q0 133 50 202t147 69q87 0 131 -66.5t44 -194.5q0 -9 -12 -25t-21 -16h-249
q5 -85 32 -123t86 -38q36 0 60 10t39 21t18 11q10 0 22.5 -20t12.5 -30q0 -12 -20.5 -27.5t-55.5 -26t-75 -10.5q-106 0 -157.5 65zM330 299q0 158 -89 158q-96 0 -104 -158h193z" />
    <glyph glyph-name="Gcircumflex" unicode="&#x11c;" horiz-adv-x="552" 
d="M188 757q-5 4 -5 9t7 19l52 88q14 22 42 22h15q27 0 41 -22l54 -88q6 -12 6 -17q0 -7 -5 -11t-14 -4h-20q-16 0 -25 14l-45 73l-44 -73q-11 -14 -26 -14h-19q-9 0 -14 4zM484 352v-286q0 -38 -55 -55t-127 -17q-253 0 -253 350q0 184 66 273t196 89q37 0 74 -10
t61.5 -24.5t24.5 -27.5q0 -14 -13 -36t-23 -22q-3 0 -21 11.5t-43.5 20.5t-58.5 9q-90 0 -130 -69.5t-40 -204.5q0 -127 38 -205t125 -78q53 0 89 13v223h-85q-10 0 -15 7t-5 23v16q0 16 5 23t15 7h148q27 0 27 -30z" />
    <glyph glyph-name="gcircumflex" unicode="&#x11d;" horiz-adv-x="471" 
d="M127 580q-5 4 -5 9t7 19l52 88q14 22 42 22h15q27 0 41 -22l54 -88q6 -12 6 -17q0 -7 -5 -11t-14 -4h-20q-16 0 -25 14l-45 73l-44 -73q-11 -14 -26 -14h-19q-9 0 -14 4zM91 -182.5q-47 29.5 -47 94.5q0 43 20.5 75t57.5 51v2q-15 12 -23.5 31t-8.5 42q0 58 47 94
q-36 21 -55 60t-19 90q0 78 42.5 125t122.5 47q25 0 47 -6h150q20 0 20 -29v-12q0 -15 -4.5 -21.5t-15.5 -6.5q-40 0 -55 2l-2 -2q23 -41 23 -96q0 -75 -40.5 -122t-114.5 -50q-36 -2 -57.5 -18t-21.5 -47q0 -30 24 -41t74 -18l26 -4q64 -10 98 -37t34 -85q0 -72 -49 -110
t-144 -38q-82 0 -129 29.5zM293.5 273q24.5 23 24.5 83q0 61 -24.5 84.5t-66.5 23.5q-43 0 -66.5 -23t-23.5 -85q0 -60 23.5 -83t66.5 -23q42 0 66.5 23zM337 -73q0 26 -14.5 39.5t-36 19t-57.5 10.5q-44 6 -62 12q-52 -27 -52 -80q0 -75 112 -75q110 0 110 74z" />
    <glyph glyph-name="Gbreve" unicode="&#x11e;" horiz-adv-x="552" 
d="M208.5 792q-33.5 30 -33.5 85q0 15 18 15q7 0 10.5 -3.5t6 -10.5t4.5 -11q15 -39 78 -39t78 39q1 3 4 11t6.5 11t9.5 3q18 0 18 -15q0 -55 -33.5 -85t-82.5 -30q-50 0 -83.5 30zM484 352v-286q0 -38 -55 -55t-127 -17q-253 0 -253 350q0 184 66 273t196 89q37 0 74 -10
t61.5 -24.5t24.5 -27.5q0 -14 -13 -36t-23 -22q-3 0 -21 11.5t-43.5 20.5t-58.5 9q-90 0 -130 -69.5t-40 -204.5q0 -127 38 -205t125 -78q53 0 89 13v223h-85q-10 0 -15 7t-5 23v16q0 16 5 23t15 7h148q27 0 27 -30z" />
    <glyph glyph-name="gbreve" unicode="&#x11f;" horiz-adv-x="471" 
d="M147.5 615q-33.5 30 -33.5 85q0 15 18 15q7 0 10.5 -3.5t6 -10.5t4.5 -11q15 -39 78 -39t78 39q1 3 4 11t6.5 11t9.5 3q18 0 18 -15q0 -55 -33.5 -85t-82.5 -30q-50 0 -83.5 30zM91 -182.5q-47 29.5 -47 94.5q0 43 20.5 75t57.5 51v2q-15 12 -23.5 31t-8.5 42q0 58 47 94
q-36 21 -55 60t-19 90q0 78 42.5 125t122.5 47q25 0 47 -6h150q20 0 20 -29v-12q0 -15 -4.5 -21.5t-15.5 -6.5q-40 0 -55 2l-2 -2q23 -41 23 -96q0 -75 -40.5 -122t-114.5 -50q-36 -2 -57.5 -18t-21.5 -47q0 -30 24 -41t74 -18l26 -4q64 -10 98 -37t34 -85q0 -72 -49 -110
t-144 -38q-82 0 -129 29.5zM293.5 273q24.5 23 24.5 83q0 61 -24.5 84.5t-66.5 23.5q-43 0 -66.5 -23t-23.5 -85q0 -60 23.5 -83t66.5 -23q42 0 66.5 23zM337 -73q0 26 -14.5 39.5t-36 19t-57.5 10.5q-44 6 -62 12q-52 -27 -52 -80q0 -75 112 -75q110 0 110 74z" />
    <glyph glyph-name="Gdotaccent" unicode="&#x120;" horiz-adv-x="552" 
d="M248 806v51q0 22 46 22q44 0 44 -22v-51q0 -22 -46 -22q-44 0 -44 22zM484 352v-286q0 -38 -55 -55t-127 -17q-253 0 -253 350q0 184 66 273t196 89q37 0 74 -10t61.5 -24.5t24.5 -27.5q0 -14 -13 -36t-23 -22q-3 0 -21 11.5t-43.5 20.5t-58.5 9q-90 0 -130 -69.5
t-40 -204.5q0 -127 38 -205t125 -78q53 0 89 13v223h-85q-10 0 -15 7t-5 23v16q0 16 5 23t15 7h148q27 0 27 -30z" />
    <glyph glyph-name="gdotaccent" unicode="&#x121;" horiz-adv-x="471" 
d="M187 629v51q0 22 46 22q44 0 44 -22v-51q0 -22 -46 -22q-44 0 -44 22zM91 -182.5q-47 29.5 -47 94.5q0 43 20.5 75t57.5 51v2q-15 12 -23.5 31t-8.5 42q0 58 47 94q-36 21 -55 60t-19 90q0 78 42.5 125t122.5 47q25 0 47 -6h150q20 0 20 -29v-12q0 -15 -4.5 -21.5
t-15.5 -6.5q-40 0 -55 2l-2 -2q23 -41 23 -96q0 -75 -40.5 -122t-114.5 -50q-36 -2 -57.5 -18t-21.5 -47q0 -30 24 -41t74 -18l26 -4q64 -10 98 -37t34 -85q0 -72 -49 -110t-144 -38q-82 0 -129 29.5zM293.5 273q24.5 23 24.5 83q0 61 -24.5 84.5t-66.5 23.5
q-43 0 -66.5 -23t-23.5 -85q0 -60 23.5 -83t66.5 -23q42 0 66.5 23zM337 -73q0 26 -14.5 39.5t-36 19t-57.5 10.5q-44 6 -62 12q-52 -27 -52 -80q0 -75 112 -75q110 0 110 74z" />
    <glyph glyph-name="Gcommaaccent" unicode="&#x122;" horiz-adv-x="552" 
d="M484 352v-286q0 -38 -55 -55t-127 -17q-253 0 -253 350q0 184 66 273t196 89q37 0 74 -10t61.5 -24.5t24.5 -27.5q0 -14 -13 -36t-23 -22q-3 0 -21 11.5t-43.5 20.5t-58.5 9q-90 0 -130 -69.5t-40 -204.5q0 -127 38 -205t125 -78q53 0 89 13v223h-85q-10 0 -15 7t-5 23
v16q0 16 5 23t15 7h148q27 0 27 -30zM247.5 -231.5q-8.5 3.5 -8.5 11.5q0 6 3.5 16.5t4.5 14.5q10 26 15.5 50t5.5 56q0 15 9.5 23.5t28.5 8.5h10q17 0 26 -7.5t9 -20.5q0 -45 -14.5 -80.5t-34.5 -55.5t-35 -20q-11 0 -19.5 3.5z" />
    <glyph glyph-name="gcommaaccent" unicode="&#x123;" horiz-adv-x="437" 
d="M283.5 765.5q8.5 -3.5 8.5 -11.5q0 -6 -3.5 -16.5t-4.5 -14.5q-10 -26 -15.5 -50t-5.5 -56q0 -15 -9.5 -23.5t-28.5 -8.5h-10q-17 0 -26 7.5t-9 20.5q0 45 14.5 80.5t34.5 55.5t35 20q11 0 19.5 -3.5zM91 -182.5q-47 29.5 -47 94.5q0 43 20.5 75t57.5 51v2
q-15 12 -23.5 31t-8.5 42q0 58 47 94q-36 21 -55 60t-19 90q0 78 42.5 125t122.5 47q25 0 47 -6h150q20 0 20 -29v-12q0 -15 -4.5 -21.5t-15.5 -6.5q-40 0 -55 2l-2 -2q23 -41 23 -96q0 -75 -40.5 -122t-114.5 -50q-36 -2 -57.5 -18t-21.5 -47q0 -30 24 -41t74 -18l26 -4
q64 -10 98 -37t34 -85q0 -72 -49 -110t-144 -38q-82 0 -129 29.5zM293.5 273q24.5 23 24.5 83q0 61 -24.5 84.5t-66.5 23.5q-43 0 -66.5 -23t-23.5 -85q0 -60 23.5 -83t66.5 -23q42 0 66.5 23zM337 -73q0 26 -14.5 39.5t-36 19t-57.5 10.5q-44 6 -62 12q-52 -27 -52 -80
q0 -75 112 -75q110 0 110 74z" />
    <glyph glyph-name="Hcircumflex" unicode="&#x124;" horiz-adv-x="601" 
d="M196 757q-5 4 -5 9t7 19l52 88q14 22 42 22h15q27 0 41 -22l54 -88q6 -12 6 -17q0 -7 -5 -11t-14 -4h-20q-16 0 -25 14l-45 73l-44 -73q-11 -14 -26 -14h-19q-9 0 -14 4zM78 20v660q0 22 38 22h15q37 0 37 -22v-283h263v283q0 22 38 22h14q38 0 38 -22v-660
q0 -22 -38 -22h-14q-38 0 -38 22v301h-263v-301q0 -22 -37 -22h-15q-38 0 -38 22z" />
    <glyph glyph-name="hcircumflex" unicode="&#x125;" horiz-adv-x="485" 
d="M20 787q-5 4 -5 9t7 19l52 88q14 22 42 22h15q27 0 41 -22l54 -88q6 -12 6 -17q0 -7 -5 -11t-14 -4h-20q-16 0 -25 14l-45 73l-44 -73q-11 -14 -26 -14h-19q-9 0 -14 4zM81 20v710q0 22 38 22h11q37 0 37 -22v-268q21 31 52.5 49t69.5 18q55 0 91.5 -38.5t36.5 -117.5
v-353q0 -22 -38 -22h-10q-38 0 -38 22v345q0 44 -18 67.5t-53 23.5q-34 0 -60 -24t-33 -46v-366q0 -22 -38 -22h-10q-38 0 -38 22z" />
    <glyph glyph-name="Hbar" unicode="&#x126;" horiz-adv-x="586" 
d="M549 531v-10q0 -30 -19 -30h-9v-471q0 -22 -38 -22h-14q-38 0 -38 22v301h-263v-301q0 -22 -37 -22h-15q-38 0 -38 22v471h-24q-10 0 -14.5 7t-4.5 23v10q0 16 4.5 23t14.5 7h24v119q0 22 38 22h15q37 0 37 -22v-119h263v119q0 22 38 22h14q38 0 38 -22v-119h9
q19 0 19 -30zM431 491h-263v-94h263v94z" />
    <glyph glyph-name="hbar" unicode="&#x127;" horiz-adv-x="485" 
d="M380.5 490.5q36.5 -38.5 36.5 -117.5v-353q0 -22 -38 -22h-10q-38 0 -38 22v345q0 44 -18 67.5t-53 23.5q-34 0 -60 -24t-33 -46v-366q0 -22 -38 -22h-10q-38 0 -38 22v578h-50q-21 0 -21 30v10q0 30 21 30h50v62q0 22 38 22h11q37 0 37 -22v-62h86q11 0 16 -7t5 -23v-10
q0 -16 -5 -23t-16 -7h-86v-136q21 31 52.5 49t69.5 18q55 0 91.5 -38.5z" />
    <glyph glyph-name="Itilde" unicode="&#x128;" horiz-adv-x="262" 
d="M-6 773q-10 4 -10 12q0 6 3 13q15 37 34.5 53t48.5 16q15 0 29.5 -5t39.5 -16q40 -19 58 -19q12 0 20 5.5t18 20.5q8 15 19 15q5 0 11 -3l7 -3q7 -3 9.5 -5.5t2.5 -6.5q0 -6 -4 -14q-15 -37 -34.5 -52.5t-47.5 -15.5q-16 0 -33 5.5t-40 16.5q-15 7 -30.5 12.5t-26.5 5.5
q-10 0 -18 -6t-18 -21q-8 -14 -17 -14q-3 0 -11 2zM86 20v660q0 22 38 22h15q37 0 37 -22v-660q0 -22 -37 -22h-15q-38 0 -38 22z" />
    <glyph glyph-name="itilde" unicode="&#x129;" horiz-adv-x="228" 
d="M-10 596q-9 5 -9 12q0 6 3 13q13 37 31 53t44 16q13 0 27.5 -5.5t36.5 -15.5q36 -19 52 -19q11 0 18.5 5.5t15.5 20.5t18 15q4 0 10 -3l6 -3q5 -2 8 -5t3 -7q0 -5 -3 -14q-14 -36 -32 -52t-43 -16q-15 0 -30.5 5.5t-36.5 16.5q-14 7 -28 12.5t-23 5.5q-10 0 -17 -6
t-16 -21q-8 -14 -16 -14q-2 0 -10 2zM85 20v483q0 22 40 22h4q40 0 40 -22v-483q0 -22 -40 -22h-4q-40 0 -40 22z" />
    <glyph glyph-name="Imacron" unicode="&#x12a;" horiz-adv-x="262" 
d="M16 819v10q0 30 19 30h199q10 0 14.5 -7t4.5 -23v-10q0 -16 -4.5 -23t-14.5 -7h-199q-19 0 -19 30zM86 20v660q0 22 38 22h15q37 0 37 -22v-660q0 -22 -37 -22h-15q-38 0 -38 22z" />
    <glyph glyph-name="imacron" unicode="&#x12b;" horiz-adv-x="254" 
d="M12 642v10q0 30 19 30h199q10 0 14.5 -7t4.5 -23v-10q0 -16 -4.5 -23t-14.5 -7h-199q-19 0 -19 30zM85 20v483q0 22 40 22h4q40 0 40 -22v-483q0 -22 -40 -22h-4q-40 0 -40 22z" />
    <glyph glyph-name="Ibreve" unicode="&#x12c;" horiz-adv-x="262" 
d="M47.5 792q-33.5 30 -33.5 85q0 15 18 15q7 0 10.5 -3.5t6 -10.5t4.5 -11q15 -39 78 -39t78 39q1 3 4 11t6.5 11t9.5 3q18 0 18 -15q0 -55 -33.5 -85t-82.5 -30q-50 0 -83.5 30zM86 20v660q0 22 38 22h15q37 0 37 -22v-660q0 -22 -37 -22h-15q-38 0 -38 22z" />
    <glyph glyph-name="ibreve" unicode="&#x12d;" horiz-adv-x="254" 
d="M43.5 615q-33.5 30 -33.5 85q0 15 18 15q7 0 10.5 -3.5t6 -10.5t4.5 -11q15 -39 78 -39t78 39q1 3 4 11t6.5 11t9.5 3q18 0 18 -15q0 -55 -33.5 -85t-82.5 -30q-50 0 -83.5 30zM85 20v483q0 22 40 22h4q40 0 40 -22v-483q0 -22 -40 -22h-4q-40 0 -40 22z" />
    <glyph glyph-name="Iogonek" unicode="&#x12e;" horiz-adv-x="262" 
d="M258 -130q0 -18 -13 -27q-28 -19 -66 -19q-54 0 -73 28.5t-19 59.5q0 18 6 41.5t18 45.5q-25 3 -25 21v660q0 22 38 22h15q37 0 37 -22v-660q0 -6 -3 -11q-12 -21 -18.5 -42.5t-6.5 -36.5q0 -43 50 -43q8 0 22 3.5t18 3.5q20 0 20 -24z" />
    <glyph glyph-name="iogonek" unicode="&#x12f;" horiz-adv-x="254" 
d="M83 629v51q0 22 46 22q44 0 44 -22v-51q0 -22 -46 -22q-44 0 -44 22zM243 -135q0 -18 -13 -27q-28 -19 -66 -19q-54 0 -73 28.5t-19 59.5q0 19 7 45t21 49q-15 6 -15 19v483q0 22 40 22h4q40 0 40 -22v-483q0 -12 -12 -18q-12 -20 -18 -40.5t-6 -36.5q0 -43 50 -43
q8 0 22 3.5t18 3.5q20 0 20 -24z" />
    <glyph glyph-name="Idotaccent" unicode="&#x130;" horiz-adv-x="262" 
d="M87 806v51q0 22 46 22q44 0 44 -22v-51q0 -22 -46 -22q-44 0 -44 22zM86 20v660q0 22 38 22h15q37 0 37 -22v-660q0 -22 -37 -22h-15q-38 0 -38 22z" />
    <glyph glyph-name="dotlessi" unicode="&#x131;" horiz-adv-x="254" 
d="M85 20v483q0 22 40 22h4q40 0 40 -22v-483q0 -22 -40 -22h-4q-40 0 -40 22z" />
    <glyph glyph-name="IJ" unicode="&#x132;" horiz-adv-x="617" 
d="M86 20v660q0 22 38 22h15q37 0 37 -22v-660q0 -22 -37 -22h-15q-38 0 -38 22zM300 2.5q-29 8.5 -29 23.5q0 13 7 34t16 21q6 0 23 -4.5t34 -4.5q50 0 72.5 29t22.5 94v485q0 22 38 22h14q39 0 39 -22v-475q0 -99 -42.5 -155t-133.5 -56q-32 0 -61 8.5z" />
    <glyph glyph-name="ij" unicode="&#x133;" horiz-adv-x="503" 
d="M83 629v51q0 22 46 22q44 0 44 -22v-51q0 -22 -46 -22q-44 0 -44 22zM337 629v51q0 22 46 22q44 0 44 -22v-51q0 -22 -46 -22q-44 0 -44 22zM85 20v483q0 22 40 22h4q40 0 40 -22v-483q0 -22 -40 -22h-4q-40 0 -40 22zM244 -182q0 10 6 28.5t15 18.5q4 0 12 -2.5t24 -2.5
q38 0 38 68v575q0 22 40 22h4q40 0 40 -22v-583q0 -74 -33.5 -103t-75.5 -29q-70 0 -70 30z" />
    <glyph glyph-name="Jcircumflex" unicode="&#x134;" horiz-adv-x="355" 
d="M124 757q-5 4 -5 9t7 19l52 88q14 22 42 22h15q27 0 41 -22l54 -88q6 -12 6 -17q0 -7 -5 -11t-14 -4h-20q-16 0 -25 14l-45 73l-44 -73q-11 -14 -26 -14h-19q-9 0 -14 4zM38 2.5q-29 8.5 -29 23.5q0 13 7 34t16 21q6 0 23 -4.5t34 -4.5q50 0 72.5 29t22.5 94v485
q0 22 38 22h14q39 0 39 -22v-475q0 -99 -42.5 -155t-133.5 -56q-32 0 -61 8.5z" />
    <glyph glyph-name="jcircumflex" unicode="&#x135;" horiz-adv-x="249" 
d="M23 580q-5 4 -5 9t7 19l52 88q14 22 42 22h15q27 0 41 -22l54 -88q6 -12 6 -17q0 -7 -5 -11t-14 -4h-20q-16 0 -25 14l-45 73l-44 -73q-11 -14 -26 -14h-19q-9 0 -14 4zM-10 -182q0 10 6 28.5t15 18.5q4 0 12 -2.5t24 -2.5q38 0 38 68v575q0 22 40 22h4q40 0 40 -22v-583
q0 -74 -33.5 -103t-75.5 -29q-70 0 -70 30z" />
    <glyph glyph-name="Kcommaaccent" unicode="&#x136;" horiz-adv-x="510" 
d="M503 12q0 -8 -9 -11t-31 -3h-21q-20 0 -31 2t-17 11l-219 326h-3v-317q0 -22 -39 -22h-13q-38 0 -38 22v660q0 22 38 22h13q39 0 39 -22v-312h3l212 320q9 14 47 14h17q17 0 26 -3.5t9 -9.5q0 -8 -9 -20l-215 -312l234 -329q7 -9 7 -16zM195.5 -231.5q-8.5 3.5 -8.5 11.5
q0 6 3.5 16.5t4.5 14.5q10 26 15.5 50t5.5 56q0 15 9.5 23.5t28.5 8.5h10q17 0 26 -7.5t9 -20.5q0 -45 -14.5 -80.5t-34.5 -55.5t-35 -20q-11 0 -19.5 3.5z" />
    <glyph glyph-name="kcommaaccent" unicode="&#x137;" horiz-adv-x="452" 
d="M427 12q0 -8 -9 -11t-30 -3h-20q-16 0 -22 2t-12 11l-156 247h-6v-238q0 -22 -37 -22h-11q-38 0 -38 22v710q0 22 38 22h11q37 0 37 -22v-447h5l145 228q8 14 43 14h20q16 0 24.5 -3.5t8.5 -9.5q0 -8 -8 -21l-145 -220l155 -243q7 -11 7 -16zM174.5 -231.5
q-8.5 3.5 -8.5 11.5q0 6 3.5 16.5t4.5 14.5q10 26 15.5 50t5.5 56q0 15 9.5 23.5t28.5 8.5h10q17 0 26 -7.5t9 -20.5q0 -45 -14.5 -80.5t-34.5 -55.5t-35 -20q-11 0 -19.5 3.5z" />
    <glyph glyph-name="kgreenlandic" unicode="&#x138;" horiz-adv-x="452" 
d="M86 20v483q0 22 38 22h11q37 0 37 -22v-220h5l145 228q8 14 43 14h14q16 0 24.5 -3.5t8.5 -9.5q0 -9 -10 -25l-143 -215l161 -244q7 -11 7 -16q0 -8 -9 -11t-30 -3h-15q-19 0 -29 2t-15 11l-151 237h-6v-228q0 -22 -37 -22h-11q-38 0 -38 22z" />
    <glyph glyph-name="Lacute" unicode="&#x139;" horiz-adv-x="408" 
d="M84.5 7q-6.5 7 -6.5 23v650q0 22 38 22h14q38 0 38 -22v-604h208q11 0 15.5 -7t4.5 -23v-16q0 -16 -4.5 -23t-15.5 -7h-271q-14 0 -20.5 7zM97 774q0 7 12.5 34t36.5 77q12 26 56 26q22 0 32 -3t10 -10q0 -6 -9 -19l-27 -39l-42 -58q-12 -18 -48 -18q-21 0 -21 10z" />
    <glyph glyph-name="lacute" unicode="&#x13a;" horiz-adv-x="270" 
d="M108.5 20.5q-32.5 26.5 -32.5 94.5v615q0 22 40 22h4q40 0 40 -22v-607q0 -57 37 -57q12 0 20 2.5t12 2.5q9 0 15 -18.5t6 -28.5q0 -15 -22 -22.5t-46 -7.5q-41 0 -73.5 26.5zM91 792q0 7 12.5 34t36.5 77q12 26 56 26q22 0 32 -3t10 -10q0 -6 -9 -19l-27 -39l-42 -58
q-12 -18 -48 -18q-21 0 -21 10z" />
    <glyph glyph-name="Lcommaaccent" unicode="&#x13b;" horiz-adv-x="408" 
d="M84.5 7q-6.5 7 -6.5 23v650q0 22 38 22h14q38 0 38 -22v-604h208q11 0 15.5 -7t4.5 -23v-16q0 -16 -4.5 -23t-15.5 -7h-271q-14 0 -20.5 7zM172.5 -231.5q-8.5 3.5 -8.5 11.5q0 6 3.5 16.5t4.5 14.5q10 26 15.5 50t5.5 56q0 15 9.5 23.5t28.5 8.5h10q17 0 26 -7.5
t9 -20.5q0 -45 -14.5 -80.5t-34.5 -55.5t-35 -20q-11 0 -19.5 3.5z" />
    <glyph glyph-name="lcommaaccent" unicode="&#x13c;" horiz-adv-x="270" 
d="M108.5 20.5q-32.5 26.5 -32.5 94.5v615q0 22 40 22h4q40 0 40 -22v-607q0 -57 37 -57q12 0 20 2.5t12 2.5q9 0 15 -18.5t6 -28.5q0 -15 -22 -22.5t-46 -7.5q-41 0 -73.5 26.5zM91.5 -231.5q-8.5 3.5 -8.5 11.5q0 6 3.5 16.5t4.5 14.5q10 26 15.5 50t5.5 56q0 15 9.5 23.5
t28.5 8.5h10q17 0 26 -7.5t9 -20.5q0 -45 -14.5 -80.5t-34.5 -55.5t-35 -20q-11 0 -19.5 3.5z" />
    <glyph glyph-name="Lcaron" unicode="&#x13d;" horiz-adv-x="408" 
d="M84.5 7q-6.5 7 -6.5 23v650q0 22 38 22h14q38 0 38 -22v-604h208q11 0 15.5 -7t4.5 -23v-16q0 -16 -4.5 -23t-15.5 -7h-271q-14 0 -20.5 7zM255 529.5q-9 3.5 -9 11.5q0 6 4 28q9 50 9 99q0 15 10 23.5t30 8.5h9q19 0 29.5 -7.5t10.5 -20.5q0 -42 -12.5 -75.5t-30 -52
t-30.5 -18.5q-11 0 -20 3.5z" />
    <glyph glyph-name="lcaron" unicode="&#x13e;" horiz-adv-x="270" 
d="M108.5 20.5q-32.5 26.5 -32.5 94.5v615q0 22 40 22h4q40 0 40 -22v-607q0 -57 37 -57q12 0 20 2.5t12 2.5q9 0 15 -18.5t6 -28.5q0 -15 -22 -22.5t-46 -7.5q-41 0 -73.5 26.5zM229 531.5q-9 3.5 -9 11.5q0 6 4 28q9 50 9 99q0 15 10 23.5t30 8.5h9q19 0 29.5 -7.5
t10.5 -20.5q0 -42 -12.5 -75.5t-30 -52t-30.5 -18.5q-11 0 -20 3.5z" />
    <glyph glyph-name="Ldot" unicode="&#x13f;" horiz-adv-x="408" 
d="M84.5 7q-6.5 7 -6.5 23v650q0 22 38 22h14q38 0 38 -22v-604h208q11 0 15.5 -7t4.5 -23v-16q0 -16 -4.5 -23t-15.5 -7h-271q-14 0 -20.5 7zM255 323q-14 14 -14 37q0 24 14 38t35 14q22 0 36 -14t14 -38q0 -23 -14 -37t-36 -14q-21 0 -35 14z" />
    <glyph glyph-name="ldot" unicode="&#x140;" horiz-adv-x="309" 
d="M108.5 20.5q-32.5 26.5 -32.5 94.5v615q0 22 40 22h4q40 0 40 -22v-607q0 -57 37 -57q12 0 20 2.5t12 2.5q9 0 15 -18.5t6 -28.5q0 -15 -22 -22.5t-46 -7.5q-41 0 -73.5 26.5zM230 323q-14 14 -14 37q0 24 14 38t35 14q22 0 36 -14t14 -38q0 -23 -14 -37t-36 -14
q-21 0 -35 14z" />
    <glyph glyph-name="Lslash" unicode="&#x141;" horiz-adv-x="408" 
d="M391.5 69q4.5 -7 4.5 -23v-16q0 -16 -4.5 -23t-15.5 -7h-271q-14 0 -20.5 7t-6.5 23v305l-45 -27q-8 -4 -10 -4q-4 0 -6.5 3.5t-2.5 10.5v6q0 19 19 30l45 27v299q0 22 38 22h14q38 0 38 -22v-246l92 55q8 4 10 4q4 0 6.5 -3.5t2.5 -10.5v-6q0 -19 -19 -30l-92 -55v-312
h208q11 0 15.5 -7z" />
    <glyph glyph-name="lslash" unicode="&#x142;" horiz-adv-x="276" 
d="M250 52.5q6 -18.5 6 -28.5q0 -15 -22 -22.5t-46 -7.5q-41 0 -73.5 26.5t-32.5 94.5v229l-27 -16q-8 -4 -10 -4q-4 0 -6.5 3.5t-2.5 10.5v6q0 19 19 30l27 16v340q0 22 40 22h4q40 0 40 -22v-290l43 25q8 4 10 4q4 0 6.5 -3.5t2.5 -10.5v-6q0 -19 -19 -30l-43 -25v-271
q0 -57 37 -57q12 0 20 2.5t12 2.5q9 0 15 -18.5z" />
    <glyph glyph-name="Nacute" unicode="&#x143;" horiz-adv-x="590" 
d="M267 772q0 7 12.5 34t36.5 77q12 26 56 26q22 0 32 -3t10 -10q0 -6 -9 -19l-27 -39l-42 -58q-12 -18 -48 -18q-21 0 -21 10zM73 20v660q0 22 38 22h24q15 0 24 -4.5t15 -15.5l232 -447q14 -26 26 -63l5 2q-8 35 -8 66v440q0 22 38 22h12q38 0 38 -22v-660q0 -22 -38 -22
h-21q-28 0 -36 15l-238 462q-14 26 -26 63l-5 -2q8 -35 8 -66v-450q0 -22 -38 -22h-12q-38 0 -38 22z" />
    <glyph glyph-name="nacute" unicode="&#x144;" 
d="M216 595q0 7 12.5 34t36.5 77q12 26 56 26q22 0 32 -3t10 -10q0 -6 -9 -19l-27 -39l-42 -58q-12 -18 -48 -18q-21 0 -21 10zM78 20v353q0 65 -5 94t-5 32q0 12 21.5 17.5t36.5 5.5q14 0 19.5 -13t8.5 -30t4 -25q23 35 56 55t70 20q62 0 96 -41.5t34 -114.5v-353
q0 -22 -38 -22h-10q-39 0 -39 22v345q0 44 -18 67.5t-53 23.5q-27 0 -52 -19.5t-40 -50.5v-366q0 -22 -38 -22h-11q-37 0 -37 22z" />
    <glyph glyph-name="Ncommaaccent" unicode="&#x145;" horiz-adv-x="590" 
d="M73 20v660q0 22 38 22h24q15 0 24 -4.5t15 -15.5l232 -447q14 -26 26 -63l5 2q-8 35 -8 66v440q0 22 38 22h12q38 0 38 -22v-660q0 -22 -38 -22h-21q-28 0 -36 15l-238 462q-14 26 -26 63l-5 -2q8 -35 8 -66v-450q0 -22 -38 -22h-12q-38 0 -38 22zM231.5 -231.5
q-8.5 3.5 -8.5 11.5q0 6 3.5 16.5t4.5 14.5q10 26 15.5 50t5.5 56q0 15 9.5 23.5t28.5 8.5h10q17 0 26 -7.5t9 -20.5q0 -45 -14.5 -80.5t-34.5 -55.5t-35 -20q-11 0 -19.5 3.5z" />
    <glyph glyph-name="ncommaaccent" unicode="&#x146;" 
d="M78 20v353q0 65 -5 94t-5 32q0 12 21.5 17.5t36.5 5.5q14 0 19.5 -13t8.5 -30t4 -25q23 35 56 55t70 20q62 0 96 -41.5t34 -114.5v-353q0 -22 -38 -22h-10q-39 0 -39 22v345q0 44 -18 67.5t-53 23.5q-27 0 -52 -19.5t-40 -50.5v-366q0 -22 -38 -22h-11q-37 0 -37 22z
M180.5 -231.5q-8.5 3.5 -8.5 11.5q0 6 3.5 16.5t4.5 14.5q10 26 15.5 50t5.5 56q0 15 9.5 23.5t28.5 8.5h10q17 0 26 -7.5t9 -20.5q0 -45 -14.5 -80.5t-34.5 -55.5t-35 -20q-11 0 -19.5 3.5z" />
    <glyph glyph-name="Ncaron" unicode="&#x147;" horiz-adv-x="590" 
d="M246 782l-52 88q-7 12 -7 18t5 10t14 4h19q15 0 26 -15l44 -72l45 72q9 15 25 15h20q9 0 14 -4t5 -11q0 -5 -6 -17l-54 -88q-13 -22 -41 -22h-15q-29 0 -42 22zM73 20v660q0 22 38 22h24q15 0 24 -4.5t15 -15.5l232 -447q14 -26 26 -63l5 2q-8 35 -8 66v440q0 22 38 22
h12q38 0 38 -22v-660q0 -22 -38 -22h-21q-28 0 -36 15l-238 462q-14 26 -26 63l-5 -2q8 -35 8 -66v-450q0 -22 -38 -22h-12q-38 0 -38 22z" />
    <glyph glyph-name="ncaron" unicode="&#x148;" 
d="M195 605l-52 88q-7 12 -7 18t5 10t14 4h19q16 0 26 -15l44 -72l45 72q9 15 25 15h20q9 0 14 -4t5 -11q0 -5 -6 -17l-54 -88q-13 -22 -41 -22h-15q-29 0 -42 22zM78 20v353q0 65 -5 94t-5 32q0 12 21.5 17.5t36.5 5.5q14 0 19.5 -13t8.5 -30t4 -25q23 35 56 55t70 20
q62 0 96 -41.5t34 -114.5v-353q0 -22 -38 -22h-10q-39 0 -39 22v345q0 44 -18 67.5t-53 23.5q-27 0 -52 -19.5t-40 -50.5v-366q0 -22 -38 -22h-11q-37 0 -37 22z" />
    <glyph glyph-name="napostrophe" unicode="&#x149;" 
d="M0.5 540.5q-8.5 3.5 -8.5 11.5q0 6 3.5 16.5t4.5 14.5q10 26 15.5 50t5.5 56q0 15 9.5 23.5t28.5 8.5h10q17 0 26 -7.5t9 -20.5q0 -45 -14.5 -80.5t-34.5 -55.5t-35 -20q-11 0 -19.5 3.5zM78 20v353q0 65 -5 94t-5 32q0 12 21.5 17.5t36.5 5.5q14 0 19.5 -13t8.5 -30
t4 -25q23 35 56 55t70 20q62 0 96 -41.5t34 -114.5v-353q0 -22 -38 -22h-10q-39 0 -39 22v345q0 44 -18 67.5t-53 23.5q-27 0 -52 -19.5t-40 -50.5v-366q0 -22 -38 -22h-11q-37 0 -37 22z" />
    <glyph glyph-name="Eng" unicode="&#x14a;" horiz-adv-x="590" 
d="M517 680v-760q0 -74 -33.5 -103t-75.5 -29q-70 0 -70 30q0 10 6 28.5t15 18.5q4 0 12 -2.5t24 -2.5q38 0 38 68v63l-249 484q-14 26 -26 63l-5 -2q8 -35 8 -66v-450q0 -22 -38 -22h-12q-38 0 -38 22v660q0 22 38 22h24q15 0 24 -4.5t15 -15.5l232 -447q14 -26 26 -63l5 2
q-8 35 -8 66v440q0 22 38 22h12q38 0 38 -22z" />
    <glyph glyph-name="eng" unicode="&#x14b;" 
d="M233 -182q0 10 6 28.5t15 18.5q4 0 12 -2.5t24 -2.5q37 0 37 68v437q0 44 -18 67.5t-53 23.5q-27 0 -52 -19.5t-40 -50.5v-366q0 -22 -38 -22h-11q-37 0 -37 22v353q0 65 -5 94t-5 32q0 12 21.5 17.5t36.5 5.5q14 0 19.5 -13t8.5 -30t4 -25q23 35 56 55t70 20
q62 0 96 -41.5t34 -114.5v-453q0 -74 -34 -103t-77 -29q-70 0 -70 30z" />
    <glyph glyph-name="Omacron" unicode="&#x14c;" horiz-adv-x="599" 
d="M185 819v10q0 30 19 30h199q10 0 14.5 -7t4.5 -23v-10q0 -16 -4.5 -23t-14.5 -7h-199q-19 0 -19 30zM113 83q-64 89 -64 269q0 354 250 354q251 0 251 -354q0 -180 -64 -269t-187 -89q-122 0 -186 89zM458 352q0 278 -158 278q-79 0 -118.5 -67.5t-39.5 -210.5
q0 -282 158 -282t158 282z" />
    <glyph glyph-name="omacron" unicode="&#x14d;" horiz-adv-x="477" 
d="M124 642v10q0 30 19 30h199q10 0 14.5 -7t4.5 -23v-10q0 -16 -4.5 -23t-14.5 -7h-199q-19 0 -19 30zM96.5 62q-49.5 68 -49.5 197q0 130 49.5 200t143.5 70q93 0 141.5 -69.5t48.5 -200.5q0 -130 -48 -197.5t-142 -67.5t-143.5 68zM316.5 113.5q25.5 47.5 25.5 147.5
t-25.5 148t-78.5 48t-77.5 -47.5t-24.5 -148.5q0 -100 24.5 -147.5t77.5 -47.5t78.5 47.5z" />
    <glyph glyph-name="Obreve" unicode="&#x14e;" horiz-adv-x="599" 
d="M216.5 792q-33.5 30 -33.5 85q0 15 18 15q7 0 10.5 -3.5t6 -10.5t4.5 -11q15 -39 78 -39t78 39q1 3 4 11t6.5 11t9.5 3q18 0 18 -15q0 -55 -33.5 -85t-82.5 -30q-50 0 -83.5 30zM113 83q-64 89 -64 269q0 354 250 354q251 0 251 -354q0 -180 -64 -269t-187 -89
q-122 0 -186 89zM458 352q0 278 -158 278q-79 0 -118.5 -67.5t-39.5 -210.5q0 -282 158 -282t158 282z" />
    <glyph glyph-name="obreve" unicode="&#x14f;" horiz-adv-x="477" 
d="M155.5 615q-33.5 30 -33.5 85q0 15 18 15q7 0 10.5 -3.5t6 -10.5t4.5 -11q15 -39 78 -39t78 39q1 3 4 11t6.5 11t9.5 3q18 0 18 -15q0 -55 -33.5 -85t-82.5 -30q-50 0 -83.5 30zM96.5 62q-49.5 68 -49.5 197q0 130 49.5 200t143.5 70q93 0 141.5 -69.5t48.5 -200.5
q0 -130 -48 -197.5t-142 -67.5t-143.5 68zM316.5 113.5q25.5 47.5 25.5 147.5t-25.5 148t-78.5 48t-77.5 -47.5t-24.5 -148.5q0 -100 24.5 -147.5t77.5 -47.5t78.5 47.5z" />
    <glyph glyph-name="Ohungarumlaut" unicode="&#x150;" horiz-adv-x="599" 
d="M192 772q0 5 6 18t16 35l27 58q12 26 56 26q22 0 32 -3t10 -10q0 -6 -9.5 -20.5t-31.5 -44.5l-37 -51q-13 -18 -48 -18q-21 0 -21 10zM320 772q0 5 6 18t16 35l27 58q12 26 56 26q22 0 32 -3t10 -10q0 -9 -13 -28.5t-65 -87.5q-13 -18 -48 -18q-21 0 -21 10zM113 83
q-64 89 -64 269q0 354 250 354q251 0 251 -354q0 -180 -64 -269t-187 -89q-122 0 -186 89zM458 352q0 278 -158 278q-79 0 -118.5 -67.5t-39.5 -210.5q0 -282 158 -282t158 282z" />
    <glyph glyph-name="ohungarumlaut" unicode="&#x151;" horiz-adv-x="477" 
d="M131 595q0 5 6 18t16 35l27 58q12 26 56 26q22 0 32 -3t10 -10q0 -6 -9.5 -20.5t-31.5 -44.5l-37 -51q-14 -18 -48 -18q-21 0 -21 10zM259 595q0 5 6 18t16 35l27 58q12 26 56 26q22 0 32 -3t10 -10q0 -9 -13 -28.5t-65 -87.5q-13 -18 -48 -18q-21 0 -21 10zM96.5 62
q-49.5 68 -49.5 197q0 130 49.5 200t143.5 70q93 0 141.5 -69.5t48.5 -200.5q0 -130 -48 -197.5t-142 -67.5t-143.5 68zM316.5 113.5q25.5 47.5 25.5 147.5t-25.5 148t-78.5 48t-77.5 -47.5t-24.5 -148.5q0 -100 24.5 -147.5t77.5 -47.5t78.5 47.5z" />
    <glyph glyph-name="OE" unicode="&#x152;" horiz-adv-x="831" 
d="M786 46v-16q0 -30 -19 -30h-287q-14 0 -20.5 7t-6.5 23v40q-31 -39 -71.5 -57.5t-93.5 -18.5q-114 0 -176.5 88t-62.5 271q0 353 242 353q52 0 92 -17.5t70 -56.5v38q0 16 6.5 23t20.5 7h286q19 0 19 -30v-16q0 -30 -19 -30h-223v-228h200q19 0 19 -30v-16q0 -30 -19 -30
h-200v-244h224q19 0 19 -30zM412 139q40 69 40 213q0 147 -39.5 212.5t-118.5 65.5q-76 0 -114 -65.5t-38 -212.5q0 -144 38.5 -213t113.5 -69q78 0 118 69z" />
    <glyph glyph-name="oe" unicode="&#x153;" horiz-adv-x="721" 
d="M661.5 88q12.5 -20 12.5 -30q0 -12 -20.5 -27.5t-55.5 -26t-75 -10.5q-101 0 -153 59q-45 -59 -130 -59q-193 0 -193 265q0 132 48 201t145 69q83 0 130 -61q50 61 141 61q87 0 131 -66.5t44 -194.5q0 -9 -12 -25t-21 -16h-249q5 -85 32 -123t86 -38q36 0 60 10t39 21
t18 11q10 0 22.5 -20zM330 130q-16 51 -16 128q0 76 17 133q-25 66 -92 66q-54 0 -78.5 -47.5t-24.5 -148.5q0 -100 24.5 -147.5t78.5 -47.5q66 0 91 64zM404 299h193q0 158 -89 158q-96 0 -104 -158z" />
    <glyph glyph-name="Racute" unicode="&#x154;" horiz-adv-x="513" 
d="M226 772q0 7 12.5 34t36.5 77q12 26 56 26q22 0 32 -3t10 -10q0 -6 -9 -19l-27 -39l-42 -58q-12 -18 -48 -18q-21 0 -21 10zM77 20v650q0 16 6.5 23t20.5 7h148q99 0 147 -42t48 -135q0 -62 -24.5 -104.5t-67.5 -64.5v-4q20 -10 35 -39t34 -86l63 -197q3 -9 3 -14
q0 -16 -39 -16h-17q-14 0 -24.5 4.5t-12.5 11.5l-60 196q-18 57 -40.5 77.5t-66.5 20.5h-63v-288q0 -22 -38 -22h-14q-38 0 -38 22zM267 384q36 0 61.5 36.5t25.5 86.5q0 59 -24.5 88t-68.5 29h-95v-240h101z" />
    <glyph glyph-name="racute" unicode="&#x155;" horiz-adv-x="337" 
d="M83 20v353q0 66 -6 94.5t-6 31.5q0 12 19 17.5t35 5.5q14 0 20.5 -15t10 -31.5t4.5 -21.5q48 75 105 75q25 0 38.5 -11t13.5 -28t-6 -35.5t-14 -18.5q-5 0 -18 5.5t-31 5.5q-26 0 -49.5 -21.5t-31.5 -39.5v-366q0 -22 -40 -22h-4q-40 0 -40 22zM143 592q0 7 12.5 34
t36.5 77q12 26 56 26q22 0 32 -3t10 -10q0 -6 -9 -19l-27 -39l-42 -58q-12 -18 -48 -18q-21 0 -21 10z" />
    <glyph glyph-name="Rcommaaccent" unicode="&#x156;" horiz-adv-x="513" 
d="M77 20v650q0 16 6.5 23t20.5 7h148q99 0 147 -42t48 -135q0 -62 -24.5 -104.5t-67.5 -64.5v-4q20 -10 35 -39t34 -86l63 -197q3 -9 3 -14q0 -16 -39 -16h-17q-14 0 -24.5 4.5t-12.5 11.5l-60 196q-18 57 -40.5 77.5t-66.5 20.5h-63v-288q0 -22 -38 -22h-14q-38 0 -38 22z
M267 384q36 0 61.5 36.5t25.5 86.5q0 59 -24.5 88t-68.5 29h-95v-240h101zM190.5 -231.5q-8.5 3.5 -8.5 11.5q0 6 3.5 16.5t4.5 14.5q10 26 15.5 50t5.5 56q0 15 9.5 23.5t28.5 8.5h10q17 0 26 -7.5t9 -20.5q0 -45 -14.5 -80.5t-34.5 -55.5t-35 -20q-11 0 -19.5 3.5z" />
    <glyph glyph-name="rcommaaccent" unicode="&#x157;" horiz-adv-x="337" 
d="M83 20v353q0 66 -6 94.5t-6 31.5q0 12 19 17.5t35 5.5q14 0 20.5 -15t10 -31.5t4.5 -21.5q48 75 105 75q25 0 38.5 -11t13.5 -28t-6 -35.5t-14 -18.5q-5 0 -18 5.5t-31 5.5q-26 0 -49.5 -21.5t-31.5 -39.5v-366q0 -22 -40 -22h-4q-40 0 -40 22zM62.5 -233.5
q-8.5 3.5 -8.5 11.5q0 6 3.5 16.5t4.5 14.5q10 26 15.5 50t5.5 56q0 15 9.5 23.5t28.5 8.5h10q17 0 26 -7.5t9 -20.5q0 -45 -14.5 -80.5t-34.5 -55.5t-35 -20q-11 0 -19.5 3.5z" />
    <glyph glyph-name="Rcaron" unicode="&#x158;" horiz-adv-x="513" 
d="M205 782l-52 88q-7 12 -7 18t5 10t14 4h19q16 0 26 -15l44 -72l45 72q9 15 25 15h20q9 0 14 -4t5 -11q0 -5 -6 -17l-54 -88q-13 -22 -41 -22h-15q-29 0 -42 22zM77 20v650q0 16 6.5 23t20.5 7h148q99 0 147 -42t48 -135q0 -62 -24.5 -104.5t-67.5 -64.5v-4q20 -10 35 -39
t34 -86l63 -197q3 -9 3 -14q0 -16 -39 -16h-17q-14 0 -24.5 4.5t-12.5 11.5l-60 196q-18 57 -40.5 77.5t-66.5 20.5h-63v-288q0 -22 -38 -22h-14q-38 0 -38 22zM267 384q36 0 61.5 36.5t25.5 86.5q0 59 -24.5 88t-68.5 29h-95v-240h101z" />
    <glyph glyph-name="rcaron" unicode="&#x159;" horiz-adv-x="337" 
d="M83 20v353q0 66 -6 94.5t-6 31.5q0 12 19 17.5t35 5.5q14 0 20.5 -15t10 -31.5t4.5 -21.5q48 75 105 75q25 0 38.5 -11t13.5 -28t-6 -35.5t-14 -18.5q-5 0 -18 5.5t-31 5.5q-26 0 -49.5 -21.5t-31.5 -39.5v-366q0 -22 -40 -22h-4q-40 0 -40 22zM122 602l-52 88
q-7 12 -7 18t5 10t14 4h19q16 0 26 -15l44 -72l45 72q9 15 25 15h20q9 0 14 -4t5 -11q0 -5 -6 -17l-54 -88q-13 -22 -41 -22h-15q-29 0 -42 22z" />
    <glyph glyph-name="Sacute" unicode="&#x15a;" horiz-adv-x="437" 
d="M213 772q0 7 12.5 34t36.5 77q12 26 56 26q22 0 32 -3t10 -10q0 -6 -9 -19l-27 -39l-42 -58q-12 -18 -48 -18q-21 0 -21 10zM43 41q-6 4 -8.5 8.5t-2.5 14.5q0 18 6.5 37.5t16.5 19.5q4 0 6 -2t3 -2q55 -43 139 -43q51 0 83.5 30.5t32.5 82.5q0 47 -26 73.5t-77 52.5
q-57 28 -90.5 51t-56 59.5t-22.5 91.5q0 91 57.5 143.5t149.5 52.5q71 0 122 -30q7 -4 7 -12q0 -13 -9.5 -37t-18.5 -24q-3 0 -13 5q-38 19 -93 19q-48 0 -81 -27.5t-33 -79.5q0 -45 27.5 -72.5t89.5 -59.5q51 -26 82.5 -48.5t52.5 -59t21 -91.5q0 -94 -58 -146.5
t-150 -52.5q-93 0 -157 46z" />
    <glyph glyph-name="sacute" unicode="&#x15b;" horiz-adv-x="353" 
d="M97.5 1.5q-31.5 10.5 -50 25.5t-18.5 26t13 31t21 20q2 0 17.5 -11t35.5 -19.5t45 -8.5q37 0 56.5 18.5t19.5 54.5q0 35 -21.5 59t-66.5 46q-55 25 -81.5 58t-26.5 87q0 63 41.5 102.5t105.5 39.5q41 0 76 -13t35 -30q0 -12 -11.5 -33t-19.5 -21q-2 0 -23.5 12.5
t-51.5 12.5q-29 0 -48.5 -16t-19.5 -45q0 -34 19.5 -56.5t55.5 -40.5q61 -28 90 -64t29 -96q0 -67 -44 -108t-110 -41q-36 0 -67.5 10.5zM152 595q0 7 12.5 34t36.5 77q12 26 56 26q22 0 32 -3t10 -10q0 -6 -9 -19l-27 -39l-42 -58q-12 -18 -48 -18q-21 0 -21 10z" />
    <glyph glyph-name="Scircumflex" unicode="&#x15c;" horiz-adv-x="437" 
d="M137 757q-5 4 -5 9t7 19l52 88q14 22 42 22h15q27 0 41 -22l54 -88q6 -12 6 -17q0 -7 -5 -11t-14 -4h-20q-16 0 -25 14l-45 73l-44 -73q-11 -14 -26 -14h-19q-9 0 -14 4zM43 41q-6 4 -8.5 8.5t-2.5 14.5q0 18 6.5 37.5t16.5 19.5q4 0 6 -2t3 -2q55 -43 139 -43
q51 0 83.5 30.5t32.5 82.5q0 47 -26 73.5t-77 52.5q-57 28 -90.5 51t-56 59.5t-22.5 91.5q0 91 57.5 143.5t149.5 52.5q71 0 122 -30q7 -4 7 -12q0 -13 -9.5 -37t-18.5 -24q-3 0 -13 5q-38 19 -93 19q-48 0 -81 -27.5t-33 -79.5q0 -45 27.5 -72.5t89.5 -59.5
q51 -26 82.5 -48.5t52.5 -59t21 -91.5q0 -94 -58 -146.5t-150 -52.5q-93 0 -157 46z" />
    <glyph glyph-name="scircumflex" unicode="&#x15d;" horiz-adv-x="353" 
d="M76 580q-5 4 -5 9t7 19l52 88q14 22 42 22h15q27 0 41 -22l54 -88q6 -12 6 -17q0 -7 -5 -11t-14 -4h-20q-16 0 -25 14l-45 73l-44 -73q-11 -14 -26 -14h-19q-9 0 -14 4zM97.5 1.5q-31.5 10.5 -50 25.5t-18.5 26t13 31t21 20q2 0 17.5 -11t35.5 -19.5t45 -8.5
q37 0 56.5 18.5t19.5 54.5q0 35 -21.5 59t-66.5 46q-55 25 -81.5 58t-26.5 87q0 63 41.5 102.5t105.5 39.5q41 0 76 -13t35 -30q0 -12 -11.5 -33t-19.5 -21q-2 0 -23.5 12.5t-51.5 12.5q-29 0 -48.5 -16t-19.5 -45q0 -34 19.5 -56.5t55.5 -40.5q61 -28 90 -64t29 -96
q0 -67 -44 -108t-110 -41q-36 0 -67.5 10.5z" />
    <glyph glyph-name="Scedilla" unicode="&#x15e;" horiz-adv-x="437" 
d="M363 61q-45 -51 -121 -63l-16 -58q27 0 50.5 -14.5t23.5 -52.5q0 -83 -96 -83q-32 0 -63 12t-31 31q0 9 6 17.5t13 8.5t23 -7q26 -13 46 -13q14 0 25 7.5t11 21.5q0 15 -8.5 22t-24.5 12q-11 4 -16.5 8t-5.5 11t4.5 23t16.5 51q-93 0 -157 46q-6 4 -8.5 8.5t-2.5 14.5
q0 18 6.5 37.5t16.5 19.5q4 0 6 -2t3 -2q55 -43 139 -43q51 0 83.5 30.5t32.5 82.5q0 47 -26 73.5t-77 52.5q-57 28 -90.5 51t-56 59.5t-22.5 91.5q0 91 57.5 143.5t149.5 52.5q71 0 122 -30q7 -4 7 -12q0 -13 -9.5 -37t-18.5 -24q-3 0 -13 5q-38 19 -93 19q-48 0 -81 -27.5
t-33 -79.5q0 -45 27.5 -72.5t89.5 -59.5q51 -26 82.5 -48.5t52.5 -59t21 -91.5q0 -82 -45 -133z" />
    <glyph glyph-name="scedilla" unicode="&#x15f;" horiz-adv-x="353" 
d="M285.5 43q-33.5 -39 -87.5 -49l-15 -54q27 0 50.5 -14.5t23.5 -52.5q0 -83 -96 -83q-32 0 -63 12t-31 31q0 9 6 17.5t13 8.5t23 -7q26 -13 46 -13q14 0 25 7.5t11 21.5q0 15 -8.5 22t-24.5 12q-11 4 -16.5 8t-5.5 11t4.5 22t15.5 48q-34 1 -63.5 12t-46.5 25t-17 25
t13 31t21 20q2 0 17.5 -11t35.5 -19.5t45 -8.5q37 0 56.5 18.5t19.5 54.5q0 35 -21.5 59t-66.5 46q-55 25 -81.5 58t-26.5 87q0 63 41.5 102.5t105.5 39.5q41 0 76 -13t35 -30q0 -12 -11.5 -33t-19.5 -21q-2 0 -23.5 12.5t-51.5 12.5q-29 0 -48.5 -16t-19.5 -45
q0 -34 19.5 -56.5t55.5 -40.5q61 -28 90 -64t29 -96q0 -58 -33.5 -97z" />
    <glyph glyph-name="Scaron" unicode="&#x160;" horiz-adv-x="437" 
d="M192 782l-52 88q-7 12 -7 18t5 10t14 4h19q16 0 26 -15l44 -72l45 72q9 15 25 15h20q9 0 14 -4t5 -11q0 -5 -6 -17l-54 -88q-13 -22 -41 -22h-15q-29 0 -42 22zM43 41q-6 4 -8.5 8.5t-2.5 14.5q0 18 6.5 37.5t16.5 19.5q4 0 6 -2t3 -2q55 -43 139 -43q51 0 83.5 30.5
t32.5 82.5q0 47 -26 73.5t-77 52.5q-57 28 -90.5 51t-56 59.5t-22.5 91.5q0 91 57.5 143.5t149.5 52.5q71 0 122 -30q7 -4 7 -12q0 -13 -9.5 -37t-18.5 -24q-3 0 -13 5q-38 19 -93 19q-48 0 -81 -27.5t-33 -79.5q0 -45 27.5 -72.5t89.5 -59.5q51 -26 82.5 -48.5t52.5 -59
t21 -91.5q0 -94 -58 -146.5t-150 -52.5q-93 0 -157 46z" />
    <glyph glyph-name="scaron" unicode="&#x161;" horiz-adv-x="353" 
d="M131 605l-52 88q-7 12 -7 18t5 10t14 4h19q15 0 26 -15l44 -72l45 72q9 15 25 15h20q9 0 14 -4t5 -11q0 -5 -6 -17l-54 -88q-13 -22 -41 -22h-15q-29 0 -42 22zM97.5 1.5q-31.5 10.5 -50 25.5t-18.5 26t13 31t21 20q2 0 17.5 -11t35.5 -19.5t45 -8.5q37 0 56.5 18.5
t19.5 54.5q0 35 -21.5 59t-66.5 46q-55 25 -81.5 58t-26.5 87q0 63 41.5 102.5t105.5 39.5q41 0 76 -13t35 -30q0 -12 -11.5 -33t-19.5 -21q-2 0 -23.5 12.5t-51.5 12.5q-29 0 -48.5 -16t-19.5 -45q0 -34 19.5 -56.5t55.5 -40.5q61 -28 90 -64t29 -96q0 -67 -44 -108
t-110 -41q-36 0 -67.5 10.5z" />
    <glyph glyph-name="uni0162" unicode="&#x162;" horiz-adv-x="454" 
d="M430.5 693q4.5 -7 4.5 -23v-16q0 -16 -4.5 -23t-15.5 -7h-142v-604q0 -17 -23 -21l-17 -59q27 0 50.5 -14.5t23.5 -52.5q0 -83 -96 -83q-32 0 -63 12t-31 31q0 9 6 17.5t13 8.5t23 -7q26 -13 46 -13q14 0 25 7.5t11 21.5q0 15 -8.5 22t-24.5 12q-11 4 -16.5 8t-5.5 11
t5 23.5t18 54.5q-26 3 -26 21v604h-144q-19 0 -19 30v16q0 30 19 30h376q11 0 15.5 -7z" />
    <glyph glyph-name="uni0163" unicode="&#x163;" horiz-adv-x="298" 
d="M249 0q-20 -6 -45 -6l-15 -54q27 0 50.5 -14.5t23.5 -52.5q0 -83 -96 -83q-32 0 -63 12t-31 31q0 9 6 17.5t13 8.5t23 -7q26 -13 46 -13q14 0 25 7.5t11 21.5q0 15 -8.5 22t-24.5 12q-11 4 -16.5 8t-5.5 11t5 23.5t18 54.5q-74 21 -74 116v336h-33q-10 0 -15 7t-5 23v12
q0 16 5 23t15 7h33l12 105q2 22 32 22h10q30 0 30 -22v-105h66q11 0 15.5 -7t4.5 -23v-12q0 -16 -4.5 -23t-15.5 -7h-66v-322q0 -36 10 -49.5t29 -13.5q13 0 22 2.5t12 2.5q9 0 15 -18t6 -30q0 -17 -20 -23z" />
    <glyph glyph-name="Tcaron" unicode="&#x164;" horiz-adv-x="454" 
d="M178 782l-52 88q-7 12 -7 18t5 10t14 4h19q16 0 26 -15l44 -72l45 72q9 15 25 15h20q9 0 14 -4t5 -11q0 -5 -6 -17l-54 -88q-13 -22 -41 -22h-15q-29 0 -42 22zM183 20v604h-144q-19 0 -19 30v16q0 30 19 30h376q11 0 15.5 -7t4.5 -23v-16q0 -16 -4.5 -23t-15.5 -7h-142
v-604q0 -22 -38 -22h-14q-38 0 -38 22z" />
    <glyph glyph-name="tcaron" unicode="&#x165;" horiz-adv-x="298" 
d="M125 20.5q-34 26.5 -34 94.5v336h-33q-10 0 -15 7t-5 23v12q0 16 5 23t15 7h33l12 105q2 22 32 22h10q30 0 30 -22v-105h66q11 0 15.5 -7t4.5 -23v-12q0 -16 -4.5 -23t-15.5 -7h-66v-322q0 -36 10 -49.5t29 -13.5q13 0 22 2.5t12 2.5q9 0 15 -18t6 -30q0 -16 -20.5 -22.5
t-45.5 -6.5q-44 0 -78 26.5zM223 581.5q-9 3.5 -9 11.5q0 6 4 28q9 50 9 99q0 15 10 23.5t30 8.5h9q19 0 29.5 -7.5t10.5 -20.5q0 -42 -12.5 -75.5t-30 -52t-30.5 -18.5q-11 0 -20 3.5z" />
    <glyph glyph-name="Tbar" unicode="&#x166;" horiz-adv-x="439" 
d="M430.5 693q4.5 -7 4.5 -23v-16q0 -16 -4.5 -23t-15.5 -7h-142v-236h92q10 0 14.5 -7t4.5 -23v-10q0 -16 -4.5 -23t-14.5 -7h-92v-298q0 -22 -38 -22h-14q-38 0 -38 22v298h-106q-19 0 -19 30v10q0 30 19 30h106v236h-144q-19 0 -19 30v16q0 30 19 30h376q11 0 15.5 -7z
" />
    <glyph glyph-name="tbar" unicode="&#x167;" horiz-adv-x="284" 
d="M175 260v-131q0 -36 10 -49.5t29 -13.5q13 0 22 2.5t12 2.5q9 0 15 -18t6 -30q0 -16 -20.5 -22.5t-45.5 -6.5q-44 0 -78 26.5t-34 94.5v145h-52q-21 0 -21 30v10q0 30 21 30h52v121h-33q-10 0 -15 7t-5 23v12q0 16 5 23t15 7h33l12 105q2 22 32 22h10q30 0 30 -22v-105
h66q11 0 15.5 -7t4.5 -23v-12q0 -16 -4.5 -23t-15.5 -7h-66v-121h74q11 0 15.5 -7t4.5 -23v-10q0 -16 -4.5 -23t-15.5 -7h-74z" />
    <glyph glyph-name="Utilde" unicode="&#x168;" horiz-adv-x="583" 
d="M155 773q-10 4 -10 12q0 6 3 13q15 37 34.5 53t48.5 16q15 0 29.5 -5t39.5 -16q40 -19 58 -19q11 0 19.5 5.5t18.5 20.5q8 15 19 15q5 0 11 -3l7 -3q7 -3 9.5 -5.5t2.5 -6.5q0 -6 -4 -14q-15 -37 -34.5 -52.5t-47.5 -15.5q-16 0 -33 5.5t-40 16.5q-15 7 -30.5 12.5
t-26.5 5.5q-10 0 -18 -6t-18 -21q-8 -14 -17 -14q-3 0 -11 2zM126.5 47q-58.5 53 -58.5 148v485q0 22 38 22h14q38 0 38 -22v-488q0 -54 37.5 -88t96.5 -34q58 0 95.5 34.5t37.5 87.5v488q0 22 38 22h14q38 0 38 -22v-485q0 -95 -58 -148t-165 -53t-165.5 53z" />
    <glyph glyph-name="utilde" unicode="&#x169;" 
d="M102 596q-10 4 -10 12q0 6 3 13q15 37 34.5 53t48.5 16q15 0 29.5 -5t39.5 -16q40 -19 58 -19q12 0 20 5.5t18 20.5q8 15 19 15q5 0 11 -3l7 -3q7 -3 9.5 -5.5t2.5 -6.5q0 -6 -4 -14q-15 -37 -34.5 -52.5t-47.5 -15.5q-16 0 -33 5.5t-40 16.5q-15 7 -30.5 12.5t-26.5 5.5
q-10 0 -18 -6t-18 -21q-8 -14 -17 -14q-3 0 -11 2zM102 31.5q-34 38.5 -34 106.5v364q0 22 38 22h10q38 0 38 -22v-351q0 -41 18 -63t53 -22q28 0 52.5 19t40.5 51v366q0 22 38 22h10q38 0 38 -22v-353q0 -65 5 -94.5t5 -32.5q0 -12 -21 -17t-37 -5q-14 0 -19.5 13t-8.5 30
t-4 25q-23 -35 -56 -55t-70 -20q-62 0 -96 38.5z" />
    <glyph glyph-name="Umacron" unicode="&#x16a;" horiz-adv-x="583" 
d="M177 819v10q0 30 19 30h199q10 0 14.5 -7t4.5 -23v-10q0 -16 -4.5 -23t-14.5 -7h-199q-19 0 -19 30zM126.5 47q-58.5 53 -58.5 148v485q0 22 38 22h14q38 0 38 -22v-488q0 -54 37.5 -88t96.5 -34q58 0 95.5 34.5t37.5 87.5v488q0 22 38 22h14q38 0 38 -22v-485
q0 -95 -58 -148t-165 -53t-165.5 53z" />
    <glyph glyph-name="umacron" unicode="&#x16b;" 
d="M124 642v10q0 30 19 30h199q10 0 14.5 -7t4.5 -23v-10q0 -16 -4.5 -23t-14.5 -7h-199q-19 0 -19 30zM102 31.5q-34 38.5 -34 106.5v364q0 22 38 22h10q38 0 38 -22v-351q0 -41 18 -63t53 -22q28 0 52.5 19t40.5 51v366q0 22 38 22h10q38 0 38 -22v-353q0 -65 5 -94.5
t5 -32.5q0 -12 -21 -17t-37 -5q-14 0 -19.5 13t-8.5 30t-4 25q-23 -35 -56 -55t-70 -20q-62 0 -96 38.5z" />
    <glyph glyph-name="Ubreve" unicode="&#x16c;" horiz-adv-x="583" 
d="M208.5 792q-33.5 30 -33.5 85q0 15 18 15q7 0 10.5 -3.5t6 -10.5t4.5 -11q15 -39 78 -39t78 39q1 3 4 11t6.5 11t9.5 3q18 0 18 -15q0 -55 -33.5 -85t-82.5 -30q-50 0 -83.5 30zM126.5 47q-58.5 53 -58.5 148v485q0 22 38 22h14q38 0 38 -22v-488q0 -54 37.5 -88
t96.5 -34q58 0 95.5 34.5t37.5 87.5v488q0 22 38 22h14q38 0 38 -22v-485q0 -95 -58 -148t-165 -53t-165.5 53z" />
    <glyph glyph-name="ubreve" unicode="&#x16d;" 
d="M155.5 615q-33.5 30 -33.5 85q0 15 18 15q7 0 10.5 -3.5t6 -10.5t4.5 -11q15 -39 78 -39t78 39q1 3 4 11t6.5 11t9.5 3q18 0 18 -15q0 -55 -33.5 -85t-82.5 -30q-50 0 -83.5 30zM102 31.5q-34 38.5 -34 106.5v364q0 22 38 22h10q38 0 38 -22v-351q0 -41 18 -63t53 -22
q28 0 52.5 19t40.5 51v366q0 22 38 22h10q38 0 38 -22v-353q0 -65 5 -94.5t5 -32.5q0 -12 -21 -17t-37 -5q-14 0 -19.5 13t-8.5 30t-4 25q-23 -35 -56 -55t-70 -20q-62 0 -96 38.5z" />
    <glyph glyph-name="Uring" unicode="&#x16e;" horiz-adv-x="583" 
d="M230 764q-23 23 -23 61t23 61.5t60 23.5q38 0 61 -23.5t23 -61.5t-23 -61t-61 -23q-37 0 -60 23zM324.5 789q12.5 13 12.5 36t-12.5 36.5t-34.5 13.5t-34 -13t-13 -37q1 -24 13 -36.5t34 -12.5t34.5 13zM126.5 47q-58.5 53 -58.5 148v485q0 22 38 22h14q38 0 38 -22v-488
q0 -54 37.5 -88t96.5 -34q58 0 95.5 34.5t37.5 87.5v488q0 22 38 22h14q38 0 38 -22v-485q0 -95 -58 -148t-165 -53t-165.5 53z" />
    <glyph glyph-name="uring" unicode="&#x16f;" 
d="M177 587q-23 23 -23 61t23 61.5t60 23.5q38 0 61 -23.5t23 -61.5t-23 -61t-61 -23q-37 0 -60 23zM271.5 612q12.5 13 12.5 36t-12.5 36.5t-34.5 13.5t-34 -13t-13 -37q1 -24 13 -36.5t34 -12.5t34.5 13zM102 31.5q-34 38.5 -34 106.5v364q0 22 38 22h10q38 0 38 -22v-351
q0 -41 18 -63t53 -22q28 0 52.5 19t40.5 51v366q0 22 38 22h10q38 0 38 -22v-353q0 -65 5 -94.5t5 -32.5q0 -12 -21 -17t-37 -5q-14 0 -19.5 13t-8.5 30t-4 25q-23 -35 -56 -55t-70 -20q-62 0 -96 38.5z" />
    <glyph glyph-name="Uhungarumlaut" unicode="&#x170;" horiz-adv-x="583" 
d="M184 772q0 5 6 18t16 35l27 58q12 26 56 26q22 0 32 -3t10 -10q0 -6 -9.5 -20.5t-31.5 -44.5l-37 -51q-13 -18 -48 -18q-21 0 -21 10zM312 772q0 5 6 18t16 35l27 58q12 26 56 26q22 0 32 -3t10 -10q0 -9 -13 -28.5t-65 -87.5q-13 -18 -48 -18q-21 0 -21 10zM126.5 47
q-58.5 53 -58.5 148v485q0 22 38 22h14q38 0 38 -22v-488q0 -54 37.5 -88t96.5 -34q58 0 95.5 34.5t37.5 87.5v488q0 22 38 22h14q38 0 38 -22v-485q0 -95 -58 -148t-165 -53t-165.5 53z" />
    <glyph glyph-name="uhungarumlaut" unicode="&#x171;" 
d="M131 595q0 5 6 18t16 35l27 58q12 26 56 26q22 0 32 -3t10 -10q0 -6 -9.5 -20.5t-31.5 -44.5l-37 -51q-14 -18 -48 -18q-21 0 -21 10zM259 595q0 5 6 18t16 35l27 58q12 26 56 26q22 0 32 -3t10 -10q0 -9 -13 -28.5t-65 -87.5q-13 -18 -48 -18q-21 0 -21 10zM102 31.5
q-34 38.5 -34 106.5v364q0 22 38 22h10q38 0 38 -22v-351q0 -41 18 -63t53 -22q28 0 52.5 19t40.5 51v366q0 22 38 22h10q38 0 38 -22v-353q0 -65 5 -94.5t5 -32.5q0 -12 -21 -17t-37 -5q-14 0 -19.5 13t-8.5 30t-4 25q-23 -35 -56 -55t-70 -20q-62 0 -96 38.5z" />
    <glyph glyph-name="Uogonek" unicode="&#x172;" horiz-adv-x="583" 
d="M490 88.5q-25 -44.5 -73 -68.5q-12 -21 -18.5 -42.5t-6.5 -36.5q0 -43 50 -43q8 0 22 3.5t18 3.5q20 0 20 -24q0 -18 -13 -27q-28 -19 -66 -19q-54 0 -73 28.5t-19 59.5q0 36 18 76q-30 -5 -57 -5q-107 0 -165.5 53t-58.5 148v485q0 22 38 22h14q38 0 38 -22v-488
q0 -54 37.5 -88t96.5 -34q58 0 95.5 34.5t37.5 87.5v488q0 22 38 22h14q38 0 38 -22v-485q0 -62 -25 -106.5z" />
    <glyph glyph-name="uogonek" unicode="&#x173;" 
d="M497 -118q0 -18 -13 -27q-28 -19 -66 -19q-54 0 -73 28.5t-19 59.5q0 39 20 79q-8 4 -12 16.5t-6.5 27t-3.5 21.5q-23 -35 -56 -55t-70 -20q-62 0 -96 38.5t-34 106.5v364q0 22 38 22h10q38 0 38 -22v-351q0 -41 18 -63t53 -22q28 0 52.5 19t40.5 51v366q0 22 38 22h10
q38 0 38 -22v-353q0 -65 5 -94.5t5 -32.5q0 -6 -8 -11q-19 -38 -19 -69q0 -43 50 -43q8 0 22 3.5t18 3.5q20 0 20 -24z" />
    <glyph glyph-name="Wcircumflex" unicode="&#x174;" horiz-adv-x="752" 
d="M272 757q-5 4 -5 9t7 19l52 88q14 22 42 22h15q27 0 41 -22l54 -88q6 -12 6 -17q0 -7 -5 -11t-14 -4h-20q-16 0 -25 14l-45 73l-44 -73q-11 -14 -26 -14h-19q-9 0 -14 4zM160 14l-139 657l-2 12q0 19 40 19h13q36 0 39 -16l92 -483q6 -30 13 -86l3 -25l20 114l93 479
q4 17 36 17h20q32 0 36 -17l94 -481q8 -37 17 -112l19 111l89 483q3 16 40 16h11q40 0 40 -19l-2 -12l-140 -657q-3 -16 -36 -16h-40q-33 0 -36 16l-88 421l-16 125l-16 -125l-88 -421q-3 -16 -36 -16h-40q-33 0 -36 16z" />
    <glyph glyph-name="wcircumflex" unicode="&#x175;" horiz-adv-x="616" 
d="M204 580q-5 4 -5 9t7 19l52 88q14 22 42 22h15q27 0 41 -22l54 -88q6 -12 6 -17q0 -7 -5 -11t-14 -4h-20q-16 0 -25 14l-45 73l-44 -73q-11 -14 -26 -14h-19q-9 0 -14 4zM124 14l-106 474q-3 18 -3 20q0 17 41 17q43 0 46 -16l56 -319l5 -24l15 -82h5q3 20 20 107l61 317
q4 17 35 17h19q32 0 36 -17l62 -317l6 -29q10 -47 14 -77h5l11 61q6 23 9 44l55 319q3 16 46 16q39 0 39 -17l-2 -17l-107 -477q-3 -16 -36 -16h-34q-33 0 -36 16l-60 295q-11 58 -15 89h-4q-3 -31 -15 -89l-61 -295q-4 -16 -36 -16h-35q-33 0 -36 16z" />
    <glyph glyph-name="Ycircumflex" unicode="&#x176;" horiz-adv-x="484" 
d="M138 757q-5 4 -5 9t7 19l52 88q14 22 42 22h15q27 0 41 -22l54 -88q6 -12 6 -17q0 -7 -5 -11t-14 -4h-20q-16 0 -25 14l-45 73l-44 -73q-11 -14 -26 -14h-19q-9 0 -14 4zM197 20v297l-170 350q-7 12 -7 18q0 17 42 17h18q17 0 26 -3t13 -12l126 -282l127 283q3 8 13.5 11
t26.5 3h14q20 -1 29 -5t9 -12q0 -7 -6 -18l-171 -353v-294q0 -22 -38 -22h-14q-38 0 -38 22z" />
    <glyph glyph-name="ycircumflex" unicode="&#x177;" horiz-adv-x="399" 
d="M98 580q-5 4 -5 9t7 19l52 88q14 22 42 22h15q27 0 41 -22l54 -88q6 -12 6 -17q0 -7 -5 -11t-14 -4h-20q-16 0 -25 14l-45 73l-44 -73q-11 -14 -26 -14h-19q-9 0 -14 4zM385 508q0 -5 -4 -18l-196 -677q-7 -21 -40 -21h-21q-32 0 -32 16q0 4 4 17l74 237q-12 2 -16 13
l-131 415q-4 12 -4 18q0 17 39 17h14q32 0 36 -16l74 -271q5 -19 19 -80h6l18 80l73 271q4 16 37 16h12q38 0 38 -17z" />
    <glyph glyph-name="Ydieresis" unicode="&#x178;" horiz-adv-x="484" 
d="M141 806v51q0 22 40 22q38 0 38 -22v-51q0 -22 -40 -22q-38 0 -38 22zM267 806v51q0 22 40 22q38 0 38 -22v-51q0 -22 -40 -22q-38 0 -38 22zM197 20v297l-170 350q-7 12 -7 18q0 17 42 17h18q17 0 26 -3t13 -12l126 -282l127 283q3 8 13.5 11t26.5 3h14q20 -1 29 -5
t9 -12q0 -7 -6 -18l-171 -353v-294q0 -22 -38 -22h-14q-38 0 -38 22z" />
    <glyph glyph-name="Zacute" unicode="&#x179;" horiz-adv-x="507" 
d="M42 18.5q-8 18.5 -8 34.5q0 6 2 12l321 559h-279q-10 0 -14 8t-4 26v8q0 18 4 26t14 8h366q7 0 14.5 -18.5t7.5 -34.5q0 -9 -1 -12l-319 -559h301q19 0 19 -34v-8q0 -34 -19 -34h-389q-8 0 -16 18.5zM229 772q0 7 12.5 34t36.5 77q12 26 56 26q22 0 32 -3t10 -10
q0 -6 -9 -19l-27 -39l-42 -58q-12 -18 -48 -18q-21 0 -21 10z" />
    <glyph glyph-name="zacute" unicode="&#x17a;" horiz-adv-x="405" 
d="M177 595q0 7 12.5 34t36.5 77q12 26 56 26q22 0 32 -3t10 -10q0 -6 -9 -19l-27 -39l-42 -58q-12 -18 -48 -18q-21 0 -21 10zM41 18q-7 18 -7 33q0 5 2 11l226 389h-194q-19 0 -19 30v12q0 30 19 30h282q6 0 12 -19t6 -33q0 -6 -2 -10l-225 -389h210q19 0 19 -30v-12
q0 -30 -19 -30h-297q-6 0 -13 18z" />
    <glyph glyph-name="Zdotaccent" unicode="&#x17b;" horiz-adv-x="507" 
d="M42 18.5q-8 18.5 -8 34.5q0 6 2 12l321 559h-279q-10 0 -14 8t-4 26v8q0 18 4 26t14 8h366q7 0 14.5 -18.5t7.5 -34.5q0 -9 -1 -12l-319 -559h301q19 0 19 -34v-8q0 -34 -19 -34h-389q-8 0 -16 18.5zM213 806v51q0 22 46 22q44 0 44 -22v-51q0 -22 -46 -22q-44 0 -44 22z
" />
    <glyph glyph-name="zdotaccent" unicode="&#x17c;" horiz-adv-x="405" 
d="M161 629v51q0 22 46 22q44 0 44 -22v-51q0 -22 -46 -22q-44 0 -44 22zM41 18q-7 18 -7 33q0 5 2 11l226 389h-194q-19 0 -19 30v12q0 30 19 30h282q6 0 12 -19t6 -33q0 -6 -2 -10l-225 -389h210q19 0 19 -30v-12q0 -30 -19 -30h-297q-6 0 -13 18z" />
    <glyph glyph-name="Zcaron" unicode="&#x17d;" horiz-adv-x="507" 
d="M42 18.5q-8 18.5 -8 34.5q0 6 2 12l321 559h-279q-10 0 -14 8t-4 26v8q0 18 4 26t14 8h366q7 0 14.5 -18.5t7.5 -34.5q0 -9 -1 -12l-319 -559h301q19 0 19 -34v-8q0 -34 -19 -34h-389q-8 0 -16 18.5zM208 782l-52 88q-7 12 -7 18t5 10t14 4h19q16 0 26 -15l44 -72l45 72
q9 15 25 15h20q9 0 14 -4t5 -11q0 -5 -6 -17l-54 -88q-13 -22 -41 -22h-15q-29 0 -42 22z" />
    <glyph glyph-name="zcaron" unicode="&#x17e;" horiz-adv-x="405" 
d="M156 605l-52 88q-7 12 -7 18t5 10t14 4h19q16 0 26 -15l44 -72l45 72q9 15 25 15h20q9 0 14 -4t5 -11q0 -5 -6 -17l-54 -88q-13 -22 -41 -22h-15q-29 0 -42 22zM41 18q-7 18 -7 33q0 5 2 11l226 389h-194q-19 0 -19 30v12q0 30 19 30h282q6 0 12 -19t6 -33q0 -6 -2 -10
l-225 -389h210q19 0 19 -30v-12q0 -30 -19 -30h-297q-6 0 -13 18z" />
    <glyph glyph-name="longs" unicode="&#x17f;" horiz-adv-x="273" 
d="M91 20v431h-29q-10 0 -15 7t-5 23v12q0 16 5 23t15 7h29v106q0 73 35 100t79 27q26 0 47.5 -8t21.5 -23q0 -11 -6 -29t-16 -18q-3 0 -12.5 3t-23.5 3q-20 0 -30.5 -12.5t-10.5 -50.5v-601q0 -22 -40 -22h-4q-40 0 -40 22z" />
    <glyph glyph-name="uni018F" unicode="&#x18f;" horiz-adv-x="560" 
d="M97.5 69q-49.5 78 -49.5 253q0 9 12.5 25t19.5 16h315q-4 149 -39.5 210t-106.5 61q-42 0 -73.5 -11.5t-65.5 -29.5q-18 -10 -23 -10q-8 0 -20 20.5t-12 29.5q0 14 29.5 31.5t76.5 29.5t97 12q114 0 170.5 -86t56.5 -280q0 -184 -57.5 -266.5t-173.5 -82.5
q-107 0 -156.5 78zM354 115q34 52 41 176h-259q0 -122 28.5 -175t91.5 -53q64 0 98 52z" />
    <glyph glyph-name="florin" unicode="&#x192;" horiz-adv-x="329" 
d="M22.5 -202q-7.5 5 -7.5 16l8 71q37 315 61 556h-44q-17 0 -17 19q0 53 27 53h42l12 105q9 79 53 108.5t96 29.5q69 0 69 -30q-1 -10 -10 -28.5t-18 -18.5q-5 0 -14 2.5t-28 2.5q-26 0 -43 -14.5t-22 -59.5l-11 -97h85q17 0 17 -20q0 -17 -6 -34.5t-21 -17.5h-83l-69 -627
q-1 -11 -10 -16t-30 -5h-10q-19 0 -26.5 5z" />
    <glyph glyph-name="Ohorn" unicode="&#x1a0;" horiz-adv-x="599" 
d="M113 83q-64 89 -64 269q0 354 250 354q77 0 136 -38q10 -6 16.5 -8.5t15.5 -2.5q21 0 30.5 10t9.5 23t-5 23.5t-13 22.5t-9 16q0 10 9 16l24 16q5 4 12 4q16 0 29.5 -25t13.5 -49q0 -38 -22 -61.5t-66 -27.5q70 -88 70 -273q0 -180 -64 -269t-187 -89q-122 0 -186 89z
M458 352q0 278 -158 278q-79 0 -118.5 -67.5t-39.5 -210.5q0 -282 158 -282t158 282z" />
    <glyph glyph-name="ohorn" unicode="&#x1a1;" horiz-adv-x="477" 
d="M96.5 62q-49.5 68 -49.5 197q0 130 49.5 200t143.5 70q50 0 90 -24q15 -9 33 -9q20 0 28.5 10t8.5 23q0 12 -5 22t-13.5 22.5t-8.5 17.5q0 10 9 16l24 16q5 4 12 4q16 0 29.5 -25t13.5 -49q0 -37 -21.5 -61t-63.5 -28q54 -69 54 -205q0 -130 -48 -197.5t-142 -67.5
t-143.5 68zM316.5 113.5q25.5 47.5 25.5 147.5t-25.5 148t-78.5 48t-77.5 -47.5t-24.5 -148.5q0 -100 24.5 -147.5t77.5 -47.5t78.5 47.5z" />
    <glyph glyph-name="Uhorn" unicode="&#x1af;" horiz-adv-x="570" 
d="M569 698.5q-20 -23.5 -61 -27.5v-476q0 -95 -58 -148t-165 -53t-165.5 53t-58.5 148v485q0 22 38 22h14q38 0 38 -22v-488q0 -54 37.5 -88t96.5 -34q58 0 95.5 34.5t37.5 87.5v488q0 22 38 22h29q23 0 33 9.5t10 23.5q0 13 -5 23.5t-13 22.5t-9 16q0 10 9 16l24 16
q5 4 12 4q16 0 29.5 -25t13.5 -49q0 -37 -20 -60.5z" />
    <glyph glyph-name="uhorn" unicode="&#x1b0;" horiz-adv-x="468" 
d="M463.5 518.5q-22.5 -23.5 -66.5 -27.5v-342q0 -65 5 -94.5t5 -32.5q0 -12 -21 -17t-37 -5q-14 0 -19.5 13t-8.5 30t-4 25q-23 -35 -56 -55t-70 -20q-62 0 -96 38.5t-34 106.5v364q0 22 38 22h10q38 0 38 -22v-351q0 -41 18 -63t53 -22q28 0 52.5 19t40.5 51v366
q0 22 38 22h32q24 0 34 9.5t10 23.5q0 12 -5 22.5t-13.5 23t-8.5 16.5q0 10 9 16l24 16q5 4 12 4q16 0 29.5 -25t13.5 -49q0 -39 -22.5 -62.5z" />
    <glyph glyph-name="uni01C4" unicode="&#x1c4;" horiz-adv-x="1084" 
d="M84.5 7q-6.5 7 -6.5 23v640q0 16 6.5 23t20.5 7h168q251 0 251 -350t-251 -350h-168q-14 0 -20.5 7zM271 76q75 0 118 65.5t43 208.5q0 142 -43 208t-118 66h-102v-548h102zM619 18.5q-8 18.5 -8 34.5q0 6 2 12l321 559h-279q-10 0 -14 8t-4 26v8q0 18 4 26t14 8h366
q7 0 14.5 -18.5t7.5 -34.5q0 -9 -1 -12l-319 -559h301q19 0 19 -34v-8q0 -34 -19 -34h-389q-8 0 -16 18.5zM785 782l-52 88q-7 12 -7 18t5 10t14 4h19q16 0 26 -15l44 -72l45 72q9 15 25 15h20q9 0 14 -4t5 -11q0 -5 -6 -17l-54 -88q-13 -22 -41 -22h-15q-29 0 -42 22z" />
    <glyph glyph-name="uni01C5" unicode="&#x1c5;" horiz-adv-x="982" 
d="M705 605l-52 88q-7 12 -7 18t5 10t14 4h19q15 0 26 -15l44 -72l45 72q9 15 25 15h20q9 0 14 -4t5 -11q0 -5 -6 -17l-54 -88q-13 -22 -41 -22h-15q-29 0 -42 22zM84.5 7q-6.5 7 -6.5 23v640q0 16 6.5 23t20.5 7h168q251 0 251 -350t-251 -350h-168q-14 0 -20.5 7zM271 76
q75 0 118 65.5t43 208.5q0 142 -43 208t-118 66h-102v-548h102zM618 18q-7 18 -7 33q0 5 2 11l226 389h-194q-19 0 -19 30v12q0 30 19 30h282q6 0 12 -19t6 -33q0 -6 -2 -10l-225 -389h210q19 0 19 -30v-12q0 -30 -19 -30h-297q-6 0 -13 18z" />
    <glyph glyph-name="uni01C6" unicode="&#x1c6;" horiz-adv-x="886" 
d="M121.5 28q-35.5 34 -55 95t-19.5 141q0 125 45 195t120 70q35 0 59.5 -13t46.5 -38v252q0 22 37 22h11q38 0 38 -22v-582q0 -63 5 -93t5 -34q0 -11 -21.5 -16.5t-36.5 -5.5t-20.5 14t-8.5 32l-4 24q-23 -37 -53.5 -56t-65.5 -19q-47 0 -82.5 34zM637 605l-52 88
q-7 12 -7 18t5 10t14 4h19q16 0 26 -15l44 -72l45 72q9 15 25 15h20q9 0 14 -4t5 -11q0 -5 -6 -17l-54 -88q-13 -22 -41 -22h-15q-29 0 -42 22zM522 18q-7 18 -7 33q0 5 2 11l226 389h-194q-19 0 -19 30v12q0 30 19 30h282q6 0 12 -19t6 -33q0 -6 -2 -10l-225 -389h210
q19 0 19 -30v-12q0 -30 -19 -30h-297q-6 0 -13 18zM274.5 85q24.5 18 43.5 51v274q-34 45 -84 45q-98 0 -98 -190q0 -94 22.5 -146t66.5 -52q25 0 49.5 18z" />
    <glyph glyph-name="uni01C7" unicode="&#x1c7;" horiz-adv-x="645" 
d="M84.5 7q-6.5 7 -6.5 23v650q0 22 38 22h14q38 0 38 -22v-604h176q11 0 15.5 -7t4.5 -23v-16q0 -16 -4.5 -23t-15.5 -7h-239q-14 0 -20.5 7zM340.5 -148q-29.5 9 -29.5 23q0 13 7 34t16 21q6 0 23 -4.5t34 -4.5q50 0 72.5 29t22.5 94v636q0 22 38 22h14q39 0 39 -22v-626
q0 -99 -42.5 -155t-133.5 -56q-31 0 -60.5 9z" />
    <glyph glyph-name="uni01C8" unicode="&#x1c8;" horiz-adv-x="657" 
d="M84.5 7q-6.5 7 -6.5 23v650q0 22 38 22h14q38 0 38 -22v-604h208q11 0 15.5 -7t4.5 -23v-16q0 -16 -4.5 -23t-15.5 -7h-271q-14 0 -20.5 7zM491 629v51q0 22 46 22q44 0 44 -22v-51q0 -22 -46 -22q-44 0 -44 22zM398 -182q0 10 6 28.5t15 18.5q4 0 12 -2.5t24 -2.5
q38 0 38 68v575q0 22 40 22h4q40 0 40 -22v-583q0 -74 -33.5 -103t-75.5 -29q-70 0 -70 30z" />
    <glyph glyph-name="uni01C9" unicode="&#x1c9;" horiz-adv-x="519" 
d="M108.5 20.5q-32.5 26.5 -32.5 94.5v615q0 22 40 22h4q40 0 40 -22v-607q0 -57 37 -57q12 0 20 2.5t12 2.5q9 0 15 -18.5t6 -28.5q0 -15 -22 -22.5t-46 -7.5q-41 0 -73.5 26.5zM353 629v51q0 22 46 22q44 0 44 -22v-51q0 -22 -46 -22q-44 0 -44 22zM260 -182q0 10 6 28.5
t15 18.5q4 0 12 -2.5t24 -2.5q38 0 38 68v575q0 22 40 22h4q40 0 40 -22v-583q0 -74 -33.5 -103t-75.5 -29q-70 0 -70 30z" />
    <glyph glyph-name="uni01CA" unicode="&#x1ca;" horiz-adv-x="945" 
d="M73 20v660q0 22 38 22h24q15 0 24 -4.5t15 -15.5l232 -447q14 -26 26 -63l5 2q-8 35 -8 66v440q0 22 38 22h12q38 0 38 -22v-660q0 -22 -38 -22h-21q-28 0 -36 15l-238 462q-14 26 -26 63l-5 -2q8 -35 8 -66v-450q0 -22 -38 -22h-12q-38 0 -38 22zM628 2.5
q-29 8.5 -29 23.5q0 13 7 34t16 21q6 0 23 -4.5t34 -4.5q50 0 72.5 29t22.5 94v485q0 22 38 22h14q39 0 39 -22v-475q0 -99 -42.5 -155t-133.5 -56q-32 0 -61 8.5z" />
    <glyph glyph-name="uni01CB" unicode="&#x1cb;" horiz-adv-x="839" 
d="M73 20v660q0 22 38 22h24q15 0 24 -4.5t15 -15.5l232 -447q14 -26 26 -63l5 2q-8 35 -8 66v440q0 22 38 22h12q38 0 38 -22v-660q0 -22 -38 -22h-21q-28 0 -36 15l-238 462q-14 26 -26 63l-5 -2q8 -35 8 -66v-450q0 -22 -38 -22h-12q-38 0 -38 22zM673 629v51q0 22 46 22
q44 0 44 -22v-51q0 -22 -46 -22q-44 0 -44 22zM580 -182q0 10 6 28.5t15 18.5q4 0 12 -2.5t24 -2.5q38 0 38 68v575q0 22 40 22h4q40 0 40 -22v-583q0 -74 -33.5 -103t-75.5 -29q-70 0 -70 30z" />
    <glyph glyph-name="uni01CC" unicode="&#x1cc;" horiz-adv-x="731" 
d="M78 20v353q0 65 -5 94t-5 32q0 12 21.5 17.5t36.5 5.5q14 0 19.5 -13t8.5 -30t4 -25q23 35 56 55t70 20q62 0 96 -41.5t34 -114.5v-353q0 -22 -38 -22h-10q-39 0 -39 22v345q0 44 -18 67.5t-53 23.5q-27 0 -52 -19.5t-40 -50.5v-366q0 -22 -38 -22h-11q-37 0 -37 22z
M565 629v51q0 22 46 22q44 0 44 -22v-51q0 -22 -46 -22q-44 0 -44 22zM472 -182q0 10 6 28.5t15 18.5q4 0 12 -2.5t24 -2.5q38 0 38 68v575q0 22 40 22h4q40 0 40 -22v-583q0 -74 -33.5 -103t-75.5 -29q-70 0 -70 30z" />
    <glyph glyph-name="uni01EA" unicode="&#x1ea;" horiz-adv-x="599" 
d="M465 -132q0 -18 -13 -27q-28 -19 -66 -19q-54 0 -73 28.5t-19 59.5q0 17 5.5 40t17.5 44h-18q-122 0 -186 89t-64 269q0 354 250 354q251 0 251 -354q0 -295 -171 -347q-12 -20 -18 -40.5t-6 -36.5q0 -43 50 -43q8 0 22 3.5t18 3.5q20 0 20 -24zM300 70q158 0 158 282
q0 278 -158 278q-79 0 -118.5 -67.5t-39.5 -210.5q0 -282 158 -282z" />
    <glyph glyph-name="uni01EB" unicode="&#x1eb;" horiz-adv-x="477" 
d="M369 -141q0 -18 -13 -27q-28 -19 -66 -19q-54 0 -73 28.5t-19 59.5q0 19 7 44.5t21 48.5q-88 5 -133.5 72.5t-45.5 192.5q0 130 49.5 200t143.5 70q93 0 141.5 -69.5t48.5 -200.5q0 -113 -37 -179.5t-109 -81.5q-12 -21 -18.5 -42t-6.5 -37q0 -43 50 -43q8 0 22 3.5
t18 3.5q20 0 20 -24zM160.5 113.5q24.5 -47.5 77.5 -47.5t78.5 47.5t25.5 147.5t-25.5 148t-78.5 48t-77.5 -47.5t-24.5 -148.5q0 -100 24.5 -147.5z" />
    <glyph glyph-name="uni01F1" unicode="&#x1f1;" horiz-adv-x="1084" 
d="M84.5 7q-6.5 7 -6.5 23v640q0 16 6.5 23t20.5 7h168q251 0 251 -350t-251 -350h-168q-14 0 -20.5 7zM271 76q75 0 118 65.5t43 208.5q0 142 -43 208t-118 66h-102v-548h102zM619 18.5q-8 18.5 -8 34.5q0 6 2 12l321 559h-279q-10 0 -14 8t-4 26v8q0 18 4 26t14 8h366
q7 0 14.5 -18.5t7.5 -34.5q0 -9 -1 -12l-319 -559h301q19 0 19 -34v-8q0 -34 -19 -34h-389q-8 0 -16 18.5z" />
    <glyph glyph-name="uni01F2" unicode="&#x1f2;" horiz-adv-x="982" 
d="M84.5 7q-6.5 7 -6.5 23v640q0 16 6.5 23t20.5 7h168q251 0 251 -350t-251 -350h-168q-14 0 -20.5 7zM271 76q75 0 118 65.5t43 208.5q0 142 -43 208t-118 66h-102v-548h102zM618 18q-7 18 -7 33q0 5 2 11l226 389h-194q-19 0 -19 30v12q0 30 19 30h282q6 0 12 -19t6 -33
q0 -6 -2 -10l-225 -389h210q19 0 19 -30v-12q0 -30 -19 -30h-297q-6 0 -13 18z" />
    <glyph glyph-name="uni01F3" unicode="&#x1f3;" horiz-adv-x="886" 
d="M121.5 28q-35.5 34 -55 95t-19.5 141q0 125 45 195t120 70q35 0 59.5 -13t46.5 -38v252q0 22 37 22h11q38 0 38 -22v-582q0 -63 5 -93t5 -34q0 -11 -21.5 -16.5t-36.5 -5.5t-20.5 14t-8.5 32l-4 24q-23 -37 -53.5 -56t-65.5 -19q-47 0 -82.5 34zM274.5 85
q24.5 18 43.5 51v274q-34 45 -84 45q-98 0 -98 -190q0 -94 22.5 -146t66.5 -52q25 0 49.5 18zM522 18q-7 18 -7 33q0 5 2 11l226 389h-194q-19 0 -19 30v12q0 30 19 30h282q6 0 12 -19t6 -33q0 -6 -2 -10l-225 -389h210q19 0 19 -30v-12q0 -30 -19 -30h-297q-6 0 -13 18z
" />
    <glyph glyph-name="Aringacute" unicode="&#x1fa;" horiz-adv-x="505" 
d="M227 881q0 7 10.5 31.5t31.5 69.5q12 26 54 26q17 0 24 -3t7 -10q0 -5 -7 -17t-24 -35l-37 -54q-13 -18 -36 -18t-23 10zM492 15q0 -8 -9.5 -12.5t-27.5 -4.5h-17q-32 0 -36 16l-43 164h-215l-42 -164q-4 -16 -36 -16h-16q-37 0 -37 17q0 3 2 13l181 655q1 3 5 9
q-15 11 -23 28.5t-8 39.5q0 38 23 61.5t60 23.5q38 0 61 -23.5t23 -61.5q0 -47 -33 -69q2 -2 4 -8l181 -655q3 -7 3 -13zM219 797q-12 -13 -13 -37q1 -24 13 -36.5t34 -12.5t34.5 13t12.5 36t-12.5 36.5t-34.5 13.5t-34 -13zM337 254l-71 274q-3 13 -11 61h-5q-2 -7 -4 -23
l-8 -38l-71 -274h170z" />
    <glyph glyph-name="aringacute" unicode="&#x1fb;" horiz-adv-x="481" 
d="M217 772q0 7 12.5 34t36.5 77q12 26 56 26q22 0 32 -3t10 -10q0 -6 -9 -19l-27 -39l-42 -58q-12 -18 -48 -18q-21 0 -21 10zM182 587q-23 23 -23 61t23 61.5t60 23.5q38 0 61 -23.5t23 -61.5t-23 -61t-61 -23q-37 0 -60 23zM276.5 612q12.5 13 12.5 36t-12.5 36.5
t-34.5 13.5t-34 -13t-13 -37q1 -24 13 -36.5t34 -12.5t34.5 13zM90.5 34.5q-39.5 40.5 -39.5 114.5q0 75 39 115t97 53.5t133 14.5v47q0 34 -21 56t-66 22q-35 0 -61.5 -8.5t-45.5 -18t-22 -9.5q-10 0 -22.5 19.5t-12.5 29.5q0 13 23.5 27t62 23t79.5 9q80 0 125 -40
t45 -111v-230q0 -66 6 -94.5t6 -31.5q0 -12 -19 -17.5t-35 -5.5q-15 0 -22 15.5t-13 43.5q-53 -64 -130 -64q-67 0 -106.5 40.5zM320 130v129q-56 -1 -92.5 -8t-62.5 -30.5t-26 -70.5q0 -77 75 -77q65 0 106 57z" />
    <glyph glyph-name="AEacute" unicode="&#x1fc;" horiz-adv-x="746" 
d="M359 772q0 7 12.5 34t36.5 77q12 26 56 26q22 0 32 -3t10 -10q0 -6 -9 -19l-27 -39l-42 -58q-12 -18 -48 -18q-21 0 -21 10zM1 15q0 8 4 16l256 642q6 14 14 20.5t21 6.5h362q19 0 19 -30v-16q0 -30 -19 -30h-276l35 -228h218q19 0 19 -30v-16q0 -30 -19 -30h-206
l38 -244h192q19 0 19 -30v-16q0 -30 -19 -30h-243q-25 0 -29 29l-22 149h-216l-63 -164q-6 -16 -33 -16h-14q-38 0 -38 17zM352 253l-41 273l-2 58h-2l-19 -58l-107 -273h171z" />
    <glyph glyph-name="aeacute" unicode="&#x1fd;" horiz-adv-x="664" 
d="M314 595q0 7 12.5 34t36.5 77q12 26 56 26q22 0 32 -3t10 -10q0 -6 -9 -19l-27 -39l-42 -58q-12 -18 -48 -18q-21 0 -21 10zM91.5 34.5q-40.5 40.5 -40.5 115.5q0 97 65.5 133.5t172.5 41.5q4 44 18 79q-14 53 -76 53q-34 0 -59 -8t-43.5 -17t-21.5 -9q-10 0 -22 19
t-12 29q0 13 22.5 26.5t59.5 22.5t77 9q81 0 125 -44q47 44 122 44q86 0 130 -65t44 -190q0 -9 -12 -25t-21 -16h-245q5 -88 31 -127.5t84 -39.5q36 0 59.5 10t39 21t18.5 11q10 0 22.5 -20t12.5 -30q0 -12 -20.5 -27.5t-55.5 -26t-75 -10.5q-101 0 -150 59
q-25 -28 -61.5 -43.5t-79.5 -15.5q-68 0 -108.5 40.5zM564 305q0 152 -88 152q-93 0 -101 -152h189zM306 116q-19 51 -21 136q-66 -3 -106 -24t-40 -76q0 -79 70 -79q59 0 97 43z" />
    <glyph glyph-name="Oslashacute" unicode="&#x1fe;" horiz-adv-x="599" 
d="M272 772q0 7 12.5 34t36.5 77q12 26 56 26q22 0 32 -3t10 -10q0 -6 -9 -19l-27 -39l-42 -58q-12 -18 -48 -18q-21 0 -21 10zM550 352q0 -180 -64 -269t-187 -89q-102 0 -163 61l-37 -61q-7 -12 -15 -12q-7 0 -15 6t-8 13q0 8 5 14l44 72q-61 90 -61 265q0 354 250 354
q98 0 159 -55l33 54q6 11 15 11q8 0 15.5 -5.5t7.5 -13.5q0 -5 -4 -12l-40 -65q65 -88 65 -268zM165 176l245 398q-38 56 -110 56q-79 0 -118.5 -67.5t-39.5 -210.5q0 -109 23 -176zM458 352q0 113 -26 182l-247 -400q40 -64 115 -64q158 0 158 282z" />
    <glyph glyph-name="oslashacute" unicode="&#x1ff;" horiz-adv-x="477" 
d="M430 259q0 -130 -48 -197.5t-142 -67.5q-79 0 -127 48l-28 -40q-4 -8 -13 -8q-7 0 -16.5 7t-9.5 14q0 4 6 13l34 50q-39 66 -39 181q0 130 49.5 200t143.5 70q76 0 123 -47l26 38q6 8 13 8t16.5 -7t9.5 -14q0 -4 -6 -13l-32 -47q40 -71 40 -188zM144 163l171 249
q-25 45 -77 45q-53 0 -77.5 -47.5t-24.5 -148.5q0 -56 8 -98zM316.5 113.5q25.5 47.5 25.5 147.5q0 61 -9 103l-172 -251q24 -47 77 -47t78.5 47.5zM211 595q0 7 12.5 34t36.5 77q12 26 56 26q22 0 32 -3t10 -10q0 -6 -9 -19l-27 -39l-42 -58q-12 -18 -48 -18q-21 0 -21 10z
" />
    <glyph glyph-name="Scommaaccent" unicode="&#x218;" horiz-adv-x="437" 
d="M43 41q-6 4 -8.5 8.5t-2.5 14.5q0 18 6.5 37.5t16.5 19.5q4 0 6 -2t3 -2q55 -43 139 -43q51 0 83.5 30.5t32.5 82.5q0 47 -26 73.5t-77 52.5q-57 28 -90.5 51t-56 59.5t-22.5 91.5q0 91 57.5 143.5t149.5 52.5q71 0 122 -30q7 -4 7 -12q0 -13 -9.5 -37t-18.5 -24
q-3 0 -13 5q-38 19 -93 19q-48 0 -81 -27.5t-33 -79.5q0 -45 27.5 -72.5t89.5 -59.5q51 -26 82.5 -48.5t52.5 -59t21 -91.5q0 -94 -58 -146.5t-150 -52.5q-93 0 -157 46zM156.5 -231.5q-8.5 3.5 -8.5 11.5q0 6 3.5 16.5t4.5 14.5q10 26 15.5 50t5.5 56q0 15 9.5 23.5
t28.5 8.5h10q17 0 26 -7.5t9 -20.5q0 -45 -14.5 -80.5t-34.5 -55.5t-35 -20q-11 0 -19.5 3.5z" />
    <glyph glyph-name="scommaaccent" unicode="&#x219;" horiz-adv-x="353" 
d="M97.5 1.5q-31.5 10.5 -50 25.5t-18.5 26t13 31t21 20q2 0 17.5 -11t35.5 -19.5t45 -8.5q37 0 56.5 18.5t19.5 54.5q0 35 -21.5 59t-66.5 46q-55 25 -81.5 58t-26.5 87q0 63 41.5 102.5t105.5 39.5q41 0 76 -13t35 -30q0 -12 -11.5 -33t-19.5 -21q-2 0 -23.5 12.5
t-51.5 12.5q-29 0 -48.5 -16t-19.5 -45q0 -34 19.5 -56.5t55.5 -40.5q61 -28 90 -64t29 -96q0 -67 -44 -108t-110 -41q-36 0 -67.5 10.5zM113.5 -231.5q-8.5 3.5 -8.5 11.5q0 6 3.5 16.5t4.5 14.5q10 26 15.5 50t5.5 56q0 15 9.5 23.5t28.5 8.5h10q17 0 26 -7.5t9 -20.5
q0 -45 -14.5 -80.5t-34.5 -55.5t-35 -20q-11 0 -19.5 3.5z" />
    <glyph glyph-name="uni021A" unicode="&#x21a;" horiz-adv-x="454" 
d="M183 20v604h-144q-19 0 -19 30v16q0 30 19 30h376q11 0 15.5 -7t4.5 -23v-16q0 -16 -4.5 -23t-15.5 -7h-142v-604q0 -22 -38 -22h-14q-38 0 -38 22zM163.5 -231.5q-8.5 3.5 -8.5 11.5q0 6 3.5 16.5t4.5 14.5q10 26 15.5 50t5.5 56q0 15 9.5 23.5t28.5 8.5h10
q17 0 26 -7.5t9 -20.5q0 -45 -14.5 -80.5t-34.5 -55.5t-35 -20q-11 0 -19.5 3.5z" />
    <glyph glyph-name="uni021B" unicode="&#x21b;" horiz-adv-x="298" 
d="M125 20.5q-34 26.5 -34 94.5v336h-33q-10 0 -15 7t-5 23v12q0 16 5 23t15 7h33l12 105q2 22 32 22h10q30 0 30 -22v-105h66q11 0 15.5 -7t4.5 -23v-12q0 -16 -4.5 -23t-15.5 -7h-66v-322q0 -36 10 -49.5t29 -13.5q13 0 22 2.5t12 2.5q9 0 15 -18t6 -30q0 -16 -20.5 -22.5
t-45.5 -6.5q-44 0 -78 26.5zM119.5 -231.5q-8.5 3.5 -8.5 11.5q0 6 3.5 16.5t4.5 14.5q10 26 15.5 50t5.5 56q0 15 9.5 23.5t28.5 8.5h10q17 0 26 -7.5t9 -20.5q0 -45 -14.5 -80.5t-34.5 -55.5t-35 -20q-11 0 -19.5 3.5z" />
    <glyph glyph-name="uni0237" unicode="&#x237;" horiz-adv-x="249" 
d="M-10 -182q0 10 6 28.5t15 18.5q4 0 12 -2.5t24 -2.5q38 0 38 68v575q0 22 40 22h4q40 0 40 -22v-583q0 -74 -33.5 -103t-75.5 -29q-70 0 -70 30z" />
    <glyph glyph-name="uni0259" unicode="&#x259;" horiz-adv-x="440" 
d="M347.5 464q51.5 -65 51.5 -199q0 -133 -50 -202t-147 -69q-87 0 -131 66.5t-44 194.5q0 9 12 25t21 16h249q-5 85 -32 123t-86 38q-36 0 -60 -10t-39 -21t-18 -11q-10 0 -22.5 20t-12.5 30q0 12 20.5 27.5t55.5 26t75 10.5q106 0 157.5 -65zM116 224q0 -158 89 -158
q96 0 104 158h-193z" />
    <glyph glyph-name="uni02BC" unicode="&#x2bc;" horiz-adv-x="90" 
d="M-6.5 540.5q-8.5 3.5 -8.5 11.5q0 6 3.5 16.5t4.5 14.5q10 26 15.5 50t5.5 56q0 15 9.5 23.5t28.5 8.5h10q17 0 26 -7.5t9 -20.5q0 -45 -14.5 -80.5t-34.5 -55.5t-35 -20q-11 0 -19.5 3.5z" />
    <glyph glyph-name="circumflex" unicode="&#x2c6;" horiz-adv-x="256" 
d="M22 580q-5 4 -5 9t7 19l52 88q14 22 42 22h15q27 0 41 -22l54 -88q6 -12 6 -17q0 -7 -5 -11t-14 -4h-20q-16 0 -25 14l-45 73l-44 -73q-11 -14 -26 -14h-19q-9 0 -14 4z" />
    <glyph glyph-name="caron" unicode="&#x2c7;" horiz-adv-x="256" 
d="M76 605l-52 88q-7 12 -7 18t5 10t14 4h19q16 0 26 -15l44 -72l45 72q9 15 25 15h20q9 0 14 -4t5 -11q0 -5 -6 -17l-54 -88q-13 -22 -41 -22h-15q-29 0 -42 22z" />
    <glyph glyph-name="uni02C9" unicode="&#x2c9;" horiz-adv-x="256" 
d="M8 642v10q0 30 19 30h199q10 0 14.5 -7t4.5 -23v-10q0 -16 -4.5 -23t-14.5 -7h-199q-19 0 -19 30z" />
    <glyph glyph-name="breve" unicode="&#x2d8;" horiz-adv-x="256" 
d="M43.5 615q-33.5 30 -33.5 85q0 15 18 15q7 0 10.5 -3.5t6 -10.5t4.5 -11q15 -39 78 -39t78 39q1 3 4 11t6.5 11t9.5 3q18 0 18 -15q0 -55 -33.5 -85t-82.5 -30q-50 0 -83.5 30z" />
    <glyph glyph-name="dotaccent" unicode="&#x2d9;" horiz-adv-x="256" 
d="M85 629v51q0 22 46 22q44 0 44 -22v-51q0 -22 -46 -22q-44 0 -44 22z" />
    <glyph glyph-name="ring" unicode="&#x2da;" horiz-adv-x="256" 
d="M68 587q-23 23 -23 61t23 61.5t60 23.5q38 0 61 -23.5t23 -61.5t-23 -61t-61 -23q-37 0 -60 23zM162.5 612q12.5 13 12.5 36t-12.5 36.5t-34.5 13.5t-34 -13t-13 -37q1 -24 13 -36.5t34 -12.5t34.5 13z" />
    <glyph glyph-name="ogonek" unicode="&#x2db;" horiz-adv-x="256" 
d="M62 -154.5q-19 28.5 -19 59.5q0 25 10.5 57t33.5 58l43 -16q-13 -21 -19.5 -43t-6.5 -38q0 -43 50 -43q8 0 22 3.5t18 3.5q20 0 20 -24q0 -18 -13 -27q-28 -19 -66 -19q-54 0 -73 28.5z" />
    <glyph glyph-name="tilde" unicode="&#x2dc;" horiz-adv-x="292" 
d="M14 596q-10 4 -10 12q0 6 3 13q15 37 34.5 53t48.5 16q15 0 29.5 -5t39.5 -16q40 -19 58 -19q11 0 19.5 5.5t18.5 20.5q8 15 19 15q5 0 11 -3l7 -3q7 -3 9.5 -5.5t2.5 -6.5q0 -6 -4 -14q-15 -37 -34.5 -52.5t-47.5 -15.5q-16 0 -33 5.5t-40 16.5q-15 7 -30.5 12.5
t-26.5 5.5q-10 0 -18 -6t-18 -21q-8 -14 -17 -14q-3 0 -11 2z" />
    <glyph glyph-name="hungarumlaut" unicode="&#x2dd;" horiz-adv-x="307" 
d="M28 595q0 5 6 18t16 35l27 58q12 26 56 26q22 0 32 -3t10 -10q0 -6 -9.5 -20.5t-31.5 -44.5l-37 -51q-14 -18 -48 -18q-21 0 -21 10zM156 595q0 5 6 18t16 35l27 58q12 26 56 26q22 0 32 -3t10 -10q0 -9 -13 -28.5t-65 -87.5q-13 -18 -48 -18q-21 0 -21 10z" />
    <glyph glyph-name="gravecomb" unicode="&#x300;" horiz-adv-x="0" 
d="M-23 603q-56 75 -67.5 91.5t-11.5 24.5q0 7 10 10t32 3q43 0 57 -26l20 -42q13 -29 20.5 -46t7.5 -23q0 -5 -4.5 -7.5t-16.5 -2.5q-35 0 -47 18z" />
    <glyph glyph-name="acutecomb" unicode="&#x301;" horiz-adv-x="0" 
d="M-161 595q0 7 12.5 34t36.5 77q12 26 56 26q22 0 32 -3t10 -10q0 -6 -9 -19l-27 -39l-42 -58q-12 -18 -48 -18q-21 0 -21 10z" />
    <glyph glyph-name="uni0302" unicode="&#x302;" horiz-adv-x="0" 
d="M-102 580q-5 4 -5 9t7 19l52 88q14 22 42 22h15q27 0 41 -22l54 -88q6 -12 6 -17q0 -7 -5 -11t-14 -4h-20q-16 0 -25 14l-45 73l-44 -73q-11 -14 -26 -14h-19q-9 0 -14 4z" />
    <glyph glyph-name="tildecomb" unicode="&#x303;" horiz-adv-x="0" 
d="M-131 596q-10 4 -10 12q0 6 3 13q15 37 34.5 53t48.5 16q15 0 29.5 -5t39.5 -16q40 -19 58 -19q11 0 19.5 5.5t18.5 20.5q8 15 19 15q5 0 11 -3l7 -3q7 -3 9.5 -5.5t2.5 -6.5q0 -6 -4 -14q-15 -37 -34.5 -52.5t-47.5 -15.5q-16 0 -33 5.5t-40 16.5q-15 7 -30.5 12.5
t-26.5 5.5q-10 0 -18 -6t-18 -21q-8 -14 -17 -14q-3 0 -11 2z" />
    <glyph glyph-name="uni0304" unicode="&#x304;" horiz-adv-x="0" 
d="M-121 642v10q0 30 19 30h199q10 0 14.5 -7t4.5 -23v-10q0 -16 -4.5 -23t-14.5 -7h-199q-19 0 -19 30z" />
    <glyph glyph-name="uni0306" unicode="&#x306;" horiz-adv-x="0" 
d="M-82.5 615q-33.5 30 -33.5 85q0 15 18 15q7 0 10.5 -3.5t6 -10.5t4.5 -11q15 -39 78 -39t78 39q1 3 4 11t6.5 11t9.5 3q18 0 18 -15q0 -55 -33.5 -85t-82.5 -30q-50 0 -83.5 30z" />
    <glyph glyph-name="uni0307" unicode="&#x307;" horiz-adv-x="0" 
d="M-44 629v51q0 22 46 22q44 0 44 -22v-51q0 -22 -46 -22q-44 0 -44 22z" />
    <glyph glyph-name="uni0308" unicode="&#x308;" horiz-adv-x="0" 
d="M-103 629v51q0 22 40 22q38 0 38 -22v-51q0 -22 -40 -22q-38 0 -38 22zM23 629v51q0 22 40 22q38 0 38 -22v-51q0 -22 -40 -22q-38 0 -38 22z" />
    <glyph glyph-name="hookabovecomb" unicode="&#x309;" horiz-adv-x="0" 
d="M-253.5 568.5q-12.5 5.5 -12.5 11.5q0 9 5.5 15t19.5 18q17 14 27 27t10 32q0 13 -10.5 20t-26.5 7q-22 0 -32.5 -6.5t-13.5 -6.5q-6 0 -15 12.5t-9 20.5q0 10 26 20.5t52 10.5q33 0 62 -17t29 -54q0 -30 -18.5 -56t-41.5 -43t-31 -17t-20.5 5.5z" />
    <glyph glyph-name="uni030A" unicode="&#x30a;" horiz-adv-x="0" 
d="M-59 587q-23 23 -23 61t23 61.5t60 23.5q38 0 61 -23.5t23 -61.5t-23 -61t-61 -23q-37 0 -60 23zM35.5 612q12.5 13 12.5 36t-12.5 36.5t-34.5 13.5t-34 -13t-13 -37q1 -24 13 -36.5t34 -12.5t34.5 13z" />
    <glyph glyph-name="uni030B" unicode="&#x30b;" horiz-adv-x="0" 
d="M-121 595q0 5 6 18t16 35l27 58q12 26 56 26q22 0 32 -3t10 -10q0 -6 -9.5 -20.5t-31.5 -44.5l-37 -51q-14 -18 -48 -18q-21 0 -21 10zM7 595q0 5 6 18t16 35l27 58q12 26 56 26q22 0 32 -3t10 -10q0 -9 -13 -28.5t-65 -87.5q-13 -18 -48 -18q-21 0 -21 10z" />
    <glyph glyph-name="uni030C" unicode="&#x30c;" horiz-adv-x="0" 
d="M-45 605l-52 88q-7 12 -7 18t5 10t14 4h19q16 0 26 -15l44 -72l45 72q9 15 25 15h20q9 0 14 -4t5 -11q0 -5 -6 -17l-54 -88q-13 -22 -41 -22h-15q-29 0 -42 22z" />
    <glyph glyph-name="dotbelowcomb" unicode="&#x323;" horiz-adv-x="0" 
d="M-42 -153v51q0 22 46 22q44 0 44 -22v-51q0 -22 -46 -22q-44 0 -44 22z" />
    <glyph glyph-name="uni0326" unicode="&#x326;" horiz-adv-x="0" 
d="M-192.5 -231.5q-8.5 3.5 -8.5 11.5q0 6 3.5 16.5t4.5 14.5q10 26 15.5 50t5.5 56q0 15 9.5 23.5t28.5 8.5h10q17 0 26 -7.5t9 -20.5q0 -45 -14.5 -80.5t-34.5 -55.5t-35 -20q-11 0 -19.5 3.5z" />
    <glyph glyph-name="uni0327" unicode="&#x327;" horiz-adv-x="0" 
d="M56.5 -74.5q23.5 -14.5 23.5 -52.5q0 -83 -96 -83q-32 0 -63 12t-31 31q0 9 6 17.5t13 8.5t23 -7q26 -13 46 -13q14 0 25 7.5t11 21.5q0 15 -8.5 22t-24.5 12q-11 4 -16.5 8t-5.5 11t5 24t18 55h41l-17 -60q27 0 50.5 -14.5z" />
    <glyph glyph-name="uni0394" unicode="&#x394;" horiz-adv-x="581" 
d="M40 7.5q-7 7.5 -7 20.5v2q0 17 7 37l205 620q7 23 30 23h31q21 0 30 -23l205 -620q6 -24 6 -34v-3q0 -30 -26 -30h-463q-11 0 -18 7.5zM458 68l-166 541h-6l-167 -541h339z" />
    <glyph glyph-name="uni03A9" unicode="&#x3a9;" horiz-adv-x="599" 
d="M35 30v8q0 30 19 30q29 0 73 -4q-78 93 -78 288q0 175 64 264.5t186 89.5t186.5 -90t64.5 -264q0 -196 -79 -288q44 4 73 4q10 0 14.5 -7t4.5 -23v-8q0 -16 -4.5 -23t-14.5 -7h-192q-10 0 -15 7t-5 23v4q0 8 1.5 12.5t6.5 6.5q58 20 87.5 94t29.5 205q0 137 -40 207.5
t-118 70.5t-118 -70.5t-40 -207.5q0 -131 29.5 -204.5t87.5 -94.5q5 -2 6.5 -6.5t1.5 -12.5v-4q0 -30 -19 -30h-193q-19 0 -19 30z" />
    <glyph glyph-name="uni03BC" unicode="&#x3bc;" horiz-adv-x="467" 
d="M399.5 53.5q4.5 -28.5 4.5 -31.5q0 -12 -21 -17.5t-39 -5.5q-12 0 -17.5 14.5t-8 31.5t-3.5 24q-23 -35 -55.5 -55t-68.5 -20q-21 0 -39 9v-189q0 -22 -37 -22h-11q-38 0 -38 22v689q0 22 38 22h11q37 0 37 -22v-339q0 -46 18 -71.5t52 -25.5q25 0 48 18.5t39 51.5v366
q0 22 38 22h10q38 0 38 -22v-355q0 -66 4.5 -94.5z" />
    <glyph glyph-name="pi" unicode="&#x3c0;" horiz-adv-x="507" 
d="M66 4q-9 6 -9 15q0 3 2 9q21 82 37 202t20 221q-38 0 -57 -4.5t-23 -4.5q-13 0 -17 8.5t-4 28.5q0 44 121 44h324q12 0 17.5 -4t5.5 -15l-3 -31q-1 -13 -7 -17.5t-19 -4.5h-42v-297q0 -38 5 -96q2 -28 2 -35q0 -25 -31 -25h-20q-19 0 -27.5 14.5t-11 44t-2.5 89.5v305
h-126q-4 -103 -20.5 -229t-37.5 -199q-4 -12 -14 -18.5t-24 -6.5h-15q-15 0 -24 6z" />
    <glyph glyph-name="uni1E0C" unicode="&#x1e0c;" horiz-adv-x="577" 
d="M84.5 7q-6.5 7 -6.5 23v640q0 16 6.5 23t20.5 7h168q251 0 251 -350t-251 -350h-168q-14 0 -20.5 7zM271 76q75 0 118 65.5t43 208.5q0 142 -43 208t-118 66h-102v-548h102zM231 -153v51q0 22 46 22q44 0 44 -22v-51q0 -22 -46 -22q-44 0 -44 22z" />
    <glyph glyph-name="uni1E0D" unicode="&#x1e0d;" horiz-adv-x="481" 
d="M121.5 28q-35.5 34 -55 95t-19.5 141q0 125 45 195t120 70q35 0 59.5 -13t46.5 -38v252q0 22 37 22h11q38 0 38 -22v-582q0 -63 5 -93t5 -34q0 -11 -21.5 -16.5t-36.5 -5.5t-20.5 14t-8.5 32l-4 24q-23 -37 -53.5 -56t-65.5 -19q-47 0 -82.5 34zM274.5 85
q24.5 18 43.5 51v274q-34 45 -84 45q-98 0 -98 -190q0 -94 22.5 -146t66.5 -52q25 0 49.5 18zM190 -153v51q0 22 46 22q44 0 44 -22v-51q0 -22 -46 -22q-44 0 -44 22z" />
    <glyph glyph-name="uni1E24" unicode="&#x1e24;" horiz-adv-x="601" 
d="M78 20v660q0 22 38 22h15q37 0 37 -22v-283h263v283q0 22 38 22h14q38 0 38 -22v-660q0 -22 -38 -22h-14q-38 0 -38 22v301h-263v-301q0 -22 -37 -22h-15q-38 0 -38 22zM258 -153v51q0 22 46 22q44 0 44 -22v-51q0 -22 -46 -22q-44 0 -44 22z" />
    <glyph glyph-name="uni1E25" unicode="&#x1e25;" horiz-adv-x="485" 
d="M81 20v710q0 22 38 22h11q37 0 37 -22v-268q21 31 52.5 49t69.5 18q55 0 91.5 -38.5t36.5 -117.5v-353q0 -22 -38 -22h-10q-38 0 -38 22v345q0 44 -18 67.5t-53 23.5q-34 0 -60 -24t-33 -46v-366q0 -22 -38 -22h-10q-38 0 -38 22zM204 -153v51q0 22 46 22q44 0 44 -22
v-51q0 -22 -46 -22q-44 0 -44 22z" />
    <glyph glyph-name="uni1E44" unicode="&#x1e44;" horiz-adv-x="590" 
d="M251 806v51q0 22 46 22q44 0 44 -22v-51q0 -22 -46 -22q-44 0 -44 22zM73 20v660q0 22 38 22h24q15 0 24 -4.5t15 -15.5l232 -447q14 -26 26 -63l5 2q-8 35 -8 66v440q0 22 38 22h12q38 0 38 -22v-660q0 -22 -38 -22h-21q-28 0 -36 15l-238 462q-14 26 -26 63l-5 -2
q8 -35 8 -66v-450q0 -22 -38 -22h-12q-38 0 -38 22z" />
    <glyph glyph-name="uni1E45" unicode="&#x1e45;" 
d="M200 629v51q0 22 46 22q44 0 44 -22v-51q0 -22 -46 -22q-44 0 -44 22zM78 20v353q0 65 -5 94t-5 32q0 12 21.5 17.5t36.5 5.5q14 0 19.5 -13t8.5 -30t4 -25q23 35 56 55t70 20q62 0 96 -41.5t34 -114.5v-353q0 -22 -38 -22h-10q-39 0 -39 22v345q0 44 -18 67.5t-53 23.5
q-27 0 -52 -19.5t-40 -50.5v-366q0 -22 -38 -22h-11q-37 0 -37 22z" />
    <glyph glyph-name="uni1E5A" unicode="&#x1e5a;" horiz-adv-x="513" 
d="M77 20v650q0 16 6.5 23t20.5 7h148q99 0 147 -42t48 -135q0 -62 -24.5 -104.5t-67.5 -64.5v-4q20 -10 35 -39t34 -86l63 -197q3 -9 3 -14q0 -16 -39 -16h-17q-14 0 -24.5 4.5t-12.5 11.5l-60 196q-18 57 -40.5 77.5t-66.5 20.5h-63v-288q0 -22 -38 -22h-14q-38 0 -38 22z
M267 384q36 0 61.5 36.5t25.5 86.5q0 59 -24.5 88t-68.5 29h-95v-240h101zM212 -153v51q0 22 46 22q44 0 44 -22v-51q0 -22 -46 -22q-44 0 -44 22z" />
    <glyph glyph-name="uni1E5B" unicode="&#x1e5b;" horiz-adv-x="337" 
d="M83 20v353q0 66 -6 94.5t-6 31.5q0 12 19 17.5t35 5.5q14 0 20.5 -15t10 -31.5t4.5 -21.5q48 75 105 75q25 0 38.5 -11t13.5 -28t-6 -35.5t-14 -18.5q-5 0 -18 5.5t-31 5.5q-26 0 -49.5 -21.5t-31.5 -39.5v-366q0 -22 -40 -22h-4q-40 0 -40 22zM84 -155v51q0 22 46 22
q44 0 44 -22v-51q0 -22 -46 -22q-44 0 -44 22z" />
    <glyph glyph-name="uni1E62" unicode="&#x1e62;" horiz-adv-x="437" 
d="M43 41q-6 4 -8.5 8.5t-2.5 14.5q0 18 6.5 37.5t16.5 19.5q4 0 6 -2t3 -2q55 -43 139 -43q51 0 83.5 30.5t32.5 82.5q0 47 -26 73.5t-77 52.5q-57 28 -90.5 51t-56 59.5t-22.5 91.5q0 91 57.5 143.5t149.5 52.5q71 0 122 -30q7 -4 7 -12q0 -13 -9.5 -37t-18.5 -24
q-3 0 -13 5q-38 19 -93 19q-48 0 -81 -27.5t-33 -79.5q0 -45 27.5 -72.5t89.5 -59.5q51 -26 82.5 -48.5t52.5 -59t21 -91.5q0 -94 -58 -146.5t-150 -52.5q-93 0 -157 46zM178 -153v51q0 22 46 22q44 0 44 -22v-51q0 -22 -46 -22q-44 0 -44 22z" />
    <glyph glyph-name="uni1E63" unicode="&#x1e63;" horiz-adv-x="353" 
d="M97.5 1.5q-31.5 10.5 -50 25.5t-18.5 26t13 31t21 20q2 0 17.5 -11t35.5 -19.5t45 -8.5q37 0 56.5 18.5t19.5 54.5q0 35 -21.5 59t-66.5 46q-55 25 -81.5 58t-26.5 87q0 63 41.5 102.5t105.5 39.5q41 0 76 -13t35 -30q0 -12 -11.5 -33t-19.5 -21q-2 0 -23.5 12.5
t-51.5 12.5q-29 0 -48.5 -16t-19.5 -45q0 -34 19.5 -56.5t55.5 -40.5q61 -28 90 -64t29 -96q0 -67 -44 -108t-110 -41q-36 0 -67.5 10.5zM135 -153v51q0 22 46 22q44 0 44 -22v-51q0 -22 -46 -22q-44 0 -44 22z" />
    <glyph glyph-name="uni1E6C" unicode="&#x1e6c;" horiz-adv-x="454" 
d="M183 20v604h-144q-19 0 -19 30v16q0 30 19 30h376q11 0 15.5 -7t4.5 -23v-16q0 -16 -4.5 -23t-15.5 -7h-142v-604q0 -22 -38 -22h-14q-38 0 -38 22zM185 -153v51q0 22 46 22q44 0 44 -22v-51q0 -22 -46 -22q-44 0 -44 22z" />
    <glyph glyph-name="uni1E6D" unicode="&#x1e6d;" horiz-adv-x="298" 
d="M125 20.5q-34 26.5 -34 94.5v336h-33q-10 0 -15 7t-5 23v12q0 16 5 23t15 7h33l12 105q2 22 32 22h10q30 0 30 -22v-105h66q11 0 15.5 -7t4.5 -23v-12q0 -16 -4.5 -23t-15.5 -7h-66v-322q0 -36 10 -49.5t29 -13.5q13 0 22 2.5t12 2.5q9 0 15 -18t6 -30q0 -16 -20.5 -22.5
t-45.5 -6.5q-44 0 -78 26.5zM141 -153v51q0 22 46 22q44 0 44 -22v-51q0 -22 -46 -22q-44 0 -44 22z" />
    <glyph glyph-name="Wgrave" unicode="&#x1e80;" horiz-adv-x="752" 
d="M353 780q-56 75 -67.5 91.5t-11.5 24.5q0 7 10 10t32 3q43 0 57 -26l20 -42q13 -29 20.5 -46t7.5 -23q0 -5 -4.5 -7.5t-16.5 -2.5q-35 0 -47 18zM160 14l-139 657l-2 12q0 19 40 19h13q36 0 39 -16l92 -483q6 -30 13 -86l3 -25l20 114l93 479q4 17 36 17h20q32 0 36 -17
l94 -481q8 -37 17 -112l19 111l89 483q3 16 40 16h11q40 0 40 -19l-2 -12l-140 -657q-3 -16 -36 -16h-40q-33 0 -36 16l-88 421l-16 125l-16 -125l-88 -421q-3 -16 -36 -16h-40q-33 0 -36 16z" />
    <glyph glyph-name="wgrave" unicode="&#x1e81;" horiz-adv-x="616" 
d="M285 603q-56 75 -67.5 91.5t-11.5 24.5q0 7 10 10t32 3q43 0 57 -26l20 -42q13 -29 20.5 -46t7.5 -23q0 -5 -4.5 -7.5t-16.5 -2.5q-35 0 -47 18zM124 14l-106 474q-3 18 -3 20q0 17 41 17q43 0 46 -16l56 -319l5 -24l15 -82h5q3 20 20 107l61 317q4 17 35 17h19
q32 0 36 -17l62 -317l6 -29q10 -47 14 -77h5l11 61q6 23 9 44l55 319q3 16 46 16q39 0 39 -17l-2 -17l-107 -477q-3 -16 -36 -16h-34q-33 0 -36 16l-60 295q-11 58 -15 89h-4q-3 -31 -15 -89l-61 -295q-4 -16 -36 -16h-35q-33 0 -36 16z" />
    <glyph glyph-name="Wacute" unicode="&#x1e82;" horiz-adv-x="752" 
d="M348 772q0 7 12.5 34t36.5 77q12 26 56 26q22 0 32 -3t10 -10q0 -6 -9 -19l-27 -39l-42 -58q-12 -18 -48 -18q-21 0 -21 10zM160 14l-139 657l-2 12q0 19 40 19h13q36 0 39 -16l92 -483q6 -30 13 -86l3 -25l20 114l93 479q4 17 36 17h20q32 0 36 -17l94 -481
q8 -37 17 -112l19 111l89 483q3 16 40 16h11q40 0 40 -19l-2 -12l-140 -657q-3 -16 -36 -16h-40q-33 0 -36 16l-88 421l-16 125l-16 -125l-88 -421q-3 -16 -36 -16h-40q-33 0 -36 16z" />
    <glyph glyph-name="wacute" unicode="&#x1e83;" horiz-adv-x="616" 
d="M280 595q0 7 12.5 34t36.5 77q12 26 56 26q22 0 32 -3t10 -10q0 -6 -9 -19l-27 -39l-42 -58q-12 -18 -48 -18q-21 0 -21 10zM124 14l-106 474q-3 18 -3 20q0 17 41 17q43 0 46 -16l56 -319l5 -24l15 -82h5q3 20 20 107l61 317q4 17 35 17h19q32 0 36 -17l62 -317l6 -29
q10 -47 14 -77h5l11 61q6 23 9 44l55 319q3 16 46 16q39 0 39 -17l-2 -17l-107 -477q-3 -16 -36 -16h-34q-33 0 -36 16l-60 295q-11 58 -15 89h-4q-3 -31 -15 -89l-61 -295q-4 -16 -36 -16h-35q-33 0 -36 16z" />
    <glyph glyph-name="Wdieresis" unicode="&#x1e84;" horiz-adv-x="752" 
d="M275 806v51q0 22 40 22q38 0 38 -22v-51q0 -22 -40 -22q-38 0 -38 22zM401 806v51q0 22 40 22q38 0 38 -22v-51q0 -22 -40 -22q-38 0 -38 22zM160 14l-139 657l-2 12q0 19 40 19h13q36 0 39 -16l92 -483q6 -30 13 -86l3 -25l20 114l93 479q4 17 36 17h20q32 0 36 -17
l94 -481q8 -37 17 -112l19 111l89 483q3 16 40 16h11q40 0 40 -19l-2 -12l-140 -657q-3 -16 -36 -16h-40q-33 0 -36 16l-88 421l-16 125l-16 -125l-88 -421q-3 -16 -36 -16h-40q-33 0 -36 16z" />
    <glyph glyph-name="wdieresis" unicode="&#x1e85;" horiz-adv-x="616" 
d="M207 629v51q0 22 40 22q38 0 38 -22v-51q0 -22 -40 -22q-38 0 -38 22zM333 629v51q0 22 40 22q38 0 38 -22v-51q0 -22 -40 -22q-38 0 -38 22zM124 14l-106 474q-3 18 -3 20q0 17 41 17q43 0 46 -16l56 -319l5 -24l15 -82h5q3 20 20 107l61 317q4 17 35 17h19q32 0 36 -17
l62 -317l6 -29q10 -47 14 -77h5l11 61q6 23 9 44l55 319q3 16 46 16q39 0 39 -17l-2 -17l-107 -477q-3 -16 -36 -16h-34q-33 0 -36 16l-60 295q-11 58 -15 89h-4q-3 -31 -15 -89l-61 -295q-4 -16 -36 -16h-35q-33 0 -36 16z" />
    <glyph glyph-name="uni1E92" unicode="&#x1e92;" horiz-adv-x="507" 
d="M42 18.5q-8 18.5 -8 34.5q0 6 2 12l321 559h-279q-10 0 -14 8t-4 26v8q0 18 4 26t14 8h366q7 0 14.5 -18.5t7.5 -34.5q0 -9 -1 -12l-319 -559h301q19 0 19 -34v-8q0 -34 -19 -34h-389q-8 0 -16 18.5zM220 -153v51q0 22 46 22q44 0 44 -22v-51q0 -22 -46 -22q-44 0 -44 22
z" />
    <glyph glyph-name="uni1E93" unicode="&#x1e93;" horiz-adv-x="405" 
d="M41 18q-7 18 -7 33q0 5 2 11l226 389h-194q-19 0 -19 30v12q0 30 19 30h282q6 0 12 -19t6 -33q0 -6 -2 -10l-225 -389h210q19 0 19 -30v-12q0 -30 -19 -30h-297q-6 0 -13 18zM158 -153v51q0 22 46 22q44 0 44 -22v-51q0 -22 -46 -22q-44 0 -44 22z" />
    <glyph glyph-name="uni1E9E" unicode="&#x1e9e;" horiz-adv-x="593" 
d="M290 3.5q-32 9.5 -51.5 23t-19.5 25.5q0 13 13.5 31t21.5 18q9 0 18.5 -5.5t11.5 -6.5q16 -11 31.5 -17t37.5 -6q45 0 79.5 32t34.5 109q0 70 -30 99.5t-85 29.5h-35q-7 0 -15.5 19t-8.5 34q0 8 3 12l125 211q-49 18 -110 18q-76 0 -111 -43t-35 -141v-426q0 -22 -40 -22
h-8q-40 0 -40 22v427q0 129 56.5 193.5t167.5 64.5q97 0 201 -34q6 -2 14 -20.5t8 -32.5q0 -7 -3 -12l-118 -195q69 -14 110 -65.5t41 -139.5q0 -75 -29 -122.5t-73.5 -68.5t-92.5 -21q-37 0 -69 9.5z" />
    <glyph glyph-name="uni1EA0" unicode="&#x1ea0;" horiz-adv-x="505" 
d="M13 15q0 3 2 13l181 655q6 19 40 19h32q36 0 40 -19l181 -655q3 -7 3 -13q0 -8 -9.5 -12.5t-27.5 -4.5h-17q-32 0 -36 16l-43 164h-215l-42 -164q-4 -16 -36 -16h-16q-37 0 -37 17zM337 254l-71 274q-3 13 -11 61h-5q-2 -7 -4 -23l-8 -38l-71 -274h170zM212 -153v51
q0 22 46 22q44 0 44 -22v-51q0 -22 -46 -22q-44 0 -44 22z" />
    <glyph glyph-name="uni1EA1" unicode="&#x1ea1;" horiz-adv-x="481" 
d="M90.5 34.5q-39.5 40.5 -39.5 114.5q0 75 39 115t97 53.5t133 14.5v47q0 34 -21 56t-66 22q-35 0 -61.5 -8.5t-45.5 -18t-22 -9.5q-10 0 -22.5 19.5t-12.5 29.5q0 13 23.5 27t62 23t79.5 9q80 0 125 -40t45 -111v-230q0 -66 6 -94.5t6 -31.5q0 -12 -19 -17.5t-35 -5.5
q-15 0 -22 15.5t-13 43.5q-53 -64 -130 -64q-67 0 -106.5 40.5zM320 130v129q-56 -1 -92.5 -8t-62.5 -30.5t-26 -70.5q0 -77 75 -77q65 0 106 57zM192 -153v51q0 22 46 22q44 0 44 -22v-51q0 -22 -46 -22q-44 0 -44 22z" />
    <glyph glyph-name="uni1EA2" unicode="&#x1ea2;" horiz-adv-x="505" 
d="M13 15q0 3 2 13l181 655q6 19 40 19h32q36 0 40 -19l181 -655q3 -7 3 -13q0 -8 -9.5 -12.5t-27.5 -4.5h-17q-32 0 -36 16l-43 164h-215l-42 -164q-4 -16 -36 -16h-16q-37 0 -37 17zM337 254l-71 274q-3 13 -11 61h-5q-2 -7 -4 -23l-8 -38l-71 -274h170zM239.5 745.5
q-12.5 5.5 -12.5 11.5q0 9 5.5 15t19.5 18q17 14 27 27t10 32q0 13 -10.5 20t-26.5 7q-22 0 -32.5 -6.5t-13.5 -6.5q-6 0 -15 12.5t-9 20.5q0 10 26 20.5t52 10.5q33 0 62 -17t29 -54q0 -30 -18.5 -56t-41.5 -43t-31 -17t-20.5 5.5z" />
    <glyph glyph-name="uni1EA3" unicode="&#x1ea3;" horiz-adv-x="481" 
d="M90.5 34.5q-39.5 40.5 -39.5 114.5q0 75 39 115t97 53.5t133 14.5v47q0 34 -21 56t-66 22q-35 0 -61.5 -8.5t-45.5 -18t-22 -9.5q-10 0 -22.5 19.5t-12.5 29.5q0 13 23.5 27t62 23t79.5 9q80 0 125 -40t45 -111v-230q0 -66 6 -94.5t6 -31.5q0 -12 -19 -17.5t-35 -5.5
q-15 0 -22 15.5t-13 43.5q-53 -64 -130 -64q-67 0 -106.5 40.5zM320 130v129q-56 -1 -92.5 -8t-62.5 -30.5t-26 -70.5q0 -77 75 -77q65 0 106 57zM230.5 568.5q-12.5 5.5 -12.5 11.5q0 9 5.5 15t19.5 18q17 14 27 27t10 32q0 13 -10.5 20t-26.5 7q-22 0 -32.5 -6.5
t-13.5 -6.5q-6 0 -15 12.5t-9 20.5q0 10 26 20.5t52 10.5q33 0 62 -17t29 -54q0 -30 -18.5 -56t-41.5 -43t-31 -17t-20.5 5.5z" />
    <glyph glyph-name="uni1EA4" unicode="&#x1ea4;" horiz-adv-x="491" 
d="M320 859q0 7 10.5 31.5t31.5 69.5q12 26 54 26q17 0 24 -3t7 -10q0 -6 -9.5 -21t-31.5 -47q-10 -12 -27 -38q-13 -18 -36 -18t-23 10zM148 756.5q-5 3.5 -5 9.5q0 9 5 19l48 88q12 22 41 22h16q29 0 41 -22l48 -88q1 -2 4 -7.5t3 -9.5q0 -7 -5.5 -11t-14.5 -4h-19
q-17 0 -26 13l-39 74l-39 -74q-4 -8 -10 -10.5t-16 -2.5h-18q-9 0 -14 3.5zM13 15q0 3 2 13l181 655q6 19 40 19h32q36 0 40 -19l181 -655q3 -7 3 -13q0 -8 -9.5 -12.5t-27.5 -4.5h-17q-32 0 -36 16l-43 164h-215l-42 -164q-4 -16 -36 -16h-16q-37 0 -37 17zM337 254
l-71 274q-3 13 -11 61h-5q-2 -7 -4 -23l-8 -38l-71 -274h170z" />
    <glyph glyph-name="uni1EA5" unicode="&#x1ea5;" horiz-adv-x="445" 
d="M302 732q0 7 12.5 34t36.5 77q12 26 56 26q22 0 32 -3t10 -10q0 -6 -9 -19l-27 -39l-42 -58q-12 -18 -48 -18q-21 0 -21 10zM125 580q-5 4 -5 9q0 9 5 19l48 88q13 22 42 22h16q28 0 40 -22l48 -88q7 -10 7 -17t-5.5 -11t-14.5 -4h-19q-7 0 -14 3.5t-11 9.5l-40 74
l-39 -74q-4 -8 -10 -10.5t-16 -2.5h-18q-9 0 -14 4zM90.5 34.5q-39.5 40.5 -39.5 114.5q0 75 39 115t97 53.5t133 14.5v47q0 34 -21 56t-66 22q-35 0 -61.5 -8.5t-45.5 -18t-22 -9.5q-10 0 -22.5 19.5t-12.5 29.5q0 13 23.5 27t62 23t79.5 9q80 0 125 -40t45 -111v-230
q0 -66 6 -94.5t6 -31.5q0 -12 -19 -17.5t-35 -5.5q-15 0 -22 15.5t-13 43.5q-53 -64 -130 -64q-67 0 -106.5 40.5zM320 130v129q-56 -1 -92.5 -8t-62.5 -30.5t-26 -70.5q0 -77 75 -77q65 0 106 57z" />
    <glyph glyph-name="uni1EA6" unicode="&#x1ea6;" horiz-adv-x="491" 
d="M340 867l-30 46q-18 28 -26 41t-8 19q0 7 7 10t25 3q42 0 53 -26q19 -45 28.5 -69.5t9.5 -31.5q0 -10 -23 -10q-24 0 -36 18zM148 756.5q-5 3.5 -5 9.5q0 9 5 19l48 88q12 22 41 22h16q29 0 41 -22l48 -88q1 -2 4 -7.5t3 -9.5q0 -7 -5.5 -11t-14.5 -4h-19q-17 0 -26 13
l-39 74l-39 -74q-4 -8 -10 -10.5t-16 -2.5h-18q-9 0 -14 3.5zM13 15q0 3 2 13l181 655q6 19 40 19h32q36 0 40 -19l181 -655q3 -7 3 -13q0 -8 -9.5 -12.5t-27.5 -4.5h-17q-32 0 -36 16l-43 164h-215l-42 -164q-4 -16 -36 -16h-16q-37 0 -37 17zM337 254l-71 274
q-3 13 -11 61h-5q-2 -7 -4 -23l-8 -38l-71 -274h170z" />
    <glyph glyph-name="uni1EA7" unicode="&#x1ea7;" horiz-adv-x="445" 
d="M307 740q-56 75 -67.5 91.5t-11.5 24.5q0 7 10 10t32 3q43 0 57 -26l20 -42q13 -29 20.5 -46t7.5 -23q0 -5 -4.5 -7.5t-16.5 -2.5q-35 0 -47 18zM125 580q-5 4 -5 9q0 9 5 19l48 88q13 22 42 22h16q28 0 40 -22l48 -88q7 -10 7 -17t-5.5 -11t-14.5 -4h-19q-7 0 -14 3.5
t-11 9.5l-40 74l-39 -74q-4 -8 -10 -10.5t-16 -2.5h-18q-9 0 -14 4zM90.5 34.5q-39.5 40.5 -39.5 114.5q0 75 39 115t97 53.5t133 14.5v47q0 34 -21 56t-66 22q-35 0 -61.5 -8.5t-45.5 -18t-22 -9.5q-10 0 -22.5 19.5t-12.5 29.5q0 13 23.5 27t62 23t79.5 9q80 0 125 -40
t45 -111v-230q0 -66 6 -94.5t6 -31.5q0 -12 -19 -17.5t-35 -5.5q-15 0 -22 15.5t-13 43.5q-53 -64 -130 -64q-67 0 -106.5 40.5zM320 130v129q-56 -1 -92.5 -8t-62.5 -30.5t-26 -70.5q0 -77 75 -77q65 0 106 57z" />
    <glyph glyph-name="uni1EA8" unicode="&#x1ea8;" horiz-adv-x="491" 
d="M328 862.5q-11 6.5 -11 13.5q0 5 5.5 9.5t19.5 12.5q31 17 31 37q0 13 -10.5 20t-26.5 7q-22 0 -32.5 -6.5t-13.5 -6.5q-6 0 -15 12.5t-9 20.5q0 10 26 19t52 9q32 0 59 -16.5t27 -51.5q0 -21 -9.5 -36t-25.5 -28q-10 -8 -23 -15t-18 -7q-15 0 -26 6.5zM148 756.5
q-5 3.5 -5 9.5q0 9 5 19l48 88q12 22 41 22h16q29 0 41 -22l48 -88q1 -2 4 -7.5t3 -9.5q0 -7 -5.5 -11t-14.5 -4h-19q-17 0 -26 13l-39 74l-39 -74q-4 -8 -10 -10.5t-16 -2.5h-18q-9 0 -14 3.5zM13 15q0 3 2 13l181 655q6 19 40 19h32q36 0 40 -19l181 -655q3 -7 3 -13
q0 -8 -9.5 -12.5t-27.5 -4.5h-17q-32 0 -36 16l-43 164h-215l-42 -164q-4 -16 -36 -16h-16q-37 0 -37 17zM337 254l-71 274q-3 13 -11 61h-5q-2 -7 -4 -23l-8 -38l-71 -274h170z" />
    <glyph glyph-name="uni1EA9" unicode="&#x1ea9;" horiz-adv-x="445" 
d="M316.5 705.5q-12.5 5.5 -12.5 11.5q0 9 5.5 15t19.5 18q17 14 27 27t10 32q0 13 -10.5 20t-26.5 7q-22 0 -32.5 -6.5t-13.5 -6.5q-6 0 -15 12.5t-9 20.5q0 10 26 20.5t52 10.5q33 0 62 -17t29 -54q0 -30 -18.5 -56t-41.5 -43t-31 -17t-20.5 5.5zM125 580q-5 4 -5 9
q0 9 5 19l48 88q13 22 42 22h16q28 0 40 -22l48 -88q7 -10 7 -17t-5.5 -11t-14.5 -4h-19q-7 0 -14 3.5t-11 9.5l-40 74l-39 -74q-4 -8 -10 -10.5t-16 -2.5h-18q-9 0 -14 4zM90.5 34.5q-39.5 40.5 -39.5 114.5q0 75 39 115t97 53.5t133 14.5v47q0 34 -21 56t-66 22
q-35 0 -61.5 -8.5t-45.5 -18t-22 -9.5q-10 0 -22.5 19.5t-12.5 29.5q0 13 23.5 27t62 23t79.5 9q80 0 125 -40t45 -111v-230q0 -66 6 -94.5t6 -31.5q0 -12 -19 -17.5t-35 -5.5q-15 0 -22 15.5t-13 43.5q-53 -64 -130 -64q-67 0 -106.5 40.5zM320 130v129q-56 -1 -92.5 -8
t-62.5 -30.5t-26 -70.5q0 -77 75 -77q65 0 106 57z" />
    <glyph glyph-name="uni1EAA" unicode="&#x1eaa;" horiz-adv-x="491" 
d="M121 904q-9 5 -9 12q0 6 3 13q13 37 31 53t44 16q13 0 27.5 -5.5t36.5 -15.5q36 -19 52 -19q11 0 18.5 5.5t15.5 20.5t18 15q4 0 10 -3l6 -3q5 -2 8 -5t3 -7q0 -5 -3 -14q-14 -36 -32 -52t-43 -16q-15 0 -30.5 5.5t-36.5 16.5q-14 7 -28 12.5t-23 5.5q-10 0 -17 -6
t-16 -21q-8 -14 -16 -14q-2 0 -10 2zM143 767q0 4 7 18l46 66q17 22 42 22h16q26 0 42 -22l46 -66q7 -11 7 -18q0 -6 -5 -10t-14 -4h-19q-17 0 -27 13l-39 58l-37 -58q-10 -13 -27 -13h-19q-19 0 -19 14zM13 15q0 3 2 13l181 655q6 19 40 19h32q36 0 40 -19l181 -655
q3 -7 3 -13q0 -8 -9.5 -12.5t-27.5 -4.5h-17q-32 0 -36 16l-43 164h-215l-42 -164q-4 -16 -36 -16h-16q-37 0 -37 17zM337 254l-71 274q-3 13 -11 61h-5q-2 -7 -4 -23l-8 -38l-71 -274h170z" />
    <glyph glyph-name="uni1EAB" unicode="&#x1eab;" horiz-adv-x="445" 
d="M106 756q-9 5 -9 12q0 6 3 13q13 37 31 53t44 16q13 0 28 -5.5t35 -16.5q14 -7 28 -12.5t24 -5.5q11 0 18.5 5.5t16.5 20.5q8 15 18 15q4 0 10 -3l6 -3q5 -2 8 -5t3 -7q0 -6 -4 -14q-13 -36 -31 -52t-43 -16q-15 0 -30.5 5.5t-36.5 16.5q-14 7 -28 12.5t-24 5.5t-17 -6
t-15 -21q-8 -14 -16 -14q-2 0 -10 2zM120 590q0 5 8 18l45 66q17 22 42 22h16q27 0 43 -22l45 -66q7 -11 7 -18q0 -6 -5 -10t-14 -4h-19q-16 0 -26 13l-39 58l-38 -58q-8 -13 -27 -13h-19q-19 0 -19 14zM90.5 34.5q-39.5 40.5 -39.5 114.5q0 75 39 115t97 53.5t133 14.5v47
q0 34 -21 56t-66 22q-35 0 -61.5 -8.5t-45.5 -18t-22 -9.5q-10 0 -22.5 19.5t-12.5 29.5q0 13 23.5 27t62 23t79.5 9q80 0 125 -40t45 -111v-230q0 -66 6 -94.5t6 -31.5q0 -12 -19 -17.5t-35 -5.5q-15 0 -22 15.5t-13 43.5q-53 -64 -130 -64q-67 0 -106.5 40.5zM320 130v129
q-56 -1 -92.5 -8t-62.5 -30.5t-26 -70.5q0 -77 75 -77q65 0 106 57z" />
    <glyph glyph-name="uni1EAC" unicode="&#x1eac;" horiz-adv-x="505" 
d="M149 757q-5 4 -5 9t7 19l52 88q14 22 42 22h15q27 0 41 -22l54 -88q6 -12 6 -17q0 -7 -5 -11t-14 -4h-20q-16 0 -25 14l-45 73l-44 -73q-11 -14 -26 -14h-19q-9 0 -14 4zM13 15q0 3 2 13l181 655q6 19 40 19h32q36 0 40 -19l181 -655q3 -7 3 -13q0 -8 -9.5 -12.5
t-27.5 -4.5h-17q-32 0 -36 16l-43 164h-215l-42 -164q-4 -16 -36 -16h-16q-37 0 -37 17zM337 254l-71 274q-3 13 -11 61h-5q-2 -7 -4 -23l-8 -38l-71 -274h170zM212 -153v51q0 22 46 22q44 0 44 -22v-51q0 -22 -46 -22q-44 0 -44 22z" />
    <glyph glyph-name="uni1EAD" unicode="&#x1ead;" horiz-adv-x="481" 
d="M140 580q-5 4 -5 9t7 19l52 88q14 22 42 22h15q27 0 41 -22l54 -88q6 -12 6 -17q0 -7 -5 -11t-14 -4h-20q-16 0 -25 14l-45 73l-44 -73q-11 -14 -26 -14h-19q-9 0 -14 4zM90.5 34.5q-39.5 40.5 -39.5 114.5q0 75 39 115t97 53.5t133 14.5v47q0 34 -21 56t-66 22
q-35 0 -61.5 -8.5t-45.5 -18t-22 -9.5q-10 0 -22.5 19.5t-12.5 29.5q0 13 23.5 27t62 23t79.5 9q80 0 125 -40t45 -111v-230q0 -66 6 -94.5t6 -31.5q0 -12 -19 -17.5t-35 -5.5q-15 0 -22 15.5t-13 43.5q-53 -64 -130 -64q-67 0 -106.5 40.5zM320 130v129q-56 -1 -92.5 -8
t-62.5 -30.5t-26 -70.5q0 -77 75 -77q65 0 106 57zM192 -153v51q0 22 46 22q44 0 44 -22v-51q0 -22 -46 -22q-44 0 -44 22z" />
    <glyph glyph-name="uni1EAE" unicode="&#x1eae;" horiz-adv-x="491" 
d="M213 856q0 7 10.5 31.5t31.5 69.5q12 26 54 26q17 0 24 -3t7 -10q0 -6 -9.5 -21t-31.5 -47q-10 -12 -27 -38q-13 -18 -36 -18t-23 10zM162 788.5q-33 26.5 -33 68.5q0 13 3.5 17.5t12.5 4.5q8 0 11.5 -3.5t6.5 -10.5t5 -11q7 -16 28 -28.5t50 -12.5t50 13t27 28q1 3 4 11
t7 11t12 3q9 0 12.5 -5t3.5 -17q0 -42 -32.5 -68.5t-83.5 -26.5t-84 26.5zM13 15q0 3 2 13l181 655q6 19 40 19h32q36 0 40 -19l181 -655q3 -7 3 -13q0 -8 -9.5 -12.5t-27.5 -4.5h-17q-32 0 -36 16l-43 164h-215l-42 -164q-4 -16 -36 -16h-16q-37 0 -37 17zM337 254l-71 274
q-3 13 -11 61h-5q-2 -7 -4 -23l-8 -38l-71 -274h170z" />
    <glyph glyph-name="uni1EAF" unicode="&#x1eaf;" horiz-adv-x="481" 
d="M215 772q0 7 12.5 34t36.5 77q12 26 56 26q22 0 32 -3t10 -10q0 -6 -9 -19l-27 -39l-42 -58q-12 -18 -48 -18q-21 0 -21 10zM160.5 615q-33.5 30 -33.5 85q0 15 18 15q7 0 10.5 -3.5t6 -10.5t4.5 -11q15 -39 78 -39t78 39q1 3 4 11t6.5 11t9.5 3q18 0 18 -15
q0 -55 -33.5 -85t-82.5 -30q-50 0 -83.5 30zM90.5 34.5q-39.5 40.5 -39.5 114.5q0 75 39 115t97 53.5t133 14.5v47q0 34 -21 56t-66 22q-35 0 -61.5 -8.5t-45.5 -18t-22 -9.5q-10 0 -22.5 19.5t-12.5 29.5q0 13 23.5 27t62 23t79.5 9q80 0 125 -40t45 -111v-230
q0 -66 6 -94.5t6 -31.5q0 -12 -19 -17.5t-35 -5.5q-15 0 -22 15.5t-13 43.5q-53 -64 -130 -64q-67 0 -106.5 40.5zM320 130v129q-56 -1 -92.5 -8t-62.5 -30.5t-26 -70.5q0 -77 75 -77q65 0 106 57z" />
    <glyph glyph-name="uni1EB0" unicode="&#x1eb0;" horiz-adv-x="491" 
d="M233 864l-30 46q-18 28 -26 41t-8 19q0 7 7 10t25 3q42 0 53 -26q19 -45 28.5 -69.5t9.5 -31.5q0 -10 -23 -10q-24 0 -36 18zM162 788.5q-33 26.5 -33 68.5q0 13 3.5 17.5t12.5 4.5q8 0 11.5 -3.5t6.5 -10.5t5 -11q7 -16 28 -28.5t50 -12.5t50 13t27 28q1 3 4 11t7 11
t12 3q9 0 12.5 -5t3.5 -17q0 -42 -32.5 -68.5t-83.5 -26.5t-84 26.5zM13 15q0 3 2 13l181 655q6 19 40 19h32q36 0 40 -19l181 -655q3 -7 3 -13q0 -8 -9.5 -12.5t-27.5 -4.5h-17q-32 0 -36 16l-43 164h-215l-42 -164q-4 -16 -36 -16h-16q-37 0 -37 17zM337 254l-71 274
q-3 13 -11 61h-5q-2 -7 -4 -23l-8 -38l-71 -274h170z" />
    <glyph glyph-name="uni1EB1" unicode="&#x1eb1;" horiz-adv-x="481" 
d="M220 780q-56 75 -67.5 91.5t-11.5 24.5q0 7 10 10t32 3q43 0 57 -26l20 -42q13 -29 20.5 -46t7.5 -23q0 -5 -4.5 -7.5t-16.5 -2.5q-35 0 -47 18zM160.5 615q-33.5 30 -33.5 85q0 15 18 15q7 0 10.5 -3.5t6 -10.5t4.5 -11q15 -39 78 -39t78 39q1 3 4 11t6.5 11t9.5 3
q18 0 18 -15q0 -55 -33.5 -85t-82.5 -30q-50 0 -83.5 30zM90.5 34.5q-39.5 40.5 -39.5 114.5q0 75 39 115t97 53.5t133 14.5v47q0 34 -21 56t-66 22q-35 0 -61.5 -8.5t-45.5 -18t-22 -9.5q-10 0 -22.5 19.5t-12.5 29.5q0 13 23.5 27t62 23t79.5 9q80 0 125 -40t45 -111v-230
q0 -66 6 -94.5t6 -31.5q0 -12 -19 -17.5t-35 -5.5q-15 0 -22 15.5t-13 43.5q-53 -64 -130 -64q-67 0 -106.5 40.5zM320 130v129q-56 -1 -92.5 -8t-62.5 -30.5t-26 -70.5q0 -77 75 -77q65 0 106 57z" />
    <glyph glyph-name="uni1EB2" unicode="&#x1eb2;" horiz-adv-x="491" 
d="M221 859.5q-11 6.5 -11 13.5q0 5 5.5 9.5t19.5 12.5q31 17 31 37q0 13 -10.5 20t-26.5 7q-22 0 -32.5 -6.5t-13.5 -6.5q-6 0 -15 12.5t-9 20.5q0 10 26 19t52 9q32 0 59 -16.5t27 -51.5q0 -21 -9.5 -36t-25.5 -28q-10 -8 -23 -15t-18 -7q-15 0 -26 6.5zM162 788.5
q-33 26.5 -33 68.5q0 13 3.5 17.5t12.5 4.5q8 0 11.5 -3.5t6.5 -10.5t5 -11q7 -16 28 -28.5t50 -12.5t50 13t27 28q1 3 4 11t7 11t12 3q9 0 12.5 -5t3.5 -17q0 -42 -32.5 -68.5t-83.5 -26.5t-84 26.5zM13 15q0 3 2 13l181 655q6 19 40 19h32q36 0 40 -19l181 -655
q3 -7 3 -13q0 -8 -9.5 -12.5t-27.5 -4.5h-17q-32 0 -36 16l-43 164h-215l-42 -164q-4 -16 -36 -16h-16q-37 0 -37 17zM337 254l-71 274q-3 13 -11 61h-5q-2 -7 -4 -23l-8 -38l-71 -274h170z" />
    <glyph glyph-name="uni1EB3" unicode="&#x1eb3;" horiz-adv-x="481" 
d="M229.5 745.5q-12.5 5.5 -12.5 11.5q0 9 5.5 15t19.5 18q17 14 27 27t10 32q0 13 -10.5 20t-26.5 7q-22 0 -32.5 -6.5t-13.5 -6.5q-6 0 -15 12.5t-9 20.5q0 10 26 20.5t52 10.5q33 0 62 -17t29 -54q0 -30 -18.5 -56t-41.5 -43t-31 -17t-20.5 5.5zM160.5 615
q-33.5 30 -33.5 85q0 15 18 15q7 0 10.5 -3.5t6 -10.5t4.5 -11q15 -39 78 -39t78 39q1 3 4 11t6.5 11t9.5 3q18 0 18 -15q0 -55 -33.5 -85t-82.5 -30q-50 0 -83.5 30zM90.5 34.5q-39.5 40.5 -39.5 114.5q0 75 39 115t97 53.5t133 14.5v47q0 34 -21 56t-66 22
q-35 0 -61.5 -8.5t-45.5 -18t-22 -9.5q-10 0 -22.5 19.5t-12.5 29.5q0 13 23.5 27t62 23t79.5 9q80 0 125 -40t45 -111v-230q0 -66 6 -94.5t6 -31.5q0 -12 -19 -17.5t-35 -5.5q-15 0 -22 15.5t-13 43.5q-53 -64 -130 -64q-67 0 -106.5 40.5zM320 130v129q-56 -1 -92.5 -8
t-62.5 -30.5t-26 -70.5q0 -77 75 -77q65 0 106 57z" />
    <glyph glyph-name="uni1EB4" unicode="&#x1eb4;" horiz-adv-x="491" 
d="M121 917q-9 5 -9 12q0 6 3 13q13 37 31 53t44 16q13 0 27.5 -5.5t36.5 -15.5q36 -19 52 -19q11 0 18.5 5.5t15.5 20.5t18 15q4 0 10 -3l6 -3q5 -2 8 -5t3 -7q0 -5 -3 -14q-14 -36 -32 -52t-43 -16q-15 0 -30.5 5.5t-36.5 16.5q-14 7 -28 12.5t-23 5.5q-10 0 -17 -6
t-16 -21q-8 -14 -16 -14q-2 0 -10 2zM162 778.5q-33 26.5 -33 68.5q0 13 3.5 17.5t12.5 4.5q8 0 11.5 -3.5t6.5 -10.5t5 -11q7 -16 28 -28.5t50 -12.5t50 13t27 28q1 3 4 11t7 11t12 3q9 0 12.5 -5t3.5 -17q0 -42 -32.5 -68.5t-83.5 -26.5t-84 26.5zM13 15q0 3 2 13l181 655
q6 19 40 19h32q36 0 40 -19l181 -655q3 -7 3 -13q0 -8 -9.5 -12.5t-27.5 -4.5h-17q-32 0 -36 16l-43 164h-215l-42 -164q-4 -16 -36 -16h-16q-37 0 -37 17zM337 254l-71 274q-3 13 -11 61h-5q-2 -7 -4 -23l-8 -38l-71 -274h170z" />
    <glyph glyph-name="uni1EB5" unicode="&#x1eb5;" horiz-adv-x="481" 
d="M106 773q-10 4 -10 12q0 6 3 13q15 37 34.5 53t48.5 16q15 0 29.5 -5t39.5 -16q40 -19 58 -19q11 0 19.5 5.5t18.5 20.5q8 15 19 15q5 0 11 -3l7 -3q7 -3 9.5 -5.5t2.5 -6.5q0 -6 -4 -14q-15 -37 -34.5 -52.5t-47.5 -15.5q-16 0 -33 5.5t-40 16.5q-15 7 -30.5 12.5
t-26.5 5.5q-10 0 -18 -6t-18 -21q-8 -14 -17 -14q-3 0 -11 2zM160.5 615q-33.5 30 -33.5 85q0 15 18 15q7 0 10.5 -3.5t6 -10.5t4.5 -11q15 -39 78 -39t78 39q1 3 4 11t6.5 11t9.5 3q18 0 18 -15q0 -55 -33.5 -85t-82.5 -30q-50 0 -83.5 30zM90.5 34.5
q-39.5 40.5 -39.5 114.5q0 75 39 115t97 53.5t133 14.5v47q0 34 -21 56t-66 22q-35 0 -61.5 -8.5t-45.5 -18t-22 -9.5q-10 0 -22.5 19.5t-12.5 29.5q0 13 23.5 27t62 23t79.5 9q80 0 125 -40t45 -111v-230q0 -66 6 -94.5t6 -31.5q0 -12 -19 -17.5t-35 -5.5q-15 0 -22 15.5
t-13 43.5q-53 -64 -130 -64q-67 0 -106.5 40.5zM320 130v129q-56 -1 -92.5 -8t-62.5 -30.5t-26 -70.5q0 -77 75 -77q65 0 106 57z" />
    <glyph glyph-name="uni1EB6" unicode="&#x1eb6;" horiz-adv-x="505" 
d="M169.5 792q-33.5 30 -33.5 85q0 15 18 15q7 0 10.5 -3.5t6 -10.5t4.5 -11q15 -39 78 -39t78 39q1 3 4 11t6.5 11t9.5 3q18 0 18 -15q0 -55 -33.5 -85t-82.5 -30q-50 0 -83.5 30zM13 15q0 3 2 13l181 655q6 19 40 19h32q36 0 40 -19l181 -655q3 -7 3 -13q0 -8 -9.5 -12.5
t-27.5 -4.5h-17q-32 0 -36 16l-43 164h-215l-42 -164q-4 -16 -36 -16h-16q-37 0 -37 17zM337 254l-71 274q-3 13 -11 61h-5q-2 -7 -4 -23l-8 -38l-71 -274h170zM212 -153v51q0 22 46 22q44 0 44 -22v-51q0 -22 -46 -22q-44 0 -44 22z" />
    <glyph glyph-name="uni1EB7" unicode="&#x1eb7;" horiz-adv-x="481" 
d="M160.5 615q-33.5 30 -33.5 85q0 15 18 15q7 0 10.5 -3.5t6 -10.5t4.5 -11q15 -39 78 -39t78 39q1 3 4 11t6.5 11t9.5 3q18 0 18 -15q0 -55 -33.5 -85t-82.5 -30q-50 0 -83.5 30zM90.5 34.5q-39.5 40.5 -39.5 114.5q0 75 39 115t97 53.5t133 14.5v47q0 34 -21 56t-66 22
q-35 0 -61.5 -8.5t-45.5 -18t-22 -9.5q-10 0 -22.5 19.5t-12.5 29.5q0 13 23.5 27t62 23t79.5 9q80 0 125 -40t45 -111v-230q0 -66 6 -94.5t6 -31.5q0 -12 -19 -17.5t-35 -5.5q-15 0 -22 15.5t-13 43.5q-53 -64 -130 -64q-67 0 -106.5 40.5zM320 130v129q-56 -1 -92.5 -8
t-62.5 -30.5t-26 -70.5q0 -77 75 -77q65 0 106 57zM192 -153v51q0 22 46 22q44 0 44 -22v-51q0 -22 -46 -22q-44 0 -44 22z" />
    <glyph glyph-name="uni1EB8" unicode="&#x1eb8;" horiz-adv-x="457" 
d="M84.5 7q-6.5 7 -6.5 23v640q0 16 6.5 23t20.5 7h288q19 0 19 -30v-16q0 -30 -19 -30h-225v-228h202q19 0 19 -30v-16q0 -30 -19 -30h-202v-244h225q10 0 14.5 -7t4.5 -23v-16q0 -16 -4.5 -23t-14.5 -7h-288q-14 0 -20.5 7zM205 -153v51q0 22 46 22q44 0 44 -22v-51
q0 -22 -46 -22q-44 0 -44 22z" />
    <glyph glyph-name="uni1EB9" unicode="&#x1eb9;" horiz-adv-x="454" 
d="M98.5 59q-51.5 65 -51.5 199q0 133 50 202t147 69q87 0 131 -66.5t44 -194.5q0 -9 -12 -25t-21 -16h-249q5 -85 32 -123t86 -38q36 0 60 10t39 21t18 11q10 0 22.5 -20t12.5 -30q0 -12 -20.5 -27.5t-55.5 -26t-75 -10.5q-106 0 -157.5 65zM330 299q0 158 -89 158
q-96 0 -104 -158h193zM189 -153v51q0 22 46 22q44 0 44 -22v-51q0 -22 -46 -22q-44 0 -44 22z" />
    <glyph glyph-name="uni1EBA" unicode="&#x1eba;" horiz-adv-x="457" 
d="M84.5 7q-6.5 7 -6.5 23v640q0 16 6.5 23t20.5 7h288q19 0 19 -30v-16q0 -30 -19 -30h-225v-228h202q19 0 19 -30v-16q0 -30 -19 -30h-202v-244h225q10 0 14.5 -7t4.5 -23v-16q0 -16 -4.5 -23t-14.5 -7h-288q-14 0 -20.5 7zM231.5 745.5q-12.5 5.5 -12.5 11.5q0 9 5.5 15
t19.5 18q17 14 27 27t10 32q0 13 -10.5 20t-26.5 7q-22 0 -32.5 -6.5t-13.5 -6.5q-6 0 -15 12.5t-9 20.5q0 10 26 20.5t52 10.5q33 0 62 -17t29 -54q0 -30 -18.5 -56t-41.5 -43t-31 -17t-20.5 5.5z" />
    <glyph glyph-name="uni1EBB" unicode="&#x1ebb;" horiz-adv-x="454" 
d="M98.5 59q-51.5 65 -51.5 199q0 133 50 202t147 69q87 0 131 -66.5t44 -194.5q0 -9 -12 -25t-21 -16h-249q5 -85 32 -123t86 -38q36 0 60 10t39 21t18 11q10 0 22.5 -20t12.5 -30q0 -12 -20.5 -27.5t-55.5 -26t-75 -10.5q-106 0 -157.5 65zM330 299q0 158 -89 158
q-96 0 -104 -158h193zM217.5 568.5q-12.5 5.5 -12.5 11.5q0 9 5.5 15t19.5 18q17 14 27 27t10 32q0 13 -10.5 20t-26.5 7q-22 0 -32.5 -6.5t-13.5 -6.5q-6 0 -15 12.5t-9 20.5q0 10 26 20.5t52 10.5q33 0 62 -17t29 -54q0 -30 -18.5 -56t-41.5 -43t-31 -17t-20.5 5.5z" />
    <glyph glyph-name="uni1EBC" unicode="&#x1ebc;" horiz-adv-x="457" 
d="M108 773q-10 4 -10 12q0 6 3 13q15 37 34.5 53t48.5 16q15 0 29.5 -5t39.5 -16q40 -19 58 -19q12 0 20 5.5t18 20.5q8 15 19 15q5 0 11 -3l7 -3q7 -3 9.5 -5.5t2.5 -6.5q0 -6 -4 -14q-15 -37 -34.5 -52.5t-47.5 -15.5q-16 0 -33 5.5t-40 16.5q-15 7 -30.5 12.5t-26.5 5.5
q-10 0 -18 -6t-18 -21q-8 -14 -17 -14q-3 0 -11 2zM84.5 7q-6.5 7 -6.5 23v640q0 16 6.5 23t20.5 7h288q19 0 19 -30v-16q0 -30 -19 -30h-225v-228h202q19 0 19 -30v-16q0 -30 -19 -30h-202v-244h225q10 0 14.5 -7t4.5 -23v-16q0 -16 -4.5 -23t-14.5 -7h-288q-14 0 -20.5 7z
" />
    <glyph glyph-name="uni1EBD" unicode="&#x1ebd;" horiz-adv-x="454" 
d="M94 596q-10 4 -10 12q0 6 3 13q15 37 34.5 53t48.5 16q15 0 29.5 -5t39.5 -16q40 -19 58 -19q11 0 19.5 5.5t18.5 20.5q8 15 19 15q5 0 11 -3l7 -3q7 -3 9.5 -5.5t2.5 -6.5q0 -6 -4 -14q-15 -37 -34.5 -52.5t-47.5 -15.5q-16 0 -33 5.5t-40 16.5q-15 7 -30.5 12.5
t-26.5 5.5q-10 0 -18 -6t-18 -21q-8 -14 -17 -14q-3 0 -11 2zM98.5 59q-51.5 65 -51.5 199q0 133 50 202t147 69q87 0 131 -66.5t44 -194.5q0 -9 -12 -25t-21 -16h-249q5 -85 32 -123t86 -38q36 0 60 10t39 21t18 11q10 0 22.5 -20t12.5 -30q0 -12 -20.5 -27.5t-55.5 -26
t-75 -10.5q-106 0 -157.5 65zM330 299q0 158 -89 158q-96 0 -104 -158h193z" />
    <glyph glyph-name="uni1EBE" unicode="&#x1ebe;" horiz-adv-x="443" 
d="M312 859q0 6 11 31t32 70q12 26 54 26q17 0 24 -3t7 -10q0 -5 -7.5 -17t-24.5 -36l-37 -53q-13 -18 -36 -18t-23 10zM140 757q-5 4 -5 9q0 4 5 19l48 88q13 22 42 22h16q28 0 41 -22l47 -88q7 -10 7 -17t-5 -11t-14 -4h-20q-7 0 -14 3.5t-11 9.5l-40 74l-38 -74
q-5 -8 -11 -10.5t-15 -2.5h-19q-9 0 -14 4zM84.5 7q-6.5 7 -6.5 23v640q0 16 6.5 23t20.5 7h288q19 0 19 -30v-16q0 -30 -19 -30h-225v-228h202q19 0 19 -30v-16q0 -30 -19 -30h-202v-244h225q10 0 14.5 -7t4.5 -23v-16q0 -16 -4.5 -23t-14.5 -7h-288q-14 0 -20.5 7z" />
    <glyph glyph-name="uni1EBF" unicode="&#x1ebf;" horiz-adv-x="440" 
d="M304 732q0 7 12.5 34t36.5 77q12 26 56 26q22 0 32 -3t10 -10q0 -6 -9 -19l-27 -39l-42 -58q-12 -18 -48 -18q-21 0 -21 10zM126 580q-5 4 -5 9q0 4 5 19l48 88q13 22 42 22h16q28 0 41 -22l47 -88q7 -10 7 -17t-5 -11t-14 -4h-20q-7 0 -14 3.5t-11 9.5l-40 74l-38 -74
q-5 -8 -11 -10.5t-15 -2.5h-19q-9 0 -14 4zM98.5 59q-51.5 65 -51.5 199q0 133 50 202t147 69q87 0 131 -66.5t44 -194.5q0 -9 -12 -25t-21 -16h-249q5 -85 32 -123t86 -38q36 0 60 10t39 21t18 11q10 0 22.5 -20t12.5 -30q0 -12 -20.5 -27.5t-55.5 -26t-75 -10.5
q-106 0 -157.5 65zM330 299q0 158 -89 158q-96 0 -104 -158h193z" />
    <glyph glyph-name="uni1EC0" unicode="&#x1ec0;" horiz-adv-x="443" 
d="M332 867q-10 15 -19.5 30.5t-19.5 29.5q-13 20 -19 30.5t-6 15.5q0 7 7 10t26 3q18 0 32 -6.5t20 -19.5q19 -45 28.5 -69.5t9.5 -31.5q0 -10 -23 -10t-36 18zM140 757q-5 4 -5 9q0 4 5 19l48 88q13 22 42 22h16q28 0 41 -22l47 -88q7 -10 7 -17t-5 -11t-14 -4h-20
q-7 0 -14 3.5t-11 9.5l-40 74l-38 -74q-5 -8 -11 -10.5t-15 -2.5h-19q-9 0 -14 4zM84.5 7q-6.5 7 -6.5 23v640q0 16 6.5 23t20.5 7h288q19 0 19 -30v-16q0 -30 -19 -30h-225v-228h202q19 0 19 -30v-16q0 -30 -19 -30h-202v-244h225q10 0 14.5 -7t4.5 -23v-16q0 -16 -4.5 -23
t-14.5 -7h-288q-14 0 -20.5 7z" />
    <glyph glyph-name="uni1EC1" unicode="&#x1ec1;" horiz-adv-x="440" 
d="M308 740q-56 75 -67.5 91.5t-11.5 24.5q0 7 10 10t32 3q43 0 57 -26l20 -42q13 -29 20.5 -46t7.5 -23q0 -5 -4.5 -7.5t-16.5 -2.5q-35 0 -47 18zM126 580q-5 4 -5 9q0 4 5 19l48 88q13 22 42 22h16q28 0 41 -22l47 -88q7 -10 7 -17t-5 -11t-14 -4h-20q-7 0 -14 3.5
t-11 9.5l-40 74l-38 -74q-5 -8 -11 -10.5t-15 -2.5h-19q-9 0 -14 4zM98.5 59q-51.5 65 -51.5 199q0 133 50 202t147 69q87 0 131 -66.5t44 -194.5q0 -9 -12 -25t-21 -16h-249q5 -85 32 -123t86 -38q36 0 60 10t39 21t18 11q10 0 22.5 -20t12.5 -30q0 -12 -20.5 -27.5
t-55.5 -26t-75 -10.5q-106 0 -157.5 65zM330 299q0 158 -89 158q-96 0 -104 -158h193z" />
    <glyph glyph-name="uni1EC2" unicode="&#x1ec2;" horiz-adv-x="443" 
d="M320 862.5q-11 6.5 -11 13.5q0 5 5.5 9.5t19.5 12.5q31 17 31 37q0 13 -10.5 20t-26.5 7q-22 0 -32.5 -6.5t-13.5 -6.5q-6 0 -15 12.5t-9 20.5q0 10 26 19t52 9q32 0 59 -16.5t27 -51.5q0 -21 -9.5 -36t-25.5 -28q-10 -8 -23 -15t-18 -7q-15 0 -26 6.5zM140 757
q-5 4 -5 9q0 4 5 19l48 88q13 22 42 22h16q28 0 41 -22l47 -88q7 -10 7 -17t-5 -11t-14 -4h-20q-7 0 -14 3.5t-11 9.5l-40 74l-38 -74q-5 -8 -11 -10.5t-15 -2.5h-19q-9 0 -14 4zM84.5 7q-6.5 7 -6.5 23v640q0 16 6.5 23t20.5 7h288q19 0 19 -30v-16q0 -30 -19 -30h-225
v-228h202q19 0 19 -30v-16q0 -30 -19 -30h-202v-244h225q10 0 14.5 -7t4.5 -23v-16q0 -16 -4.5 -23t-14.5 -7h-288q-14 0 -20.5 7z" />
    <glyph glyph-name="uni1EC3" unicode="&#x1ec3;" horiz-adv-x="440" 
d="M317.5 705.5q-12.5 5.5 -12.5 11.5q0 9 5.5 15t19.5 18q17 14 27 27t10 32q0 13 -10.5 20t-26.5 7q-22 0 -32.5 -6.5t-13.5 -6.5q-6 0 -15 12.5t-9 20.5q0 10 26 20.5t52 10.5q33 0 62 -17t29 -54q0 -30 -18.5 -56t-41.5 -43t-31 -17t-20.5 5.5zM126 580q-5 4 -5 9
q0 4 5 19l48 88q13 22 42 22h16q28 0 41 -22l47 -88q7 -10 7 -17t-5 -11t-14 -4h-20q-7 0 -14 3.5t-11 9.5l-40 74l-38 -74q-5 -8 -11 -10.5t-15 -2.5h-19q-9 0 -14 4zM98.5 59q-51.5 65 -51.5 199q0 133 50 202t147 69q87 0 131 -66.5t44 -194.5q0 -9 -12 -25t-21 -16h-249
q5 -85 32 -123t86 -38q36 0 60 10t39 21t18 11q10 0 22.5 -20t12.5 -30q0 -12 -20.5 -27.5t-55.5 -26t-75 -10.5q-106 0 -157.5 65zM330 299q0 158 -89 158q-96 0 -104 -158h193z" />
    <glyph glyph-name="uni1EC4" unicode="&#x1ec4;" horiz-adv-x="443" 
d="M113 907q-9 5 -9 12q0 6 3 13q13 37 31 53t44 16q13 0 27.5 -5.5t36.5 -15.5q36 -19 52 -19q10 0 18 6t16 20q8 15 18 15q4 0 10 -3l6 -3q5 -2 8 -5t3 -7q0 -5 -3 -14q-14 -36 -32 -52t-43 -16q-15 0 -30.5 5.5t-36.5 16.5q-14 7 -28 12.5t-23 5.5q-10 0 -17 -6t-16 -21
q-8 -14 -16 -14q-2 0 -10 2zM136 767q0 7 7 18l45 66q17 22 42 22h16q27 0 43 -22l45 -66q8 -13 8 -18q0 -6 -5.5 -10t-14.5 -4h-19q-16 0 -26 13l-39 58l-38 -58q-8 -13 -27 -13h-18q-19 0 -19 14zM84.5 7q-6.5 7 -6.5 23v640q0 16 6.5 23t20.5 7h288q19 0 19 -30v-16
q0 -30 -19 -30h-225v-228h202q19 0 19 -30v-16q0 -30 -19 -30h-202v-244h225q10 0 14.5 -7t4.5 -23v-16q0 -16 -4.5 -23t-14.5 -7h-288q-14 0 -20.5 7z" />
    <glyph glyph-name="uni1EC5" unicode="&#x1ec5;" horiz-adv-x="440" 
d="M109 756q-9 5 -9 12q0 6 3 13q12 37 30.5 53t44.5 16q13 0 28 -5.5t35 -16.5q14 -7 28 -12.5t24 -5.5q11 0 18.5 5.5t16.5 20.5q8 15 18 15q4 0 10 -3l6 -3q5 -2 8 -5t3 -7q0 -6 -4 -14q-14 -37 -31.5 -52.5t-42.5 -15.5q-15 0 -30.5 5.5t-36.5 16.5q-14 7 -28 12.5
t-24 5.5t-17 -6t-15 -21q-8 -14 -16 -14q-2 0 -10 2zM122 590q0 7 7 18l45 66q17 22 42 22h16q27 0 43 -22l45 -66q8 -13 8 -18q0 -6 -5.5 -10t-14.5 -4h-19q-16 0 -26 13l-39 58l-38 -58q-8 -13 -27 -13h-18q-19 0 -19 14zM98.5 59q-51.5 65 -51.5 199q0 133 50 202t147 69
q87 0 131 -66.5t44 -194.5q0 -9 -12 -25t-21 -16h-249q5 -85 32 -123t86 -38q36 0 60 10t39 21t18 11q10 0 22.5 -20t12.5 -30q0 -12 -20.5 -27.5t-55.5 -26t-75 -10.5q-106 0 -157.5 65zM330 299q0 158 -89 158q-96 0 -104 -158h193z" />
    <glyph glyph-name="uni1EC6" unicode="&#x1ec6;" horiz-adv-x="457" 
d="M141 757q-5 4 -5 9t7 19l52 88q14 22 42 22h15q27 0 41 -22l54 -88q6 -12 6 -17q0 -7 -5 -11t-14 -4h-20q-16 0 -25 14l-45 73l-44 -73q-11 -14 -26 -14h-19q-9 0 -14 4zM84.5 7q-6.5 7 -6.5 23v640q0 16 6.5 23t20.5 7h288q19 0 19 -30v-16q0 -30 -19 -30h-225v-228h202
q19 0 19 -30v-16q0 -30 -19 -30h-202v-244h225q10 0 14.5 -7t4.5 -23v-16q0 -16 -4.5 -23t-14.5 -7h-288q-14 0 -20.5 7zM205 -153v51q0 22 46 22q44 0 44 -22v-51q0 -22 -46 -22q-44 0 -44 22z" />
    <glyph glyph-name="uni1EC7" unicode="&#x1ec7;" horiz-adv-x="454" 
d="M127 580q-5 4 -5 9t7 19l52 88q14 22 42 22h15q27 0 41 -22l54 -88q6 -12 6 -17q0 -7 -5 -11t-14 -4h-20q-16 0 -25 14l-45 73l-44 -73q-11 -14 -26 -14h-19q-9 0 -14 4zM98.5 59q-51.5 65 -51.5 199q0 133 50 202t147 69q87 0 131 -66.5t44 -194.5q0 -9 -12 -25t-21 -16
h-249q5 -85 32 -123t86 -38q36 0 60 10t39 21t18 11q10 0 22.5 -20t12.5 -30q0 -12 -20.5 -27.5t-55.5 -26t-75 -10.5q-106 0 -157.5 65zM330 299q0 158 -89 158q-96 0 -104 -158h193zM189 -153v51q0 22 46 22q44 0 44 -22v-51q0 -22 -46 -22q-44 0 -44 22z" />
    <glyph glyph-name="uni1EC8" unicode="&#x1ec8;" horiz-adv-x="262" 
d="M86 20v660q0 22 38 22h15q37 0 37 -22v-660q0 -22 -37 -22h-15q-38 0 -38 22zM117.5 745.5q-12.5 5.5 -12.5 11.5q0 9 5.5 15t19.5 18q17 14 27 27t10 32q0 13 -10.5 20t-26.5 7q-22 0 -32.5 -6.5t-13.5 -6.5q-6 0 -15 12.5t-9 20.5q0 10 26 20.5t52 10.5q33 0 62 -17
t29 -54q0 -30 -18.5 -56t-41.5 -43t-31 -17t-20.5 5.5z" />
    <glyph glyph-name="uni1EC9" unicode="&#x1ec9;" horiz-adv-x="254" 
d="M85 20v483q0 22 40 22h4q40 0 40 -22v-483q0 -22 -40 -22h-4q-40 0 -40 22zM113.5 568.5q-12.5 5.5 -12.5 11.5q0 9 5.5 15t19.5 18q17 14 27 27t10 32q0 13 -10.5 20t-26.5 7q-22 0 -32.5 -6.5t-13.5 -6.5q-6 0 -15 12.5t-9 20.5q0 10 26 20.5t52 10.5q33 0 62 -17
t29 -54q0 -30 -18.5 -56t-41.5 -43t-31 -17t-20.5 5.5z" />
    <glyph glyph-name="uni1ECA" unicode="&#x1eca;" horiz-adv-x="262" 
d="M86 20v660q0 22 38 22h15q37 0 37 -22v-660q0 -22 -37 -22h-15q-38 0 -38 22zM88 -153v51q0 22 46 22q44 0 44 -22v-51q0 -22 -46 -22q-44 0 -44 22z" />
    <glyph glyph-name="uni1ECB" unicode="&#x1ecb;" horiz-adv-x="254" 
d="M83 629v51q0 22 46 22q44 0 44 -22v-51q0 -22 -46 -22q-44 0 -44 22zM85 20v483q0 22 40 22h4q40 0 40 -22v-483q0 -22 -40 -22h-4q-40 0 -40 22zM72 -153v51q0 22 46 22q44 0 44 -22v-51q0 -22 -46 -22q-44 0 -44 22z" />
    <glyph glyph-name="uni1ECC" unicode="&#x1ecc;" horiz-adv-x="599" 
d="M113 83q-64 89 -64 269q0 354 250 354q251 0 251 -354q0 -180 -64 -269t-187 -89q-122 0 -186 89zM458 352q0 278 -158 278q-79 0 -118.5 -67.5t-39.5 -210.5q0 -282 158 -282t158 282zM258 -153v51q0 22 46 22q44 0 44 -22v-51q0 -22 -46 -22q-44 0 -44 22z" />
    <glyph glyph-name="uni1ECD" unicode="&#x1ecd;" horiz-adv-x="477" 
d="M96.5 62q-49.5 68 -49.5 197q0 130 49.5 200t143.5 70q93 0 141.5 -69.5t48.5 -200.5q0 -130 -48 -197.5t-142 -67.5t-143.5 68zM316.5 113.5q25.5 47.5 25.5 147.5t-25.5 148t-78.5 48t-77.5 -47.5t-24.5 -148.5q0 -100 24.5 -147.5t77.5 -47.5t78.5 47.5zM199 -153v51
q0 22 46 22q44 0 44 -22v-51q0 -22 -46 -22q-44 0 -44 22z" />
    <glyph glyph-name="uni1ECE" unicode="&#x1ece;" horiz-adv-x="599" 
d="M113 83q-64 89 -64 269q0 354 250 354q251 0 251 -354q0 -180 -64 -269t-187 -89q-122 0 -186 89zM458 352q0 278 -158 278q-79 0 -118.5 -67.5t-39.5 -210.5q0 -282 158 -282t158 282zM286.5 745.5q-12.5 5.5 -12.5 11.5q0 9 5.5 15t19.5 18q17 14 27 27t10 32
q0 13 -10.5 20t-26.5 7q-22 0 -32.5 -6.5t-13.5 -6.5q-6 0 -15 12.5t-9 20.5q0 10 26 20.5t52 10.5q33 0 62 -17t29 -54q0 -30 -18.5 -56t-41.5 -43t-31 -17t-20.5 5.5z" />
    <glyph glyph-name="uni1ECF" unicode="&#x1ecf;" horiz-adv-x="477" 
d="M96.5 62q-49.5 68 -49.5 197q0 130 49.5 200t143.5 70q93 0 141.5 -69.5t48.5 -200.5q0 -130 -48 -197.5t-142 -67.5t-143.5 68zM316.5 113.5q25.5 47.5 25.5 147.5t-25.5 148t-78.5 48t-77.5 -47.5t-24.5 -148.5q0 -100 24.5 -147.5t77.5 -47.5t78.5 47.5zM225.5 568.5
q-12.5 5.5 -12.5 11.5q0 9 5.5 15t19.5 18q17 14 27 27t10 32q0 13 -10.5 20t-26.5 7q-22 0 -32.5 -6.5t-13.5 -6.5q-6 0 -15 12.5t-9 20.5q0 10 26 20.5t52 10.5q33 0 62 -17t29 -54q0 -30 -18.5 -56t-41.5 -43t-31 -17t-20.5 5.5z" />
    <glyph glyph-name="uni1ED0" unicode="&#x1ed0;" horiz-adv-x="585" 
d="M367 859q0 7 10.5 31.5t31.5 69.5q12 26 54 26q17 0 24 -3t7 -10q0 -6 -9.5 -21t-31.5 -47q-10 -12 -27 -38q-13 -18 -36 -18t-23 10zM195 756.5q-5 3.5 -5 9.5q0 9 5 19l48 88q12 22 41 22h16q29 0 41 -22l48 -88q1 -2 4 -7.5t3 -9.5q0 -7 -5.5 -11t-14.5 -4h-19
q-17 0 -26 13l-39 74l-39 -74q-4 -8 -10 -10.5t-16 -2.5h-18q-9 0 -14 3.5zM113 83q-64 89 -64 269q0 354 250 354q251 0 251 -354q0 -180 -64 -269t-187 -89q-122 0 -186 89zM458 352q0 278 -158 278q-79 0 -118.5 -67.5t-39.5 -210.5q0 -282 158 -282t158 282z" />
    <glyph glyph-name="uni1ED1" unicode="&#x1ed1;" horiz-adv-x="463" 
d="M311 732q0 7 12.5 34t36.5 77q12 26 56 26q22 0 32 -3t10 -10q0 -6 -9 -19l-27 -39l-42 -58q-12 -18 -48 -18q-21 0 -21 10zM134 579.5q-5 3.5 -5 9.5q0 9 5 19l48 88q12 22 41 22h16q29 0 41 -22l48 -88q1 -2 4 -7.5t3 -9.5q0 -7 -5.5 -11t-14.5 -4h-19q-17 0 -26 13
l-39 74l-39 -74q-4 -8 -10 -10.5t-16 -2.5h-18q-9 0 -14 3.5zM96.5 62q-49.5 68 -49.5 197q0 130 49.5 200t143.5 70q93 0 141.5 -69.5t48.5 -200.5q0 -130 -48 -197.5t-142 -67.5t-143.5 68zM316.5 113.5q25.5 47.5 25.5 147.5t-25.5 148t-78.5 48t-77.5 -47.5
t-24.5 -148.5q0 -100 24.5 -147.5t77.5 -47.5t78.5 47.5z" />
    <glyph glyph-name="uni1ED2" unicode="&#x1ed2;" horiz-adv-x="585" 
d="M387 867l-30 46q-18 28 -26 41t-8 19q0 7 7 10t25 3q42 0 53 -26q19 -45 28.5 -69.5t9.5 -31.5q0 -10 -23 -10q-24 0 -36 18zM195 756.5q-5 3.5 -5 9.5q0 9 5 19l48 88q12 22 41 22h16q29 0 41 -22l48 -88q1 -2 4 -7.5t3 -9.5q0 -7 -5.5 -11t-14.5 -4h-19q-17 0 -26 13
l-39 74l-39 -74q-4 -8 -10 -10.5t-16 -2.5h-18q-9 0 -14 3.5zM113 83q-64 89 -64 269q0 354 250 354q251 0 251 -354q0 -180 -64 -269t-187 -89q-122 0 -186 89zM458 352q0 278 -158 278q-79 0 -118.5 -67.5t-39.5 -210.5q0 -282 158 -282t158 282z" />
    <glyph glyph-name="uni1ED3" unicode="&#x1ed3;" horiz-adv-x="463" 
d="M316 740q-56 75 -67.5 91.5t-11.5 24.5q0 7 10 10t32 3q43 0 57 -26l20 -42q13 -29 20.5 -46t7.5 -23q0 -5 -4.5 -7.5t-16.5 -2.5q-35 0 -47 18zM134 579.5q-5 3.5 -5 9.5q0 9 5 19l48 88q12 22 41 22h16q29 0 41 -22l48 -88q1 -2 4 -7.5t3 -9.5q0 -7 -5.5 -11t-14.5 -4
h-19q-17 0 -26 13l-39 74l-39 -74q-4 -8 -10 -10.5t-16 -2.5h-18q-9 0 -14 3.5zM96.5 62q-49.5 68 -49.5 197q0 130 49.5 200t143.5 70q93 0 141.5 -69.5t48.5 -200.5q0 -130 -48 -197.5t-142 -67.5t-143.5 68zM316.5 113.5q25.5 47.5 25.5 147.5t-25.5 148t-78.5 48
t-77.5 -47.5t-24.5 -148.5q0 -100 24.5 -147.5t77.5 -47.5t78.5 47.5z" />
    <glyph glyph-name="uni1ED4" unicode="&#x1ed4;" horiz-adv-x="585" 
d="M375 862.5q-11 6.5 -11 13.5q0 5 5.5 9.5t19.5 12.5q31 17 31 37q0 13 -10.5 20t-26.5 7q-22 0 -32.5 -6.5t-13.5 -6.5q-6 0 -15 12.5t-9 20.5q0 10 26 19t52 9q32 0 59 -16.5t27 -51.5q0 -21 -9.5 -36t-25.5 -28q-10 -8 -23 -15t-18 -7q-15 0 -26 6.5zM195 756.5
q-5 3.5 -5 9.5q0 9 5 19l48 88q12 22 41 22h16q29 0 41 -22l48 -88q1 -2 4 -7.5t3 -9.5q0 -7 -5.5 -11t-14.5 -4h-19q-17 0 -26 13l-39 74l-39 -74q-4 -8 -10 -10.5t-16 -2.5h-18q-9 0 -14 3.5zM113 83q-64 89 -64 269q0 354 250 354q251 0 251 -354q0 -180 -64 -269
t-187 -89q-122 0 -186 89zM458 352q0 278 -158 278q-79 0 -118.5 -67.5t-39.5 -210.5q0 -282 158 -282t158 282z" />
    <glyph glyph-name="uni1ED5" unicode="&#x1ed5;" horiz-adv-x="463" 
d="M325.5 705.5q-12.5 5.5 -12.5 11.5q0 9 5.5 15t19.5 18q17 14 27 27t10 32q0 13 -10.5 20t-26.5 7q-22 0 -32.5 -6.5t-13.5 -6.5q-6 0 -15 12.5t-9 20.5q0 10 26 20.5t52 10.5q33 0 62 -17t29 -54q0 -30 -18.5 -56t-41.5 -43t-31 -17t-20.5 5.5zM134 579.5q-5 3.5 -5 9.5
q0 9 5 19l48 88q12 22 41 22h16q29 0 41 -22l48 -88q1 -2 4 -7.5t3 -9.5q0 -7 -5.5 -11t-14.5 -4h-19q-17 0 -26 13l-39 74l-39 -74q-4 -8 -10 -10.5t-16 -2.5h-18q-9 0 -14 3.5zM96.5 62q-49.5 68 -49.5 197q0 130 49.5 200t143.5 70q93 0 141.5 -69.5t48.5 -200.5
q0 -130 -48 -197.5t-142 -67.5t-143.5 68zM316.5 113.5q25.5 47.5 25.5 147.5t-25.5 148t-78.5 48t-77.5 -47.5t-24.5 -148.5q0 -100 24.5 -147.5t77.5 -47.5t78.5 47.5z" />
    <glyph glyph-name="uni1ED6" unicode="&#x1ed6;" horiz-adv-x="585" 
d="M159 909q-9 5 -9 12q0 6 3 13q13 37 31 53t44 16q13 0 27.5 -5.5t36.5 -15.5q36 -19 52 -19q19 0 34 26q8 15 18 15q4 0 10 -3l6 -3q5 -2 8 -5t3 -7q0 -5 -3 -14q-14 -36 -32 -52t-43 -16q-13 0 -26 4.5t-25 10t-16 7.5q-36 19 -52 19q-9 0 -16.5 -6.5t-15.5 -21.5
q-8 -14 -16 -14q-2 0 -10 2zM190 767q0 4 7 18l46 66q17 22 42 22h16q26 0 42 -22l46 -66q7 -11 7 -18q0 -6 -5 -10t-14 -4h-19q-17 0 -27 13l-39 58l-37 -58q-10 -13 -27 -13h-19q-19 0 -19 14zM113 83q-64 89 -64 269q0 354 250 354q251 0 251 -354q0 -180 -64 -269
t-187 -89q-122 0 -186 89zM458 352q0 278 -158 278q-79 0 -118.5 -67.5t-39.5 -210.5q0 -282 158 -282t158 282z" />
    <glyph glyph-name="uni1ED7" unicode="&#x1ed7;" horiz-adv-x="463" 
d="M117 756q-9 5 -9 12q0 6 3 13q13 37 31 53t44 16q13 0 27.5 -5.5t36.5 -15.5q36 -19 52 -19q11 0 18.5 5.5t15.5 20.5t18 15q4 0 10 -3l6 -3q5 -2 8 -5t3 -7q0 -5 -3 -14q-14 -36 -32 -52t-43 -16q-15 0 -30.5 5.5t-36.5 16.5q-14 7 -28 12.5t-23 5.5q-10 0 -17 -6
t-16 -21q-8 -14 -16 -14q-2 0 -10 2zM129 590q0 4 7 18l46 66q17 22 42 22h16q26 0 42 -22l46 -66q7 -11 7 -18q0 -6 -5 -10t-14 -4h-19q-17 0 -27 13l-39 58l-37 -58q-10 -13 -27 -13h-19q-19 0 -19 14zM96.5 62q-49.5 68 -49.5 197q0 130 49.5 200t143.5 70
q93 0 141.5 -69.5t48.5 -200.5q0 -130 -48 -197.5t-142 -67.5t-143.5 68zM316.5 113.5q25.5 47.5 25.5 147.5t-25.5 148t-78.5 48t-77.5 -47.5t-24.5 -148.5q0 -100 24.5 -147.5t77.5 -47.5t78.5 47.5z" />
    <glyph glyph-name="uni1ED8" unicode="&#x1ed8;" horiz-adv-x="599" 
d="M196 757q-5 4 -5 9t7 19l52 88q14 22 42 22h15q27 0 41 -22l54 -88q6 -12 6 -17q0 -7 -5 -11t-14 -4h-20q-16 0 -25 14l-45 73l-44 -73q-11 -14 -26 -14h-19q-9 0 -14 4zM113 83q-64 89 -64 269q0 354 250 354q251 0 251 -354q0 -180 -64 -269t-187 -89q-122 0 -186 89z
M458 352q0 278 -158 278q-79 0 -118.5 -67.5t-39.5 -210.5q0 -282 158 -282t158 282zM258 -153v51q0 22 46 22q44 0 44 -22v-51q0 -22 -46 -22q-44 0 -44 22z" />
    <glyph glyph-name="uni1ED9" unicode="&#x1ed9;" horiz-adv-x="477" 
d="M135 580q-5 4 -5 9t7 19l52 88q14 22 42 22h15q27 0 41 -22l54 -88q6 -12 6 -17q0 -7 -5 -11t-14 -4h-20q-16 0 -25 14l-45 73l-44 -73q-11 -14 -26 -14h-19q-9 0 -14 4zM96.5 62q-49.5 68 -49.5 197q0 130 49.5 200t143.5 70q93 0 141.5 -69.5t48.5 -200.5
q0 -130 -48 -197.5t-142 -67.5t-143.5 68zM316.5 113.5q25.5 47.5 25.5 147.5t-25.5 148t-78.5 48t-77.5 -47.5t-24.5 -148.5q0 -100 24.5 -147.5t77.5 -47.5t78.5 47.5zM199 -153v51q0 22 46 22q44 0 44 -22v-51q0 -22 -46 -22q-44 0 -44 22z" />
    <glyph glyph-name="uni1EDA" unicode="&#x1eda;" horiz-adv-x="599" 
d="M272 772q0 7 12.5 34t36.5 77q12 26 56 26q22 0 32 -3t10 -10q0 -6 -9 -19l-27 -39l-42 -58q-12 -18 -48 -18q-21 0 -21 10zM113 83q-64 89 -64 269q0 354 250 354q77 0 136 -38q10 -6 16.5 -8.5t15.5 -2.5q21 0 30.5 10t9.5 23t-5 23.5t-13 22.5t-9 16q0 10 9 16l24 16
q5 4 12 4q16 0 29.5 -25t13.5 -49q0 -38 -22 -61.5t-66 -27.5q70 -88 70 -273q0 -180 -64 -269t-187 -89q-122 0 -186 89zM458 352q0 278 -158 278q-79 0 -118.5 -67.5t-39.5 -210.5q0 -282 158 -282t158 282z" />
    <glyph glyph-name="uni1EDB" unicode="&#x1edb;" horiz-adv-x="477" 
d="M96.5 62q-49.5 68 -49.5 197q0 130 49.5 200t143.5 70q50 0 90 -24q15 -9 33 -9q20 0 28.5 10t8.5 23q0 12 -5 22t-13.5 22.5t-8.5 17.5q0 10 9 16l24 16q5 4 12 4q16 0 29.5 -25t13.5 -49q0 -37 -21.5 -61t-63.5 -28q54 -69 54 -205q0 -130 -48 -197.5t-142 -67.5
t-143.5 68zM316.5 113.5q25.5 47.5 25.5 147.5t-25.5 148t-78.5 48t-77.5 -47.5t-24.5 -148.5q0 -100 24.5 -147.5t77.5 -47.5t78.5 47.5zM211 595q0 7 12.5 34t36.5 77q12 26 56 26q22 0 32 -3t10 -10q0 -6 -9 -19l-27 -39l-42 -58q-12 -18 -48 -18q-21 0 -21 10z" />
    </font>
</defs>
</svg>
