<svg id="Layer_1" xmlns="http://www.w3.org/2000/svg" viewBox="0 0 515.2 94.5">
    <style>
        .st0{fill:#FFC221;} .st1{fill:#FCBA1E;} .st2{fill:#DF9026;} .st3{fill:#AC722A;} .st4{fill:#FFC841;} .st5{fill:#CC5C28;}
    </style>
    <path class="st0" d="M112.7 58.9V37.2c0-11 5.5-17.8 25.1-17.8S162.9 26 162.9 37v21.6c0 11-5.5 17.8-25.1 17.8s-25.1-6.5-25.1-17.5zm40.6-1.3V38.1c0-8.4-3.3-11.2-15.5-11.2-12.3 0-15.6 3-15.6 11.3v19.5c0 8.4 3.3 11.2 15.6 11.2 12.2 0 15.5-2.9 15.5-11.3zM170.3 68.1l4.1-.1V28l-4.1-.1v-7.2h26.6c13.8 0 19 3.3 19 11v6.5c0 6.1-3.8 10.4-11.8 11 6.7.6 11.4 1.7 12 8l1 10.9 4.4.2v7.1h-12.8c-.5-.5-.9-1-1-2.6l-1-13c-.4-5.7-4.4-7.2-14.1-7.2h-8.7V68l4.1.1v7.2h-17.8v-7.2zM195 45.2c9 0 11.5-1.9 11.5-6.7v-4.4c0-4.4-1.7-6.3-11.5-6.3h-11v17.3h11zM226.9 58.9V37.2c0-11 5.5-17.8 25.1-17.8S277.1 26 277.1 37v21.6c0 11-5.5 17.8-25.1 17.8s-25.1-6.5-25.1-17.5zm40.7-1.3V38.1c0-8.4-3.3-11.2-15.5-11.2-12.3 0-15.6 3-15.6 11.3v19.5c0 8.4 3.3 11.2 15.6 11.2 12.1 0 15.5-2.9 15.5-11.3z"/>
    <path class="st1" d="M20.7 58.7l38.6-37.8c4.1-4.1 10.8-4 14.8.1L56.6 3.1C52.5-1 45.8-1.1 41.7 3L3.1 40.8C-1 44.9-1.1 51.5 3 55.7l17.5 17.9c-4.1-4.2-4-10.9.2-14.9z"/>
    <path class="st2" d="M35.4 73.7L74 35.9c4.1-4.1 4.2-10.7.1-14.8L91.6 39c4.1 4.1 4 10.8-.1 14.8L52.9 91.5c-4.1 4.1-10.8 4-14.8-.1L20.5 73.5c4.1 4.1 10.7 4.2 14.9.2z"/>
    <path class="st3" d="M91.6 38.8L74.1 21c4.1 4.1 4 10.8-.1 14.8l-1.1 1L83 47.3c4.1 4.1 4 10.8-.1 14.8l8.6-8.4c4.1-4.1 4.1-10.7.1-14.9z"/>
    <path class="st4" d="M48 11.6L58.2 22l1.1-1.1c4.1-4.1 10.8-4 14.8.1L56.6 3.1C52.5-1 45.8-1.1 41.7 3l-1.1 1 7.4 7.6z"/>
    <path class="st5" d="M281.9 71.1l4.3-.1L305 25.6l-6-.2v-5.2h13.5c1.3 0 2.1.6 2.4 1.4L335.6 71l4.3.1v5.2H323v-5.2l5.2-.1-5.2-13.2h-25.4l-5.2 13.3 5.3.1v5.2H282v-5.3zM321 52.8l-10.8-26.5h-.2l-10.6 26.5H321zM342.8 59.8V36.9c0-10.4 5.7-17.9 22.8-17.9 13.3 0 17.6 4.8 18.6 9.7l.4-8.2h5.2v18.2h-6.3v-1.9c0-7.2-3.6-12.2-16.9-12.2-13.2 0-16.9 4.7-16.9 13.1V59c0 8.6 3.6 13.1 16.9 13.1 13.4 0 16.9-4.7 16.9-12.5v-2.4h6.2v2.4c0 9.8-4.8 18-23.2 18-18.5-.1-23.7-7.2-23.7-17.8zM397.2 71.1l4.7-.1V25.6l-4.7-.2v-5.2h12.2c1.4 0 2.1.5 2.5 1.4L430.1 61h.1L448 21.7c.4-.9 1.2-1.4 2.6-1.4h11.6v5.2l-4.6.2v45.5l4.6.1v5.2h-16v-5.2l4.6-.1V27.6h-.1l-18.6 42H427l-18.9-42h-.1v43.5l4.6.1v5.2h-15.5v-5.3zM469.7 71.1l4.7-.1V25.6l-4.7-.2v-5.2h44.2c.8 0 1.4.6 1.4 1.4V32h-5.7l-.1-6.5h-28.2V45h20.2l.1-4.5h5.5v14.1h-5.5l-.1-4.5h-20.2v20.8h28.1l.1-6.5h5.7v10.4c0 .8-.5 1.4-1.4 1.4h-44.1v-5.1z"/>
</svg>
