<svg xmlns="http://www.w3.org/2000/svg" width="151" height="150" viewBox="0 0 151 150" fill="none">
	<path opacity="0.6" d="M33.2518 93.105L94.4217 33.0952C97.5762 30.0022 101.828 28.2892 106.244 28.3328C110.66 28.3763 114.878 30.1728 117.971 33.3273L90.2113 4.99387C87.1187 1.84023 82.901 0.0443275 78.4851 0.000809601C74.0692 -0.0427083 69.8172 1.66972 66.6627 4.76178L5.49091 64.7716C2.33916 67.8664 0.544305 72.0864 0.500809 76.5045C0.457313 80.9233 2.16874 85.1782 5.25897 88.3342L33.027 116.675C29.9357 113.519 28.2233 109.264 28.2665 104.846C28.3097 100.427 30.1048 96.2064 33.2572 93.1123" fill="#D4DCDD"/>
	<path d="M56.5754 116.902L117.739 56.8925C120.891 53.798 122.686 49.5775 122.729 45.159C122.772 40.7404 121.06 36.4856 117.968 33.3301L145.734 61.6582C148.826 64.814 150.538 69.0687 150.494 73.4869C150.451 77.9057 148.656 82.1256 145.505 85.2204L84.3396 145.236C81.1858 148.328 76.9338 150.041 72.5179 149.997C68.102 149.954 63.8843 148.159 60.7911 145.006L33.0195 116.672C36.1123 119.826 40.3302 121.623 44.7462 121.666C49.1622 121.709 53.4216 119.995 56.5754 116.902Z" fill="#D4DCDD"/>
	<path d="M145.741 61.6635L117.975 33.3301C121.066 36.4859 122.777 40.7408 122.734 45.1593C122.691 49.5779 120.895 53.7982 117.743 56.8925L116.045 58.5579L132.157 74.9916C135.247 78.1476 136.958 82.4025 136.915 86.8206C136.872 91.2387 135.077 95.4594 131.925 98.5542L145.505 85.2328C148.658 82.1387 150.453 77.9181 150.497 73.5C150.541 69.0813 148.828 64.8264 145.737 61.6706" fill="#C6CECF"/>
	<path opacity="0.3" d="M76.6072 18.3296L92.7194 34.7631L94.4172 33.0961C97.571 30.0033 101.824 28.2903 106.24 28.3335C110.655 28.3767 114.873 30.1725 117.966 33.3264L90.1995 4.99291C87.1069 1.83956 82.8885 0.0439802 78.4734 0.000797448C74.0575 -0.0423926 69.8055 1.67035 66.6511 4.76264L64.9531 6.42969L76.6072 18.3296Z" fill="#F5FAFC"/>
</svg>
