<svg xmlns="http://www.w3.org/2000/svg" width="100" height="100" viewBox="0 0 100 100" fill="none">
	<path opacity="0.6" d="M21.8345 62.07L62.6144 22.0635C64.7174 20.0015 67.5521 18.8595 70.496 18.8885C73.4399 18.9175 76.2522 20.1152 78.3139 22.2182L59.8075 3.32924C57.7458 1.22682 54.934 0.0295517 51.99 0.000539734C49.0461 -0.0284722 46.2115 1.11315 44.1085 3.17452L3.32728 43.1811C1.2261 45.2443 0.0295367 48.0576 0.000539501 51.003C-0.0284577 53.9489 1.1125 56.7855 3.17265 58.8895L21.6847 77.7832C19.6238 75.6792 18.4822 72.8426 18.511 69.8972C18.5398 66.9513 19.7365 64.1376 21.8381 62.0748" fill="#D4DCDD"/>
	<path d="M37.3836 77.9344L78.1591 37.928C80.2606 35.865 81.4571 33.0514 81.4858 30.1057C81.515 27.16 80.3733 24.3234 78.3121 22.2197L96.8229 41.1051C98.8837 43.209 100.025 46.0455 99.9961 48.9909C99.9675 51.9368 98.771 54.7501 96.6699 56.8133L55.893 96.8237C53.7905 98.885 50.9559 100.027 48.0119 99.9979C45.068 99.9693 42.2562 98.7723 40.1941 96.6702L21.6797 77.7809C23.7415 79.8839 26.5535 81.0814 29.4975 81.11C32.4415 81.1387 35.2811 79.9966 37.3836 77.9344Z" fill="#D4DCDD"/>
	<path d="M96.8265 41.1087L78.3157 22.2197C80.3764 24.3236 81.5176 27.1602 81.4889 30.1059C81.4598 33.0516 80.2628 35.8652 78.1612 37.928L77.0293 39.0383L87.7708 49.9941C89.8305 52.0981 90.9717 54.9347 90.9425 57.8801C90.9139 60.8255 89.7174 63.6392 87.6158 65.7024L96.6696 56.8215C98.7712 54.7588 99.9682 51.9451 99.9973 48.9997C100.026 46.0539 98.8848 43.2172 96.8241 41.1134" fill="#C6CECF"/>
	<path opacity="0.3" d="M50.7381 12.2198L61.4796 23.1754L62.6115 22.0641C64.714 20.0022 67.5491 18.8602 70.4931 18.889C73.437 18.9178 76.2488 20.115 78.3105 22.2176L59.7997 3.32861C57.738 1.22637 54.9257 0.0293201 51.9822 0.000531632C49.0383 -0.0282617 46.2037 1.11357 44.1008 3.1751L42.9688 4.28646L50.7381 12.2198Z" fill="#F5FAFC"/>
</svg>
