<svg xmlns="http://www.w3.org/2000/svg" width="120" height="120" viewBox="0 0 120 120" fill="none">
	<path opacity="0.6" d="M26.7015 74.484L75.6373 26.4762C78.1609 24.0018 81.5625 22.6314 85.0952 22.6662C88.6279 22.701 92.0027 24.1382 94.4767 26.6618L72.269 3.99509C69.7949 1.47218 66.4208 0.035462 62.888 0.000647681C59.3553 -0.0341667 55.9538 1.33578 53.4302 3.80942L4.49273 51.8173C1.97133 54.2931 0.535444 57.6691 0.500647 61.2036C0.465851 64.7387 1.83499 68.1426 4.30717 70.6674L26.5216 93.3398C24.0485 90.815 22.6787 87.4111 22.7132 83.8766C22.7477 80.3416 24.1838 76.9651 26.7057 74.4898" fill="#D4DCDD"/>
	<path d="M45.3603 93.5216L94.2909 45.514C96.8128 43.0384 98.2486 39.662 98.283 36.1272C98.318 32.5923 96.948 29.1885 94.4745 26.6641L116.688 49.3266C119.16 51.8512 120.53 55.255 120.495 58.7895C120.461 62.3246 119.025 65.7005 116.504 68.1763L67.5716 116.189C65.0486 118.662 61.6471 120.033 58.1143 119.998C54.5816 119.964 51.2074 118.527 48.7329 116.005L26.5156 93.3374C28.9898 95.8611 32.3642 97.298 35.897 97.3324C39.4298 97.3668 42.8373 95.9963 45.3603 93.5216Z" fill="#D4DCDD"/>
	<path d="M116.692 49.3308L94.4792 26.6641C96.9521 29.1887 98.3215 32.5926 98.2871 36.1275C98.2521 39.6623 96.8157 43.0386 94.2938 45.514L92.9355 46.8463L105.825 59.9933C108.297 62.5181 109.666 65.922 109.631 69.4565C109.597 72.991 108.161 76.3675 105.639 78.8433L116.504 68.1862C119.026 65.711 120.462 62.3345 120.497 58.8C120.532 55.265 119.162 51.8611 116.689 49.3365" fill="#C6CECF"/>
	<path opacity="0.3" d="M61.3857 14.6637L74.2755 27.8105L75.6338 26.4769C78.1568 24.0027 81.559 22.6322 85.0917 22.6668C88.6244 22.7013 91.9985 24.138 94.4726 26.6611L72.2596 3.99433C69.7856 1.47165 66.4108 0.0351841 62.8787 0.000637958C59.346 -0.033914 55.9444 1.33628 53.4209 3.81011L52.0625 5.14375L61.3857 14.6637Z" fill="#F5FAFC"/>
</svg>
