<svg xmlns="http://www.w3.org/2000/svg" width="50" height="50" viewBox="0 0 50 50" fill="none">
	<path opacity="0.6" d="M10.9173 31.035L31.3072 11.0317C32.3587 10.0007 33.776 9.42974 35.248 9.44426C36.72 9.45877 38.1261 10.0576 39.157 11.1091L29.9037 1.66462C28.8729 0.61341 27.467 0.0147758 25.995 0.000269867C24.5231 -0.0142361 23.1057 0.556574 22.0542 1.58726L1.66364 21.5905C0.613052 22.6221 0.0147684 24.0288 0.000269751 25.5015C-0.0142289 26.9744 0.556248 28.3927 1.58632 29.4447L10.8423 38.8916C9.81189 37.8396 9.24111 36.4213 9.25548 34.9486C9.26989 33.4757 9.86827 32.0688 10.919 31.0374" fill="#D4DCDD"/>
	<path d="M18.6918 38.9677L39.0795 18.9645C40.1303 17.933 40.7286 16.5262 40.7429 15.0533C40.7575 13.5805 40.1867 12.1622 39.156 11.1104L48.4115 20.5531C49.4418 21.605 50.0126 23.0232 49.9981 24.4959C49.9837 25.9689 49.3855 27.3755 48.3349 28.4071L27.9465 48.4123C26.8953 49.443 25.4779 50.014 24.006 49.9995C22.534 49.9851 21.1281 49.3866 20.097 48.3356L10.8398 38.8909C11.8708 39.9424 13.2767 40.5412 14.7487 40.5555C16.2207 40.5698 17.6405 39.9988 18.6918 38.9677Z" fill="#D4DCDD"/>
	<path d="M48.4123 20.5548L39.1569 11.1104C40.1872 12.1623 40.7578 13.5806 40.7435 15.0534C40.7289 16.5263 40.1304 17.9331 39.0796 18.9645L38.5137 19.5196L43.8844 24.9975C44.9143 26.0495 45.4849 27.4678 45.4703 28.9405C45.456 30.4132 44.8577 31.8201 43.8069 32.8517L48.3338 28.4113C49.3846 27.3799 49.9831 25.973 49.9977 24.5003C50.0123 23.0274 49.4414 21.6091 48.4111 20.5572" fill="#C6CECF"/>
	<path opacity="0.3" d="M25.3691 6.10988L30.7398 11.5877L31.3057 11.032C32.357 10.0011 33.7746 9.4301 35.2465 9.4445C36.7185 9.45888 38.1244 10.0575 39.1553 11.1088L29.8998 1.6643C28.869 0.613187 27.4628 0.0146601 25.9911 0.000265816C24.5192 -0.0141309 23.1018 0.556783 22.0504 1.58755L21.4844 2.14323L25.3691 6.10988Z" fill="#F5FAFC"/>
</svg>
