<svg xmlns="http://www.w3.org/2000/svg" width="160" height="160" viewBox="0 0 160 160" fill="none">
	<path opacity="0.6" d="M35.4353 99.312L100.683 35.3016C104.048 32.0024 108.583 30.1752 113.294 30.2217C118.004 30.2681 122.504 32.1843 125.802 35.5491L96.192 5.32679C92.8933 1.96291 88.3944 0.0472827 83.6841 0.000863575C78.9738 -0.0455556 74.4384 1.78104 71.0736 5.07923L5.82364 69.0898C2.46177 72.3909 0.547259 76.8922 0.500863 81.6048C0.454468 86.3182 2.27999 90.8568 5.57624 94.2232L35.1955 124.453C31.8981 121.087 30.0715 116.548 30.1176 111.836C30.1637 107.122 32.0785 102.62 35.441 99.3198" fill="#D4DCDD"/>
	<path d="M60.3137 124.696L125.555 60.686C128.917 57.3852 130.831 52.8833 130.877 48.1702C130.924 43.4571 129.097 38.9187 125.799 35.5527L155.417 65.7694C158.714 69.1356 160.541 73.6739 160.494 78.3867C160.448 83.1001 158.534 87.6013 155.172 90.9024L89.9289 154.919C86.5648 158.217 82.0294 160.045 77.3191 159.998C72.6088 159.952 68.1099 158.037 64.8105 154.674L35.1875 124.451C38.4864 127.815 42.9856 129.731 47.696 129.777C52.4063 129.823 56.9498 127.996 60.3137 124.696Z" fill="#D4DCDD"/>
	<path d="M155.422 65.7751L125.804 35.5527C129.102 38.9189 130.927 43.4575 130.881 48.1706C130.835 52.8837 128.92 57.3854 125.557 60.686L123.746 62.4624L140.932 79.9917C144.228 83.3581 146.054 87.8967 146.007 92.6093C145.961 97.322 144.047 101.824 140.684 105.125L155.171 90.9156C158.533 87.6153 160.448 83.1133 160.495 78.4007C160.542 73.6874 158.715 69.1488 155.418 65.7826" fill="#C6CECF"/>
	<path opacity="0.3" d="M81.681 19.5516L98.8673 37.0807L100.678 35.3025C104.042 32.0036 108.579 30.1763 113.289 30.2224C117.999 30.2684 122.498 32.184 125.797 35.5481L96.1795 5.32577C92.8807 1.9622 88.3811 0.0469122 83.6716 0.000850612C78.9613 -0.0452187 74.4259 1.78171 71.0612 5.08015L69.25 6.85834L81.681 19.5516Z" fill="#F5FAFC"/>
</svg>
