<svg xmlns="http://www.w3.org/2000/svg" xmlns:xlink="http://www.w3.org/1999/xlink" version="1.1" width="200" height="200" viewBox="0 0 200 200" xml:space="preserve">
	<rect x="0" y="0" width="100%" height="100%" fill="transparent"></rect>
	<g transform="matrix(1 0 0 1 100 100)" id="fbdd70a2-bd59-47a1-8ea4-d22cb6d7658d"  >
<rect style="stroke: none; stroke-width: 1; stroke-dasharray: none; stroke-linecap: butt; stroke-dashoffset: 0; stroke-linejoin: miter; stroke-miterlimit: 4; fill: rgb(255,255,255); fill-rule: nonzero; opacity: 1; visibility: hidden;" vector-effect="non-scaling-stroke"  x="-100" y="-100" rx="0" ry="0" width="200" height="200" />
</g>
	<g transform="matrix(Infinity NaN NaN Infinity 0 0)" id="fc30fb21-71b1-4093-880f-ba5a21f2c063"  >
</g>
	<g transform="matrix(0.62 0 0 0.62 100 100)"  >
<g style=""   >
		<g transform="matrix(1 0 0 1 -21.69 -22.22)"  >
<path style="stroke: none; stroke-width: 1; stroke-dasharray: none; stroke-linecap: butt; stroke-dashoffset: 0; stroke-linejoin: miter; stroke-miterlimit: 4; fill: rgb(212,220,221); fill-rule: nonzero; opacity: 0.6;" vector-effect="non-scaling-stroke"  transform=" translate(-78.31, -77.78)" d="M 43.6691 124.14 L 125.229 44.1269 C 129.435 40.003 135.104 37.719 140.992 37.7771 C 146.88 37.8351 152.504 40.2303 156.628 44.4364 L 119.615 6.65849 C 115.492 2.45364 109.868 0.0591034 103.98 0.00107947 C 98.0922 -0.0569444 92.423 2.22629 88.2169 6.34903 L 6.65455 86.3622 C 2.45221 90.4886 0.0590735 96.1152 0.001079 102.006 C -0.0569155 107.898 2.22499 113.571 6.34529 117.779 L 43.3694 155.566 C 39.2476 151.358 36.9644 145.685 37.0219 139.794 C 37.0796 133.903 39.4731 128.275 43.6762 124.15" stroke-linecap="round" />
</g>
	<g transform="matrix(1 0 0 1 21.68 22.22)"  >
<path style="stroke: none; stroke-width: 1; stroke-dasharray: none; stroke-linecap: butt; stroke-dashoffset: 0; stroke-linejoin: miter; stroke-miterlimit: 4; fill: rgb(212,220,221); fill-rule: nonzero; opacity: 1;" vector-effect="non-scaling-stroke"  transform=" translate(-121.68, -122.22)" d="M 74.7672 155.87 L 156.318 75.857 C 160.521 71.731 162.914 66.1037 162.972 60.2123 C 163.03 54.3209 160.747 48.6478 156.624 44.4404 L 193.646 82.2112 C 197.767 86.4189 200.051 92.0919 199.992 97.9828 C 199.935 103.875 197.542 109.501 193.34 113.628 L 111.786 193.648 C 107.581 197.771 101.912 200.055 96.0239 199.997 C 90.136 199.94 84.5123 197.546 80.3881 193.341 L 43.3594 155.563 C 47.483 159.769 53.107 162.164 58.995 162.221 C 64.8829 162.278 70.5622 159.994 74.7672 155.87 Z" stroke-linecap="round" />
</g>
	<g transform="matrix(1 0 0 1 77.03 -12.08)"  >
<path style="stroke: none; stroke-width: 1; stroke-dasharray: none; stroke-linecap: butt; stroke-dashoffset: 0; stroke-linejoin: miter; stroke-miterlimit: 4; fill: rgb(198,206,207); fill-rule: nonzero; opacity: 1;" vector-effect="non-scaling-stroke"  transform=" translate(-177.03, -87.92)" d="M 193.653 82.2183 L 156.631 44.4404 C 160.753 48.6481 163.035 54.3214 162.978 60.2128 C 162.92 66.1042 160.526 71.7313 156.322 75.857 L 154.059 78.0775 L 175.542 99.9892 C 179.661 104.197 181.943 109.87 181.885 115.761 C 181.828 121.652 179.435 127.279 175.232 131.406 L 193.339 113.644 C 197.542 109.519 199.936 103.891 199.995 98.0003 C 200.053 92.1087 197.77 86.4355 193.648 82.2278" stroke-linecap="round" />
</g>
	<g transform="matrix(1 0 0 1 21.28 -76.82)"  >
<path style="stroke: none; stroke-width: 1; stroke-dasharray: none; stroke-linecap: butt; stroke-dashoffset: 0; stroke-linejoin: miter; stroke-miterlimit: 4; fill: rgb(245,250,252); fill-rule: nonzero; opacity: 0.3;" vector-effect="non-scaling-stroke"  transform=" translate(-121.28, -23.18)" d="M 101.476 24.4395 L 122.959 46.3508 L 125.223 44.1281 C 129.428 40.0044 135.098 37.7204 140.986 37.778 C 146.874 37.8355 152.498 40.23 156.621 44.4351 L 119.599 6.65722 C 115.476 2.45275 109.851 0.0586402 103.964 0.00106326 C 98.0766 -0.0565234 92.4073 2.22713 88.2015 6.35019 L 85.9375 8.57292 L 101.476 24.4395 Z" stroke-linecap="round" />
</g>
</g>
</g>
</svg>
