<svg xmlns="http://www.w3.org/2000/svg" width="200" height="200" viewBox="0 0 200 200" fill="none">
	<path opacity="0.6" d="M43.6691 124.14L125.229 44.1269C129.435 40.003 135.104 37.719 140.992 37.7771C146.88 37.8351 152.504 40.2303 156.628 44.4364L119.615 6.65849C115.492 2.45364 109.868 0.0591034 103.98 0.00107947C98.0922 -0.0569444 92.423 2.22629 88.2169 6.34903L6.65455 86.3622C2.45221 90.4886 0.0590735 96.1152 0.001079 102.006C-0.0569155 107.898 2.22499 113.571 6.34529 117.779L43.3694 155.566C39.2476 151.358 36.9644 145.685 37.0219 139.794C37.0796 133.903 39.4731 128.275 43.6762 124.15" fill="#D4DCDD"/>
	<path d="M74.7672 155.87L156.318 75.857C160.521 71.731 162.914 66.1037 162.972 60.2123C163.03 54.3209 160.747 48.6478 156.624 44.4404L193.646 82.2112C197.767 86.4189 200.051 92.0919 199.992 97.9828C199.935 103.875 197.542 109.501 193.34 113.628L111.786 193.648C107.581 197.771 101.912 200.055 96.0239 199.997C90.136 199.94 84.5123 197.546 80.3881 193.341L43.3594 155.563C47.483 159.769 53.107 162.164 58.995 162.221C64.8829 162.278 70.5622 159.994 74.7672 155.87Z" fill="#D4DCDD"/>
	<path d="M193.653 82.2183L156.631 44.4404C160.753 48.6481 163.035 54.3214 162.978 60.2128C162.92 66.1042 160.526 71.7313 156.322 75.857L154.059 78.0775L175.542 99.9892C179.661 104.197 181.943 109.87 181.885 115.761C181.828 121.652 179.435 127.279 175.232 131.406L193.339 113.644C197.542 109.519 199.936 103.891 199.995 98.0003C200.053 92.1087 197.77 86.4355 193.648 82.2278" fill="#C6CECF"/>
	<path opacity="0.3" d="M101.476 24.4395L122.959 46.3508L125.223 44.1281C129.428 40.0044 135.098 37.7204 140.986 37.778C146.874 37.8355 152.498 40.23 156.621 44.4351L119.599 6.65722C115.476 2.45275 109.851 0.0586402 103.964 0.00106326C98.0766 -0.0565234 92.4073 2.22713 88.2015 6.35019L85.9375 8.57292L101.476 24.4395Z" fill="#F5FAFC"/>
</svg>