<?xml version="1.0" standalone="no"?>
<!DOCTYPE svg PUBLIC "-//W3C//DTD SVG 20010904//EN"
 "http://www.w3.org/TR/2001/REC-SVG-20010904/DTD/svg10.dtd">
<svg version="1.0" xmlns="http://www.w3.org/2000/svg"
 width="616.000000pt" height="616.000000pt" viewBox="0 0 616.000000 616.000000"
 preserveAspectRatio="xMidYMid meet">
<metadata>
Created by potrace 1.11, written by Peter Selinger 2001-2013
</metadata>
<g transform="translate(0.000000,616.000000) scale(0.100000,-0.100000)"
fill="#000000" stroke="none">
<path d="M3030 6141 c-158 -40 -226 -87 -450 -307 -96 -95 -227 -223 -291
-285 -64 -63 -298 -292 -520 -510 -222 -218 -462 -454 -534 -524 -71 -70 -299
-293 -505 -495 -206 -203 -419 -411 -473 -464 -95 -94 -177 -196 -177 -223 0
-7 -4 -13 -10 -13 -5 0 -10 -8 -10 -18 0 -10 -4 -22 -9 -27 -20 -22 -49 -175
-49 -259 0 -208 69 -356 252 -542 86 -86 850 -864 971 -988 55 -56 90 -90 79
-76 -184 217 -211 540 -67 790 27 48 91 118 239 265 185 184 799 787 1104
1085 70 69 234 229 362 355 1033 1013 991 974 1110 1029 46 22 88 35 163 53
11 2 58 6 105 7 146 4 306 -46 415 -129 25 -19 45 -33 45 -30 0 2 -51 56 -112
118 -62 63 -279 284 -483 492 -203 208 -415 422 -469 477 -172 172 -317 237
-528 236 -53 0 -121 -8 -158 -17z"/>
<path d="M4874 4731 c84 -104 137 -261 138 -411 1 -139 -24 -235 -94 -355 -43
-73 -81 -112 -655 -675 -138 -135 -424 -416 -638 -625 -213 -209 -449 -441
-525 -515 -76 -74 -294 -288 -484 -475 -208 -204 -374 -359 -416 -387 -241
-163 -547 -155 -783 21 -40 29 -68 49 -64 45 1157 -1181 1182 -1206 1262
-1252 101 -59 227 -93 340 -93 91 0 101 2 190 22 56 13 149 57 210 99 53 37
85 68 542 517 213 209 449 440 523 513 74 73 308 302 520 510 212 208 444 435
515 505 328 320 531 524 566 567 56 71 102 175 125 283 12 53 10 206 -3 270
-16 79 -76 211 -123 270 -17 22 -183 195 -368 384 -539 550 -817 829 -778 782z"/>
</g>
</svg>
