<svg xmlns="http://www.w3.org/2000/svg" width="24" height="24" viewBox="0 0 24 24" fill="none">
    <path fill-rule="evenodd" clip-rule="evenodd" d="M17 21C17 19.8954 17.8954 19 19 19C20.1046 19 21 19.8954 21 21C21 22.1046 20.1046 23 19 23C17.8954 23 17 22.1046 17 21Z" fill="#002434"/>
    <path fill-rule="evenodd" clip-rule="evenodd" d="M6 21C6 19.8954 6.89543 19 8 19C9.10457 19 10 19.8954 10 21C10 22.1046 9.10457 23 8 23C6.89543 23 6 22.1046 6 21Z" fill="#002434"/>
    <path fill-rule="evenodd" clip-rule="evenodd" d="M0 1C0 0.447715 0.447715 0 1 0H4C4.47663 0 4.88701 0.336385 4.98055 0.803743L5.82043 5H22C22.298 5 22.5805 5.13293 22.7705 5.36256C22.9605 5.59218 23.0381 5.89458 22.9823 6.18733L21.3809 14.5848C21.2437 15.2754 20.868 15.8958 20.3195 16.3373C19.7738 16.7766 19.0916 17.011 18.3914 17H8.68864C7.98838 17.011 7.3062 16.7766 6.76048 16.3373C6.21225 15.8959 5.83664 15.2759 5.69933 14.5857L4.02879 6.2392C4.02201 6.21159 4.01638 6.18353 4.01195 6.15508L3.18032 2H1C0.447715 2 0 1.55228 0 1ZM6.22073 7L7.66084 14.1952C7.70656 14.4254 7.83179 14.6322 8.01461 14.7793C8.19743 14.9265 8.42619 15.0047 8.66084 15.0002L8.68 15H18.4L18.4192 15.0002C18.6538 15.0047 18.8826 14.9265 19.0654 14.7793C19.2474 14.6328 19.3723 14.4273 19.4185 14.1984L20.7913 7H6.22073Z" fill="#002434"/>
</svg>
