<svg xmlns="http://www.w3.org/2000/svg" width="24" height="24" viewBox="0 0 24 24" fill="none">
    <path d="M7 16C7 15.4477 7.44772 15 8 15H16C16.5523 15 17 15.4477 17 16C17 16.5523 16.5523 17 16 17H8C7.44772 17 7 16.5523 7 16Z" fill="#002434"/>
    <path d="M8 10C7.44772 10 7 10.4477 7 11C7 11.5523 7.44772 12 8 12H12C12.5523 12 13 11.5523 13 11C13 10.4477 12.5523 10 12 10H8Z" fill="#002434"/>
    <path fill-rule="evenodd" clip-rule="evenodd" d="M9 1C7.89543 1 7 1.89543 7 3H6C5.20435 3 4.44129 3.31607 3.87868 3.87868C3.31607 4.44129 3 5.20435 3 6V20C3 20.7957 3.31607 21.5587 3.87868 22.1213C4.44129 22.6839 5.20435 23 6 23H18C18.7957 23 19.5587 22.6839 20.1213 22.1213C20.6839 21.5587 21 20.7957 21 20V6C21 5.20435 20.6839 4.44129 20.1213 3.87868C19.5587 3.31607 18.7956 3 18 3H17C17 1.89543 16.1046 1 15 1H9ZM17 5C17 6.10457 16.1046 7 15 7H9C7.89543 7 7 6.10457 7 5H6C5.73478 5 5.48043 5.10536 5.29289 5.29289C5.10536 5.48043 5 5.73478 5 6V20C5 20.2652 5.10536 20.5196 5.29289 20.7071C5.48043 20.8946 5.73478 21 6 21H18C18.2652 21 18.5196 20.8946 18.7071 20.7071C18.8946 20.5196 19 20.2652 19 20V6C19 5.73478 18.8946 5.48043 18.7071 5.29289C18.5196 5.10536 18.2652 5 18 5H17ZM9 5H15V3H9V5Z" fill="#002434"/>
</svg>
