<svg xmlns="http://www.w3.org/2000/svg" width="84" height="84" viewBox="0 0 84 84">
  <defs>
    <style>.star {fill-rule:evenodd;fill:#cc5c28;filter:url(#shadow);}.label{fill-rule:evenodd;fill:#fff;transform:translate(16px, 30px);}</style>
    <filter id="shadow">
      <feOffset result="offOut" in="SourceAlpha" dy="2"/>
      <feGaussianBlur result="blurOut" in="offOut" stdDeviation="1"/>
      <feBlend in="SourceGraphic" in2="blurOut"/>
      <feComponentTransfer>
        <feFuncA type="linear" slope=".6"/>
      </feComponentTransfer>
      <feMerge>
        <feMergeNode/>
        <feMergeNode in="SourceGraphic"/>
      </feMerge>
    </filter>
  </defs>
  <path class="star" d="M40 75l7 4.4 5-6.5 8 1.6 2.5-7.8 8-1-.2-8.3 7.3-3.8-3-7.6 5.4-6-5.5-6 3-7.7-7.2-3.8.3-8.2-8-1-2.6-8-8 1.8-5-6.4-7 4.4-7-4.4-5 6.5-8-1.6-2.5 7.8-8 1 .2 8.3-7.3 3.8 3 7.6-5.4 6 5.5 6-3 7.7 7.2 3.8-.3 8.2 8 1 2.6 8 8-1.8 5 6.4 7-4.4z"/>
  <path class="label" d="M45.4 18H43c-.2 0-.4-.2-.5-.5l-2.2-7-.2-1V9l-.2.7c0 .2 0 .4-.2.7l-2.3 7c0 .4-.3.6-.6.6h-2.3l-4-12.3h2.9l.3.5 1.8 6.6.2 1 .2 1c0-.2 0-.6.2-1l.3-1 2-6.6.3-.4h2.4l.3.4 2 6.6.2 1c0 .4.2.8.3 1 0-.6.3-1.3.5-2l1.8-6.6s0-.3.3-.4h2.8l-4 12.2zm-17-5.8h-7.6c0 .6.2 1.2.3 1.7l.8 1 1 .7 1.4.2 1.2-.3c.4 0 .7-.2 1-.4l.6-.3.6-.2c.2 0 .4 0 .5.3l1 1.2-1 1-1.4.6-1.4.3-1.3.2c-1 0-1.7-.2-2.5-.4-.7-.3-1.4-.8-2-1.3-.4-.6-1-1.3-1.2-2-.3-1-.5-1.8-.5-3 0-.8.2-1.6.5-2.3.2-.7.6-1.4 1-2 .6-.5 1.3-1 2-1.2.7-.3 1.5-.5 2.5-.5.7 0 1.5 0 2 .4.8 0 1.3.5 1.8 1 .5.4.8 1 1 1.7.4.7.5 1.5.5 2.4v1l-.6.2zm-2-3l-.6-.8-.8-.6-1.2-.2c-.8 0-1.5.3-2 .8-.5.4-.8 1-1 2h5.6v-1zM12.5 18l-.5-.6L3 6v12H.4V.6h2.3c0 .2 0 .2.2.3L3 1l9 11.6V12 .6h3V18h-2.4z"/>
</svg>
