<svg xmlns="http://www.w3.org/2000/svg" width="100%" height="100%" viewBox="0 0 84 84">
  <defs>
    <style>.star {fill-rule:evenodd;fill:#cc5c28;filter:url(#shadow);}.label{fill-rule:evenodd;fill:#fff;}</style>
    <filter id="shadow" filterRes="1500">
      <feOffset result="offOut" in="SourceAlpha" dy="2"/>
      <feGaussianBlur result="blurOut" in="offOut" stdDeviation="1"/>
      <feBlend in="SourceGraphic" in2="blurOut"/>
      <feComponentTransfer>
        <feFuncA type="linear" slope=".6"/>
      </feComponentTransfer>
      <feMerge>
        <feMergeNode/>
        <feMergeNode in="SourceGraphic"/>
      </feMerge>
    </filter>
  </defs>
  <path class="star" d="M40 75l7 4.4 5-6.5 8 1.6 2.5-7.8 8-1-.2-8.3 7.3-3.8-3-7.6 5.4-6-5.5-6 3-7.7-7.2-3.8.3-8.2-8-1-2.6-8-8 1.8-5-6.4-7 4.4-7-4.4-5 6.5-8-1.6-2.5 7.8-8 1 .2 8.3-7.3 3.8 3 7.6-5.4 6 5.5 6-3 7.7 7.2 3.8-.3 8.2 8 1 2.6 8 8-1.8 5 6.4 7-4.4z"/>
  <path class="label" d="M61.4,48H59c-.2,0-.4-.2-.5-.5l-2.2-7-.2-1V39l-.2.7a1.08,1.08,0,0,1-.2.7l-2.3,7a.58.58,0,0,1-.6.6H50.5l-4-12.3h2.9l.3.5,1.8,6.6.2,1,.2,1a2.17,2.17,0,0,1,.2-1l.3-1,2-6.6.3-.4h2.4l.3.4,2,6.6.2,1a2.37,2.37,0,0,0,.3,1,8.35,8.35,0,0,1,.5-2l1.8-6.6a.44.44,0,0,1,.3-.4h2.8L61.3,48Zm-17-5.8H36.8a8.59,8.59,0,0,0,.3,1.7l.8,1,1,.7,1.4.2,1.2-.3a1.78,1.78,0,0,0,1-.4l.6-.3.6-.2c.2,0,.4,0,.5.3l1,1.2-1,1-1.4.6-1.4.3-1.3.2a9.35,9.35,0,0,1-2.5-.4,8.58,8.58,0,0,1-2-1.3,8.18,8.18,0,0,1-1.2-2,9.43,9.43,0,0,1-.5-3,5.93,5.93,0,0,1,.5-2.3,7.5,7.5,0,0,1,1-2,5.93,5.93,0,0,1,2-1.2,6.18,6.18,0,0,1,2.5-.5,3.29,3.29,0,0,1,2,.4,2.53,2.53,0,0,1,1.8,1,3.23,3.23,0,0,1,1,1.7,4.71,4.71,0,0,1,.5,2.4v1l-.6.2Zm-2-3-.6-.8-.8-.6-1.2-.2a2.79,2.79,0,0,0-2,.8,3.15,3.15,0,0,0-1,2h5.6V39.2ZM28.5,48l-.5-.6L19,36V48H16.4V30.6h2.3c0,.2,0,.2.2.3l.1.1,9,11.6v-12h3V48H28.5Z"/>
</svg>
